<svg version="1.1" xmlns="http://www.w3.org/2000/svg" xmlns:xlink="http://www.w3.org/1999/xlink" stroke-linecap="round" stroke-linejoin="round" stroke-width="0" fill-rule="evenodd" width="3.529882in" height="0.9291889999999999in" viewBox="597.264 421.232 3529.882 929.189" id="UvkWrTDsMS6MmkTCiVC0"><defs><circle cx="0" cy="0" r="20" id="UvkWrTDsMS6MmkTCiVC0_pad-36"/><circle cx="0" cy="0" r="42.5" id="UvkWrTDsMS6MmkTCiVC0_pad-35"/></defs><g transform="translate(0,1771.653) scale(1,-1)" fill="currentColor" stroke="currentColor"><path d="M 3592.52 787.36 3737.45 787.36 4084.646 787.36 M 1131.89 787.36 1006.201 787.36 639.764 787.36" fill="none" stroke-width="12"/><path d="M 639.764 984.21 1131.89 984.21 M 3592.52 984.21 4084.646 984.21" fill="none" stroke-width="22"/><use xlink:href="#UvkWrTDsMS6MmkTCiVC0_pad-36" x="3737.45" y="787.36"/><use xlink:href="#UvkWrTDsMS6MmkTCiVC0_pad-36" x="1006.201" y="787.36"/><path d="M 644.939 1313.025 4079.474 1313.025 M 644.939 1288.156 4079.474 1288.156 M 644.939 1263.287 4079.474 1263.287 M 644.939 1238.419 4079.474 1238.419 M 644.939 1213.55 4079.474 1213.55 M 644.939 1188.681 4079.474 1188.681 M 644.939 1163.812 4079.474 1163.812 M 644.939 1138.944 4079.474 1138.944 M 644.939 1114.075 833.068 1114.075 M 938.579 1114.075 1817.335 1114.075 M 1922.847 1114.075 2801.567 1114.075 M 2907.078 1114.075 3785.834 1114.075 M 3891.346 1114.075 4079.474 1114.075 M 644.939 1089.206 816.633 1089.206 M 955.014 1089.206 1800.864 1089.206 M 1939.282 1089.206 2785.132 1089.206 M 2923.549 1089.206 3769.363 1089.206 M 3907.781 1089.206 4079.474 1089.206 M 644.939 1064.337 811.645 1064.337 M 960.002 1064.337 1795.912 1064.337 M 1944.234 1064.337 2780.144 1064.337 M 2928.501 1064.337 3764.411 1064.337 M 3912.769 1064.337 4079.474 1064.337 M 683.586 1039.469 815.592 1039.469 M 956.055 1039.469 1088.097 1039.469 M 1175.702 1039.469 1580.213 1039.469 M 1667.818 1039.469 1799.86 1039.469 M 1940.322 1039.469 2072.328 1039.469 M 2159.934 1039.469 2564.444 1039.469 M 2652.085 1039.469 2784.091 1039.469 M 2924.554 1039.469 3056.596 1039.469 M 3144.201 1039.469 3548.711 1039.469 M 3636.317 1039.469 3768.358 1039.469 M 3908.821 1039.469 4040.827 1039.469 M 1196.336 1014.6 1559.579 1014.6 M 1688.451 1014.6 1814.644 1014.6 M 1925.502 1014.6 2051.695 1014.6 M 2180.567 1014.6 2543.846 1014.6 M 2672.719 1014.6 2798.911 1014.6 M 2909.77 1014.6 3035.962 1014.6 M 3164.834 1014.6 3528.078 1014.6 M 1203.154 989.731 1552.761 989.731 M 1695.269 989.731 2044.877 989.731 M 2187.421 989.731 2536.993 989.731 M 2679.537 989.731 3029.108 989.731 M 3171.652 989.731 3521.26 989.731 M 1200.606 964.862 1555.309 964.862 M 1692.722 964.862 2047.425 964.862 M 2184.873 964.862 2539.54 964.862 M 2676.989 964.862 3031.656 964.862 M 3169.105 964.862 3523.808 964.862 M 695.213 939.993 1076.434 939.993 M 1187.365 939.993 1568.55 939.993 M 1679.48 939.993 2060.666 939.993 M 2171.596 939.993 2552.818 939.993 M 2663.712 939.993 3044.933 939.993 M 3155.863 939.993 3537.049 939.993 M 3647.979 939.993 4029.201 939.993 M 644.939 915.125 4079.474 915.125 M 644.939 890.256 4079.474 890.256 M 644.939 865.387 4079.474 865.387 M 686.242 840.518 1085.405 840.518 M 1178.358 840.518 1577.521 840.518 M 1670.509 840.518 2069.673 840.518 M 2162.625 840.518 2561.789 840.518 M 2654.741 840.518 3053.904 840.518 M 3146.856 840.518 3546.056 840.518 M 3639.008 840.518 4038.172 840.518 M 1197.304 815.65 1558.574 815.65 M 1689.456 815.65 2050.726 815.65 M 2181.572 815.65 2542.842 815.65 M 2673.688 815.65 3034.957 815.65 M 3165.803 815.65 3527.109 815.65 M 1203.297 790.781 1552.618 790.781 M 1695.413 790.781 2044.733 790.781 M 2187.564 790.781 2536.849 790.781 M 2679.68 790.781 3029.001 790.781 M 3171.796 790.781 3521.116 790.781 M 1199.96 765.912 1555.955 765.912 M 1692.076 765.912 1824.476 765.912 M 1915.67 765.912 2048.071 765.912 M 2184.227 765.912 2540.186 765.912 M 2676.343 765.912 2808.744 765.912 M 2899.901 765.912 3032.302 765.912 M 3168.459 765.912 3524.454 765.912 M 693.383 741.043 819.396 741.043 M 952.251 741.043 999.678 741.043 M 1012.757 741.043 1078.265 741.043 M 1185.534 741.043 1570.38 741.043 M 1677.65 741.043 1803.627 741.043 M 1936.519 741.043 2062.496 741.043 M 2169.766 741.043 2554.648 741.043 M 2661.918 741.043 2787.895 741.043 M 2920.75 741.043 3046.763 741.043 M 3154.033 741.043 3538.879 741.043 M 3646.149 741.043 3730.895 741.043 M 3743.969 741.043 3772.162 741.043 M 3905.018 741.043 4030.995 741.043 M 644.939 716.175 812.04 716.175 M 959.608 716.175 1796.307 716.175 M 1943.875 716.175 2780.539 716.175 M 2928.106 716.175 3764.806 716.175 M 3912.374 716.175 4079.474 716.175 M 644.939 691.306 813.762 691.306 M 957.885 691.306 1798.03 691.306 M 1942.153 691.306 2782.261 691.306 M 2926.384 691.306 3766.528 691.306 M 3910.651 691.306 4079.474 691.306 M 644.939 666.437 825.353 666.437 M 946.295 666.437 1809.62 666.437 M 1930.526 666.437 2793.852 666.437 M 2914.793 666.437 3778.119 666.437 M 3899.061 666.437 4079.474 666.437 M 644.939 641.568 857.972 641.568 M 913.676 641.568 1842.203 641.568 M 1897.943 641.568 2826.47 641.568 M 2882.175 641.568 3810.738 641.568 M 3866.442 641.568 4079.474 641.568 M 644.939 616.699 4079.474 616.699 M 644.939 591.831 4079.474 591.831 M 644.939 566.962 4079.474 566.962 M 644.939 542.093 4079.474 542.093 M 644.939 517.224 4079.474 517.224 M 644.939 492.356 4079.474 492.356 M 644.939 467.487 4079.474 467.487 M 644.939 442.618 4079.474 442.618 M 3653.341 754.875 3648.335 746.807 3641.304 738.575 3633.072 731.544 3623.841 725.887 3613.839 721.744 3603.312 719.217 3592.52 718.367 3581.727 719.217 3571.2 721.744 3561.198 725.887 3551.967 731.544 3543.735 738.575 3536.704 746.807 3531.047 756.038 3526.904 766.04 3524.377 776.567 3523.528 787.36 3524.377 798.152 3526.904 808.679 3531.047 818.681 3536.704 827.912 3543.735 836.144 3551.967 843.175 3561.198 848.832 3571.2 852.975 3581.727 855.502 3592.52 856.352 3603.312 855.502 3613.839 852.975 3623.841 848.832 3633.072 843.175 3641.304 836.144 3648.335 827.912 3653.341 819.845 3704.227 819.852 3710.123 824.973 3716.343 828.784 3723.083 831.576 3730.177 833.279 3737.45 833.852 3744.723 833.279 3751.817 831.576 3758.557 828.784 3764.778 824.973 3770.683 819.847 4023.77 819.852 4028.83 827.912 4035.861 836.144 4044.093 843.175 4053.324 848.832 4063.326 852.975 4073.853 855.502 4082.003 856.248 4081.988 915.277 4073.853 916.067 4063.326 918.595 4053.324 922.738 4044.093 928.394 4035.861 935.425 4028.83 943.657 4026.796 946.701 3650.411 946.718 3644.982 939.403 3637.326 931.748 3628.568 925.385 3618.922 920.47 3608.626 917.124 3597.933 915.431 3587.107 915.431 3576.414 917.124 3566.118 920.47 3556.471 925.385 3547.713 931.748 3540.058 939.403 3533.694 948.162 3528.779 957.808 3525.434 968.104 3523.74 978.797 3523.74 989.623 3525.434 1000.316 3528.779 1010.612 3533.694 1020.258 3540.058 1029.017 3547.713 1036.672 3556.471 1043.035 3566.118 1047.95 3576.414 1051.296 3587.107 1052.989 3597.933 1052.989 3608.626 1051.296 3618.922 1047.95 3628.568 1043.035 3637.326 1036.672 3644.982 1029.017 3650.369 1021.719 3779.943 1021.702 3774.71 1030.405 3770.405 1040.798 3767.779 1051.736 3766.896 1062.95 3767.779 1074.164 3770.405 1085.102 3774.71 1095.495 3780.587 1105.086 3787.893 1113.64 3796.446 1120.946 3806.038 1126.823 3816.43 1131.128 3827.368 1133.754 3838.583 1134.636 3849.797 1133.754 3860.735 1131.128 3871.128 1126.823 3880.719 1120.946 3889.273 1113.64 3896.578 1105.086 3902.456 1095.495 3906.76 1085.102 3909.386 1074.164 3910.269 1062.95 3909.386 1051.736 3906.76 1040.798 3902.456 1030.405 3897.177 1021.71 4026.754 1021.702 4032.184 1029.017 4039.839 1036.672 4048.597 1043.035 4058.244 1047.95 4068.54 1051.296 4079.233 1052.989 4082.003 1053.098 4081.988 1337.921 642.394 1337.894 642.421 1053.165 650.557 1052.353 661.084 1049.825 671.086 1045.682 680.316 1040.026 688.549 1032.995 695.58 1024.763 697.613 1021.719 827.187 1021.702 821.954 1030.405 817.649 1040.798 815.023 1051.736 814.14 1062.95 815.023 1074.164 817.649 1085.102 821.954 1095.495 827.831 1105.086 835.137 1113.64 843.691 1120.946 853.282 1126.823 863.674 1131.128 874.613 1133.754 885.827 1134.636 897.041 1133.754 907.979 1131.128 918.372 1126.823 927.963 1120.946 936.517 1113.64 943.822 1105.086 949.7 1095.495 954.005 1085.102 956.631 1074.164 957.513 1062.95 956.631 1051.736 954.005 1040.798 949.7 1030.405 944.421 1021.71 1073.998 1021.702 1079.428 1029.017 1087.083 1036.672 1095.841 1043.035 1105.488 1047.95 1115.784 1051.296 1126.477 1052.989 1137.303 1052.989 1147.996 1051.296 1158.292 1047.95 1167.938 1043.035 1176.697 1036.672 1184.352 1029.017 1190.715 1020.258 1195.63 1010.612 1198.976 1000.316 1200.669 989.623 1200.669 978.797 1198.976 968.104 1195.63 957.808 1190.715 948.162 1184.352 939.403 1176.697 931.748 1167.938 925.385 1158.292 920.47 1147.996 917.124 1137.303 915.431 1126.477 915.431 1115.784 917.124 1105.488 920.47 1095.841 925.385 1087.083 931.748 1079.428 939.403 1074.04 946.701 697.655 946.718 692.226 939.403 684.571 931.748 675.812 925.385 666.166 920.47 655.87 917.124 645.177 915.431 642.407 915.322 642.421 856.304 650.557 855.502 661.084 852.975 671.086 848.832 680.316 843.175 688.549 836.144 695.58 827.912 700.585 819.845 972.948 819.852 978.873 824.973 985.094 828.784 991.834 831.576 998.928 833.279 1006.201 833.852 1013.474 833.279 1020.568 831.576 1027.308 828.784 1033.528 824.973 1039.434 819.847 1071.044 819.852 1076.074 827.912 1083.105 836.144 1091.337 843.175 1100.568 848.832 1110.57 852.975 1121.097 855.502 1131.89 856.352 1142.683 855.502 1153.21 852.975 1163.212 848.832 1172.442 843.175 1180.675 836.144 1187.706 827.912 1193.362 818.681 1197.505 808.679 1200.032 798.152 1200.882 787.36 1200.032 776.567 1197.505 766.04 1193.362 756.038 1187.706 746.807 1180.675 738.575 1172.442 731.544 1163.212 725.887 1153.21 721.744 1142.683 719.217 1131.89 718.367 1121.097 719.217 1110.57 721.744 1100.568 725.887 1091.337 731.544 1083.105 738.575 1076.074 746.807 1071.069 754.875 1039.488 754.867 1033.528 749.747 1027.308 745.935 1020.568 743.143 1013.474 741.44 1006.201 740.867 998.928 741.44 991.834 743.143 985.094 745.935 978.873 749.747 972.968 754.872 940.569 754.867 946.949 746.075 952.056 736.053 955.532 725.354 957.292 714.244 957.292 702.995 955.532 691.885 952.056 681.186 946.949 671.163 940.338 662.063 932.383 654.109 923.283 647.497 913.26 642.39 902.562 638.914 891.451 637.154 880.202 637.154 869.092 638.914 858.394 642.39 848.371 647.497 839.27 654.109 831.316 662.063 824.704 671.163 819.597 681.186 816.121 691.885 814.361 702.995 814.361 714.244 816.121 725.354 819.597 736.053 824.704 746.075 831.085 754.882 700.647 754.867 695.58 746.807 688.549 738.575 680.316 731.544 671.086 725.887 661.084 721.744 650.557 719.217 642.407 718.471 642.421 433.732 4082.016 433.76 4081.988 718.417 4073.853 719.217 4063.326 721.744 4053.324 725.887 4044.093 731.544 4035.861 738.575 4028.83 746.807 4023.825 754.875 3893.347 754.867 3899.705 746.075 3904.812 736.053 3908.288 725.354 3910.048 714.244 3910.048 702.995 3908.288 691.885 3904.812 681.186 3899.705 671.163 3893.093 662.063 3885.139 654.109 3876.039 647.497 3866.016 642.39 3855.318 638.914 3844.207 637.154 3832.958 637.154 3821.848 638.914 3811.149 642.39 3801.127 647.497 3792.026 654.109 3784.072 662.063 3777.46 671.163 3772.353 681.186 3768.877 691.885 3767.117 702.995 3767.117 714.244 3768.877 725.354 3772.353 736.053 3777.46 746.075 3783.841 754.882 3770.695 754.867 3764.778 749.747 3758.557 745.935 3751.817 743.143 3744.723 741.44 3737.45 740.867 3730.177 741.44 3723.083 743.143 3716.343 745.935 3710.123 749.747 3704.217 754.872 3653.373 754.867 M 2677.047 781.947 2675.354 771.254 2672.008 760.957 2667.093 751.311 2660.73 742.553 2653.075 734.898 2644.316 728.534 2634.67 723.619 2624.374 720.274 2613.681 718.58 2602.855 718.58 2592.162 720.274 2581.866 723.619 2572.219 728.534 2563.461 734.898 2555.806 742.553 2549.442 751.311 2544.527 760.957 2541.182 771.254 2539.488 781.947 2539.488 792.773 2541.182 803.465 2544.527 813.762 2549.442 823.408 2555.806 832.166 2563.461 839.822 2572.219 846.185 2581.866 851.1 2592.162 854.445 2602.855 856.139 2613.681 856.139 2624.374 854.445 2634.67 851.1 2644.316 846.185 2653.075 839.822 2660.73 832.166 2667.093 823.408 2672.008 813.762 2675.354 803.465 2677.047 792.773 2677.047 781.947 M 2677.047 978.797 2675.354 968.104 2672.008 957.808 2667.093 948.162 2660.73 939.403 2653.075 931.748 2644.316 925.385 2634.67 920.47 2624.374 917.124 2613.681 915.431 2602.855 915.431 2592.162 917.124 2581.866 920.47 2572.219 925.385 2563.461 931.748 2555.806 939.403 2549.442 948.162 2544.527 957.808 2541.182 968.104 2539.488 978.797 2539.488 989.623 2541.182 1000.316 2544.527 1010.612 2549.442 1020.258 2555.806 1029.017 2563.461 1036.672 2572.219 1043.035 2581.866 1047.95 2592.162 1051.296 2602.855 1052.989 2613.681 1052.989 2624.374 1051.296 2634.67 1047.95 2644.316 1043.035 2653.075 1036.672 2660.73 1029.017 2667.093 1020.258 2672.008 1010.612 2675.354 1000.316 2677.047 989.623 2677.047 978.797 M 3169.173 978.797 3167.48 968.104 3164.134 957.808 3159.219 948.162 3152.856 939.403 3145.201 931.748 3136.442 925.385 3126.796 920.47 3116.5 917.124 3105.807 915.431 3094.981 915.431 3084.288 917.124 3073.992 920.47 3064.345 925.385 3055.587 931.748 3047.932 939.403 3041.568 948.162 3036.653 957.808 3033.308 968.104 3031.614 978.797 3031.614 989.623 3033.308 1000.316 3036.653 1010.612 3041.568 1020.258 3047.932 1029.017 3055.587 1036.672 3064.345 1043.035 3073.992 1047.95 3084.288 1051.296 3094.981 1052.989 3105.807 1052.989 3116.5 1051.296 3126.796 1047.95 3136.442 1043.035 3145.201 1036.672 3152.856 1029.017 3159.219 1020.258 3164.134 1010.612 3167.48 1000.316 3169.173 989.623 3169.173 978.797 M 3169.173 781.947 3167.48 771.254 3164.134 760.957 3159.219 751.311 3152.856 742.553 3145.201 734.898 3136.442 728.534 3126.796 723.619 3116.5 720.274 3105.807 718.58 3094.981 718.58 3084.288 720.274 3073.992 723.619 3064.345 728.534 3055.587 734.898 3047.932 742.553 3041.568 751.311 3036.653 760.957 3033.308 771.254 3031.614 781.947 3031.614 792.773 3033.308 803.465 3036.653 813.762 3041.568 823.408 3047.932 832.166 3055.587 839.822 3064.345 846.185 3073.992 851.1 3084.288 854.445 3094.981 856.139 3105.807 856.139 3116.5 854.445 3126.796 851.1 3136.442 846.185 3145.201 839.822 3152.856 832.166 3159.219 823.408 3164.134 813.762 3167.48 803.465 3169.173 792.773 3169.173 781.947 M 2925.796 702.995 2924.036 691.885 2920.56 681.186 2915.453 671.163 2908.841 662.063 2900.887 654.109 2891.787 647.497 2881.764 642.39 2871.066 638.914 2859.955 637.154 2848.706 637.154 2837.596 638.914 2826.898 642.39 2816.875 647.497 2807.774 654.109 2799.82 662.063 2793.208 671.163 2788.101 681.186 2784.625 691.885 2782.865 702.995 2782.865 714.244 2784.625 725.354 2788.101 736.053 2793.208 746.075 2799.82 755.176 2807.774 763.13 2816.875 769.742 2826.898 774.849 2837.596 778.325 2848.706 780.085 2859.955 780.085 2871.066 778.325 2881.764 774.849 2891.787 769.742 2900.887 763.13 2908.841 755.176 2915.453 746.075 2920.56 736.053 2924.036 725.354 2925.796 714.244 2925.796 702.995 M 2925.796 1057.326 2924.036 1046.215 2920.56 1035.517 2915.453 1025.494 2908.841 1016.394 2900.887 1008.439 2891.787 1001.827 2881.764 996.721 2871.066 993.244 2859.955 991.485 2848.706 991.485 2837.596 993.244 2826.898 996.721 2816.875 1001.827 2807.774 1008.439 2799.82 1016.394 2793.208 1025.494 2788.101 1035.517 2784.625 1046.215 2782.865 1057.326 2782.865 1068.575 2784.625 1079.685 2788.101 1090.383 2793.208 1100.406 2799.82 1109.507 2807.774 1117.461 2816.875 1124.073 2826.898 1129.18 2837.596 1132.656 2848.706 1134.415 2859.955 1134.415 2871.066 1132.656 2881.764 1129.18 2891.787 1124.073 2900.887 1117.461 2908.841 1109.507 2915.453 1100.406 2920.56 1090.383 2924.036 1079.685 2925.796 1068.575 2925.796 1057.326 M 1692.795 781.947 1691.102 771.254 1687.756 760.957 1682.841 751.311 1676.478 742.553 1668.823 734.898 1660.064 728.534 1650.418 723.619 1640.122 720.274 1629.429 718.58 1618.603 718.58 1607.91 720.274 1597.614 723.619 1587.967 728.534 1579.209 734.898 1571.554 742.553 1565.19 751.311 1560.275 760.957 1556.93 771.254 1555.236 781.947 1555.236 792.773 1556.93 803.465 1560.275 813.762 1565.19 823.408 1571.554 832.166 1579.209 839.822 1587.967 846.185 1597.614 851.1 1607.91 854.445 1618.603 856.139 1629.429 856.139 1640.122 854.445 1650.418 851.1 1660.064 846.185 1668.823 839.822 1676.478 832.166 1682.841 823.408 1687.756 813.762 1691.102 803.465 1692.795 792.773 1692.795 781.947 M 1692.795 978.797 1691.102 968.104 1687.756 957.808 1682.841 948.162 1676.478 939.403 1668.823 931.748 1660.064 925.385 1650.418 920.47 1640.122 917.124 1629.429 915.431 1618.603 915.431 1607.91 917.124 1597.614 920.47 1587.967 925.385 1579.209 931.748 1571.554 939.403 1565.19 948.162 1560.275 957.808 1556.93 968.104 1555.236 978.797 1555.236 989.623 1556.93 1000.316 1560.275 1010.612 1565.19 1020.258 1571.554 1029.017 1579.209 1036.672 1587.967 1043.035 1597.614 1047.95 1607.91 1051.296 1618.603 1052.989 1629.429 1052.989 1640.122 1051.296 1650.418 1047.95 1660.064 1043.035 1668.823 1036.672 1676.478 1029.017 1682.841 1020.258 1687.756 1010.612 1691.102 1000.316 1692.795 989.623 1692.795 978.797 M 2184.921 978.797 2183.228 968.104 2179.882 957.808 2174.967 948.162 2168.604 939.403 2160.949 931.748 2152.19 925.385 2142.544 920.47 2132.248 917.124 2121.555 915.431 2110.729 915.431 2100.036 917.124 2089.74 920.47 2080.093 925.385 2071.335 931.748 2063.68 939.403 2057.316 948.162 2052.401 957.808 2049.056 968.104 2047.362 978.797 2047.362 989.623 2049.056 1000.316 2052.401 1010.612 2057.316 1020.258 2063.68 1029.017 2071.335 1036.672 2080.093 1043.035 2089.74 1047.95 2100.036 1051.296 2110.729 1052.989 2121.555 1052.989 2132.248 1051.296 2142.544 1047.95 2152.19 1043.035 2160.949 1036.672 2168.604 1029.017 2174.967 1020.258 2179.882 1010.612 2183.228 1000.316 2184.921 989.623 2184.921 978.797 M 2184.921 781.947 2183.228 771.254 2179.882 760.957 2174.967 751.311 2168.604 742.553 2160.949 734.898 2152.19 728.534 2142.544 723.619 2132.248 720.274 2121.555 718.58 2110.729 718.58 2100.036 720.274 2089.74 723.619 2080.093 728.534 2071.335 734.898 2063.68 742.553 2057.316 751.311 2052.401 760.957 2049.056 771.254 2047.362 781.947 2047.362 792.773 2049.056 803.465 2052.401 813.762 2057.316 823.408 2063.68 832.166 2071.335 839.822 2080.093 846.185 2089.74 851.1 2100.036 854.445 2110.729 856.139 2121.555 856.139 2132.248 854.445 2142.544 851.1 2152.19 846.185 2160.949 839.822 2168.604 832.166 2174.967 823.408 2179.882 813.762 2183.228 803.465 2184.921 792.773 2184.921 781.947 M 1941.544 702.995 1939.784 691.885 1936.308 681.186 1931.201 671.163 1924.589 662.063 1916.635 654.109 1907.535 647.497 1897.512 642.39 1886.814 638.914 1875.703 637.154 1864.454 637.154 1853.344 638.914 1842.646 642.39 1832.623 647.497 1823.522 654.109 1815.568 662.063 1808.956 671.163 1803.849 681.186 1800.373 691.885 1798.613 702.995 1798.613 714.244 1800.373 725.354 1803.849 736.053 1808.956 746.075 1815.568 755.176 1823.522 763.13 1832.623 769.742 1842.646 774.849 1853.344 778.325 1864.454 780.085 1875.703 780.085 1886.814 778.325 1897.512 774.849 1907.535 769.742 1916.635 763.13 1924.589 755.176 1931.201 746.075 1936.308 736.053 1939.784 725.354 1941.544 714.244 1941.544 702.995 M 1941.544 1057.326 1939.784 1046.215 1936.308 1035.517 1931.201 1025.494 1924.589 1016.394 1916.635 1008.439 1907.535 1001.827 1897.512 996.721 1886.814 993.244 1875.703 991.485 1864.454 991.485 1853.344 993.244 1842.646 996.721 1832.623 1001.827 1823.522 1008.439 1815.568 1016.394 1808.956 1025.494 1803.849 1035.517 1800.373 1046.215 1798.613 1057.326 1798.613 1068.575 1800.373 1079.685 1803.849 1090.383 1808.956 1100.406 1815.568 1109.507 1823.522 1117.461 1832.623 1124.073 1842.646 1129.18 1853.344 1132.656 1864.454 1134.415 1875.703 1134.415 1886.814 1132.656 1897.512 1129.18 1907.535 1124.073 1916.635 1117.461 1924.589 1109.507 1931.201 1100.406 1936.308 1090.383 1939.784 1079.685 1941.544 1068.575 1941.544 1057.326" fill="none" stroke-width="25"/><use xlink:href="#UvkWrTDsMS6MmkTCiVC0_pad-35" x="3592.52" y="787.36"/><use xlink:href="#UvkWrTDsMS6MmkTCiVC0_pad-35" x="3592.52" y="984.21"/><use xlink:href="#UvkWrTDsMS6MmkTCiVC0_pad-35" x="4084.646" y="984.21"/><use xlink:href="#UvkWrTDsMS6MmkTCiVC0_pad-35" x="4084.646" y="787.36"/><use xlink:href="#UvkWrTDsMS6MmkTCiVC0_pad-35" x="2608.268" y="787.36"/><use xlink:href="#UvkWrTDsMS6MmkTCiVC0_pad-35" x="2608.268" y="984.21"/><use xlink:href="#UvkWrTDsMS6MmkTCiVC0_pad-35" x="3100.394" y="984.21"/><use xlink:href="#UvkWrTDsMS6MmkTCiVC0_pad-35" x="3100.394" y="787.36"/><use xlink:href="#UvkWrTDsMS6MmkTCiVC0_pad-35" x="1624.016" y="787.36"/><use xlink:href="#UvkWrTDsMS6MmkTCiVC0_pad-35" x="1624.016" y="984.21"/><use xlink:href="#UvkWrTDsMS6MmkTCiVC0_pad-35" x="2116.142" y="984.21"/><use xlink:href="#UvkWrTDsMS6MmkTCiVC0_pad-35" x="2116.142" y="787.36"/><use xlink:href="#UvkWrTDsMS6MmkTCiVC0_pad-35" x="639.764" y="787.36"/><use xlink:href="#UvkWrTDsMS6MmkTCiVC0_pad-35" x="639.764" y="984.21"/><use xlink:href="#UvkWrTDsMS6MmkTCiVC0_pad-35" x="1131.89" y="984.21"/><use xlink:href="#UvkWrTDsMS6MmkTCiVC0_pad-35" x="1131.89" y="787.36"/></g></svg>