<svg version="1.1" xmlns="http://www.w3.org/2000/svg" xmlns:xlink="http://www.w3.org/1999/xlink" stroke-linecap="round" stroke-linejoin="round" stroke-width="0" fill-rule="evenodd" width="3.4586959999999998in" height="0.244077in" viewBox="632.8565 763.746 3458.696 244.077" id="ZFqFaweSWX2dcaNyJUks"><g transform="translate(0,1771.569) scale(1,-1)" fill="currentColor" stroke="currentColor"><path d="M 4086.631 850.352 4086.631 925.186 M 3590.534 850.352 3590.534 921.218" fill="none" stroke-width="9.843"/><path d="M 3724.427 885.785 3724.71 894.024 3725.557 902.223 3726.965 910.341 3728.926 918.34 3731.432 926.181 3734.469 933.825 3738.022 941.234 3742.076 948.374 3746.609 955.208 3751.6 961.705 3757.025 967.831 3762.857 973.558 3769.067 978.857 3775.625 983.703 3782.5 988.071 3789.658 991.942 3797.064 995.295 3804.682 998.114 3812.475 1000.387 3820.405 1002.101 3828.433 1003.248 3836.52 1003.823 3844.627 1003.823 3852.714 1003.248 3860.742 1002.101 3868.672 1000.387 3876.465 998.114 3884.083 995.295 3891.489 991.942 3898.647 988.071 3905.522 983.703 3912.081 978.857 3918.291 973.558 3924.123 967.831 3929.547 961.705 3934.538 955.208 3939.072 948.374 3943.125 941.234 3946.679 933.825 3949.716 926.181 3952.221 918.34 3954.182 910.341 3955.59 902.223 3956.437 894.024 3956.72 885.785 3956.437 877.546 3955.59 869.347 3954.182 861.228 3952.221 853.229 3949.716 845.389 3946.679 837.745 3943.125 830.335 3939.072 823.196 3934.538 816.361 3929.547 809.865 3924.123 803.739 3918.291 798.012 3912.081 792.713 3905.522 787.867 3898.647 783.498 3891.489 779.628 3884.083 776.275 3876.465 773.455 3868.672 771.183 3860.742 769.469 3852.714 768.322 3844.627 767.746 3836.52 767.746 3828.433 768.322 3820.405 769.469 3812.475 771.183 3804.682 773.455 3797.064 776.275 3789.658 779.628 3782.5 783.498 3775.625 787.867 3769.067 792.713 3762.857 798.012 3757.025 803.739 3751.6 809.865 3746.609 816.361 3742.076 823.196 3738.022 830.335 3734.469 837.745 3731.432 845.389 3728.926 853.229 3726.965 861.228 3725.557 869.347 3724.71 877.546 3724.427 885.785" fill="none" stroke-width="8"/><path d="M 3102.379 850.352 3102.379 925.186 M 2606.282 850.352 2606.282 921.218" fill="none" stroke-width="9.843"/><path d="M 2740.175 885.785 2740.458 894.024 2741.306 902.223 2742.713 910.341 2744.675 918.34 2747.18 926.181 2750.217 933.825 2753.77 941.234 2757.824 948.374 2762.357 955.208 2767.348 961.705 2772.773 967.831 2778.605 973.558 2784.815 978.857 2791.373 983.703 2798.248 988.071 2805.406 991.942 2812.813 995.295 2820.431 998.114 2828.223 1000.387 2836.153 1002.101 2844.181 1003.248 2852.268 1003.823 2860.375 1003.823 2868.462 1003.248 2876.49 1002.101 2884.42 1000.387 2892.213 998.114 2899.831 995.295 2907.237 991.942 2914.395 988.071 2921.27 983.703 2927.829 978.857 2934.039 973.558 2939.871 967.831 2945.295 961.705 2950.286 955.208 2954.82 948.374 2958.873 941.234 2962.427 933.825 2965.464 926.181 2967.969 918.34 2969.93 910.341 2971.338 902.223 2972.185 894.024 2972.468 885.785 2972.185 877.546 2971.338 869.347 2969.93 861.228 2967.969 853.229 2965.464 845.389 2962.427 837.745 2958.873 830.335 2954.82 823.196 2950.286 816.361 2945.295 809.865 2939.871 803.739 2934.039 798.012 2927.829 792.713 2921.27 787.867 2914.395 783.498 2907.237 779.628 2899.831 776.275 2892.213 773.455 2884.42 771.183 2876.49 769.469 2868.462 768.322 2860.375 767.746 2852.268 767.746 2844.181 768.322 2836.153 769.469 2828.223 771.183 2820.431 773.455 2812.813 776.275 2805.406 779.628 2798.248 783.498 2791.373 787.867 2784.815 792.713 2778.605 798.012 2772.773 803.739 2767.348 809.865 2762.357 816.361 2757.824 823.196 2753.77 830.335 2750.217 837.745 2747.18 845.389 2744.675 853.229 2742.713 861.228 2741.306 869.347 2740.458 877.546 2740.175 885.785" fill="none" stroke-width="8"/><path d="M 2118.127 850.352 2118.127 925.186 M 1622.03 850.352 1622.03 921.218" fill="none" stroke-width="9.843"/><path d="M 1755.923 885.785 1756.206 894.024 1757.054 902.223 1758.461 910.341 1760.423 918.34 1762.928 926.181 1765.965 933.825 1769.518 941.234 1773.572 948.374 1778.105 955.208 1783.096 961.705 1788.521 967.831 1794.353 973.558 1800.563 978.857 1807.121 983.703 1813.997 988.071 1821.155 991.942 1828.561 995.295 1836.179 998.114 1843.971 1000.387 1851.901 1002.101 1859.929 1003.248 1868.016 1003.823 1876.123 1003.823 1884.21 1003.248 1892.238 1002.101 1900.168 1000.387 1907.961 998.114 1915.579 995.295 1922.985 991.942 1930.143 988.071 1937.018 983.703 1943.577 978.857 1949.787 973.558 1955.619 967.831 1961.043 961.705 1966.034 955.208 1970.568 948.374 1974.621 941.234 1978.175 933.825 1981.212 926.181 1983.717 918.34 1985.678 910.341 1987.086 902.223 1987.934 894.024 1988.216 885.785 1987.934 877.546 1987.086 869.347 1985.678 861.228 1983.717 853.229 1981.212 845.389 1978.175 837.745 1974.621 830.335 1970.568 823.196 1966.034 816.361 1961.043 809.865 1955.619 803.739 1949.787 798.012 1943.577 792.713 1937.018 787.867 1930.143 783.498 1922.985 779.628 1915.579 776.275 1907.961 773.455 1900.168 771.183 1892.238 769.469 1884.21 768.322 1876.123 767.746 1868.016 767.746 1859.929 768.322 1851.901 769.469 1843.971 771.183 1836.179 773.455 1828.561 776.275 1821.155 779.628 1813.997 783.498 1807.121 787.867 1800.563 792.713 1794.353 798.012 1788.521 803.739 1783.096 809.865 1778.105 816.361 1773.572 823.196 1769.518 830.335 1765.965 837.745 1762.928 845.389 1760.423 853.229 1758.461 861.228 1757.054 869.347 1756.206 877.546 1755.923 885.785" fill="none" stroke-width="8"/><path d="M 1133.876 850.352 1133.876 925.186 M 637.778 850.352 637.778 921.218" fill="none" stroke-width="9.843"/><path d="M 771.671 885.785 771.954 894.024 772.802 902.223 774.209 910.341 776.171 918.34 778.676 926.181 781.713 933.825 785.266 941.234 789.32 948.374 793.853 955.208 798.844 961.705 804.269 967.831 810.101 973.558 816.311 978.857 822.869 983.703 829.745 988.071 836.903 991.942 844.309 995.295 851.927 998.114 859.719 1000.387 867.649 1002.101 875.677 1003.248 883.764 1003.823 891.871 1003.823 899.958 1003.248 907.987 1002.101 915.916 1000.387 923.709 998.114 931.327 995.295 938.733 991.942 945.891 988.071 952.766 983.703 959.325 978.857 965.535 973.558 971.367 967.831 976.791 961.705 981.782 955.208 986.316 948.374 990.369 941.234 993.923 933.825 996.96 926.181 999.465 918.34 1001.426 910.341 1002.834 902.223 1003.682 894.024 1003.964 885.785 1003.682 877.546 1002.834 869.347 1001.426 861.228 999.465 853.229 996.96 845.389 993.923 837.745 990.369 830.335 986.316 823.196 981.782 816.361 976.791 809.865 971.367 803.739 965.535 798.012 959.325 792.713 952.766 787.867 945.891 783.498 938.733 779.628 931.327 776.275 923.709 773.455 915.916 771.183 907.987 769.469 899.958 768.322 891.871 767.746 883.764 767.746 875.677 768.322 867.649 769.469 859.719 771.183 851.927 773.455 844.309 776.275 836.903 779.628 829.745 783.498 822.869 787.867 816.311 792.713 810.101 798.012 804.269 803.739 798.844 809.865 793.853 816.361 789.32 823.196 785.266 830.335 781.713 837.745 778.676 845.389 776.171 853.229 774.209 861.228 772.802 869.347 771.954 877.546 771.671 885.785" fill="none" stroke-width="8"/></g></svg>