<svg version="1.1" xmlns="http://www.w3.org/2000/svg" xmlns:xlink="http://www.w3.org/1999/xlink" stroke-linecap="round" stroke-linejoin="round" stroke-width="0" fill-rule="evenodd" width="3.8188969999999998in" height="0.8661420000000001in" viewBox="452.756 452.756 3818.897 866.142" id="O9rDbkTpOHBqn4d53Hio"><defs><circle cx="0" cy="0" r="59.055" id="O9rDbkTpOHBqn4d53Hio_pad-38"/><circle cx="0" cy="0" r="46.437" id="O9rDbkTpOHBqn4d53Hio_pad-44"/><circle cx="0" cy="0" r="35.433" id="O9rDbkTpOHBqn4d53Hio_pad-39"/></defs><g transform="translate(0,1771.654) scale(1,-1)" fill="currentColor" stroke="currentColor"><use xlink:href="#O9rDbkTpOHBqn4d53Hio_pad-38" x="511.811" y="511.811"/><use xlink:href="#O9rDbkTpOHBqn4d53Hio_pad-38" x="511.811" y="1259.843"/><use xlink:href="#O9rDbkTpOHBqn4d53Hio_pad-38" x="4212.598" y="1259.843"/><use xlink:href="#O9rDbkTpOHBqn4d53Hio_pad-38" x="4212.598" y="511.811"/><use xlink:href="#O9rDbkTpOHBqn4d53Hio_pad-44" x="3592.52" y="787.36"/><use xlink:href="#O9rDbkTpOHBqn4d53Hio_pad-44" x="3592.52" y="984.21"/><use xlink:href="#O9rDbkTpOHBqn4d53Hio_pad-44" x="4084.646" y="984.21"/><use xlink:href="#O9rDbkTpOHBqn4d53Hio_pad-44" x="4084.646" y="787.36"/><use xlink:href="#O9rDbkTpOHBqn4d53Hio_pad-39" x="3838.583" y="708.619"/><use xlink:href="#O9rDbkTpOHBqn4d53Hio_pad-39" x="3838.583" y="1062.95"/><use xlink:href="#O9rDbkTpOHBqn4d53Hio_pad-44" x="2608.268" y="787.36"/><use xlink:href="#O9rDbkTpOHBqn4d53Hio_pad-44" x="2608.268" y="984.21"/><use xlink:href="#O9rDbkTpOHBqn4d53Hio_pad-44" x="3100.394" y="984.21"/><use xlink:href="#O9rDbkTpOHBqn4d53Hio_pad-44" x="3100.394" y="787.36"/><use xlink:href="#O9rDbkTpOHBqn4d53Hio_pad-39" x="2854.331" y="708.619"/><use xlink:href="#O9rDbkTpOHBqn4d53Hio_pad-39" x="2854.331" y="1062.95"/><use xlink:href="#O9rDbkTpOHBqn4d53Hio_pad-44" x="1624.016" y="787.36"/><use xlink:href="#O9rDbkTpOHBqn4d53Hio_pad-44" x="1624.016" y="984.21"/><use xlink:href="#O9rDbkTpOHBqn4d53Hio_pad-44" x="2116.142" y="984.21"/><use xlink:href="#O9rDbkTpOHBqn4d53Hio_pad-44" x="2116.142" y="787.36"/><use xlink:href="#O9rDbkTpOHBqn4d53Hio_pad-39" x="1870.079" y="708.619"/><use xlink:href="#O9rDbkTpOHBqn4d53Hio_pad-39" x="1870.079" y="1062.95"/><use xlink:href="#O9rDbkTpOHBqn4d53Hio_pad-44" x="639.764" y="787.36"/><use xlink:href="#O9rDbkTpOHBqn4d53Hio_pad-44" x="639.764" y="984.21"/><use xlink:href="#O9rDbkTpOHBqn4d53Hio_pad-44" x="1131.89" y="984.21"/><use xlink:href="#O9rDbkTpOHBqn4d53Hio_pad-44" x="1131.89" y="787.36"/><use xlink:href="#O9rDbkTpOHBqn4d53Hio_pad-39" x="885.827" y="708.619"/><use xlink:href="#O9rDbkTpOHBqn4d53Hio_pad-39" x="885.827" y="1062.95"/></g></svg>