<svg version="1.1" xmlns="http://www.w3.org/2000/svg" xmlns:xlink="http://www.w3.org/1999/xlink" stroke-linecap="round" stroke-linejoin="round" stroke-width="0" fill-rule="evenodd" width="3.8189in" height="0.8661in" viewBox="452.75 452.75 3818.9 866.1" id="oW3_Uyx9awPHIyI93l-C"><defs><circle cx="0" cy="0" r="9.55" id="oW3_Uyx9awPHIyI93l-C_pad-1"/><circle cx="0" cy="0" r="23.6" id="oW3_Uyx9awPHIyI93l-C_pad-2"/><circle cx="0" cy="0" r="35.45" id="oW3_Uyx9awPHIyI93l-C_pad-3"/><circle cx="0" cy="0" r="59.05" id="oW3_Uyx9awPHIyI93l-C_pad-4"/></defs><g transform="translate(0,1771.6) scale(1,-1)" fill="currentColor" stroke="currentColor"><use xlink:href="#oW3_Uyx9awPHIyI93l-C_pad-1" x="3737.5" y="787.4"/><use xlink:href="#oW3_Uyx9awPHIyI93l-C_pad-1" x="1006.2" y="787.4"/><use xlink:href="#oW3_Uyx9awPHIyI93l-C_pad-2" x="3592.5" y="787.4"/><use xlink:href="#oW3_Uyx9awPHIyI93l-C_pad-2" x="3592.5" y="984.2"/><use xlink:href="#oW3_Uyx9awPHIyI93l-C_pad-2" x="4084.6" y="984.2"/><use xlink:href="#oW3_Uyx9awPHIyI93l-C_pad-2" x="4084.6" y="787.4"/><use xlink:href="#oW3_Uyx9awPHIyI93l-C_pad-2" x="3100.4" y="787.4"/><use xlink:href="#oW3_Uyx9awPHIyI93l-C_pad-2" x="3100.4" y="984.2"/><use xlink:href="#oW3_Uyx9awPHIyI93l-C_pad-2" x="2608.3" y="984.2"/><use xlink:href="#oW3_Uyx9awPHIyI93l-C_pad-2" x="2608.3" y="787.4"/><use xlink:href="#oW3_Uyx9awPHIyI93l-C_pad-2" x="2116.1" y="787.4"/><use xlink:href="#oW3_Uyx9awPHIyI93l-C_pad-2" x="2116.1" y="984.2"/><use xlink:href="#oW3_Uyx9awPHIyI93l-C_pad-2" x="1624" y="984.2"/><use xlink:href="#oW3_Uyx9awPHIyI93l-C_pad-2" x="1624" y="787.4"/><use xlink:href="#oW3_Uyx9awPHIyI93l-C_pad-2" x="1131.9" y="787.4"/><use xlink:href="#oW3_Uyx9awPHIyI93l-C_pad-2" x="1131.9" y="984.2"/><use xlink:href="#oW3_Uyx9awPHIyI93l-C_pad-2" x="639.8" y="984.2"/><use xlink:href="#oW3_Uyx9awPHIyI93l-C_pad-2" x="639.8" y="787.4"/><use xlink:href="#oW3_Uyx9awPHIyI93l-C_pad-3" x="3838.6" y="708.6"/><use xlink:href="#oW3_Uyx9awPHIyI93l-C_pad-3" x="3838.6" y="1063"/><use xlink:href="#oW3_Uyx9awPHIyI93l-C_pad-3" x="2854.3" y="1063"/><use xlink:href="#oW3_Uyx9awPHIyI93l-C_pad-3" x="2854.3" y="708.6"/><use xlink:href="#oW3_Uyx9awPHIyI93l-C_pad-3" x="1870.1" y="708.6"/><use xlink:href="#oW3_Uyx9awPHIyI93l-C_pad-3" x="1870.1" y="1063"/><use xlink:href="#oW3_Uyx9awPHIyI93l-C_pad-3" x="885.8" y="1063"/><use xlink:href="#oW3_Uyx9awPHIyI93l-C_pad-3" x="885.8" y="708.6"/><use xlink:href="#oW3_Uyx9awPHIyI93l-C_pad-4" x="511.8" y="511.8"/><use xlink:href="#oW3_Uyx9awPHIyI93l-C_pad-4" x="511.8" y="1259.8"/><use xlink:href="#oW3_Uyx9awPHIyI93l-C_pad-4" x="4212.6" y="1259.8"/><use xlink:href="#oW3_Uyx9awPHIyI93l-C_pad-4" x="4212.6" y="511.8"/></g></svg>