<svg version="1.1" xmlns="http://www.w3.org/2000/svg" xmlns:xlink="http://www.w3.org/1999/xlink" stroke-linecap="round" stroke-linejoin="round" stroke-width="0" fill-rule="evenodd" width="3.529882in" height="0.9291889999999999in" viewBox="597.264 421.232 3529.882 929.189" id="FsVo1-T5t2MzfODPxAxq"><defs><circle cx="0" cy="0" r="20" id="FsVo1-T5t2MzfODPxAxq_pad-36"/><rect x="-35.433" y="-31.496" width="70.866" height="62.992" id="FsVo1-T5t2MzfODPxAxq_pad-17"/><rect x="-62.5985" y="-25" width="125.197" height="50" id="FsVo1-T5t2MzfODPxAxq_pad-33"/><circle cx="0" cy="0" r="42.5" id="FsVo1-T5t2MzfODPxAxq_pad-35"/></defs><g transform="translate(0,1771.653) scale(1,-1)" fill="currentColor" stroke="currentColor"><path d="M 3624.951 668.627 3737.45 668.627 3737.45 787.36 M 3624.951 668.627 3568.774 668.627 3331.201 906.201 1524.95 906.201 1495.324 935.827 1401.181 935.827 M 2608.268 787.36 2756.201 787.36 3100.394 787.36 M 2643.701 668.627 2756.201 668.627 2756.201 787.36 M 2643.701 668.627 2356.276 668.627 2162.451 862.451 1531.202 862.451 1504.577 835.827 1275.984 835.827 M 1624.016 787.36 1762.451 787.36 2116.142 787.36 M 1401.181 735.827 1464.075 735.827 1531.274 668.627 1651.329 668.627 1762.451 668.627 1762.451 787.36 M 1275.984 635.827 1201.575 635.827 1170.965 666.437 1112.451 666.437 1008.465 666.437 1006.201 668.701 1006.201 787.36" fill="none" stroke-width="12"/><path d="M 1624.016 984.21 2116.142 984.21 2608.268 984.21 3100.394 984.21 3592.52 984.21 M 1624.016 984.21 1540.692 984.21 1489.075 1035.827 1275.984 1035.827 1183.507 1035.827 1131.89 984.21" fill="none" stroke-width="22"/><use xlink:href="#FsVo1-T5t2MzfODPxAxq_pad-36" x="3737.45" y="787.36"/><use xlink:href="#FsVo1-T5t2MzfODPxAxq_pad-36" x="1006.201" y="787.36"/><path d="M 644.939 1313.025 4079.474 1313.025 M 644.939 1288.156 4079.474 1288.156 M 644.939 1263.287 4079.474 1263.287 M 644.939 1238.419 4079.474 1238.419 M 644.939 1213.55 4079.474 1213.55 M 644.939 1188.681 4079.474 1188.681 M 644.939 1163.812 1309.574 1163.812 M 1492.775 1163.812 4079.474 1163.812 M 644.939 1138.944 1309.574 1138.944 M 1492.775 1138.944 4079.474 1138.944 M 644.939 1114.075 833.068 1114.075 M 938.579 1114.075 1309.574 1114.075 M 1492.775 1114.075 1817.335 1114.075 M 1922.847 1114.075 2801.567 1114.075 M 2907.078 1114.075 3785.834 1114.075 M 3891.346 1114.075 4079.474 1114.075 M 644.939 1089.206 816.633 1089.206 M 955.014 1089.206 1309.574 1089.206 M 1492.775 1089.206 1800.864 1089.206 M 1939.282 1089.206 2785.132 1089.206 M 2923.549 1089.206 3769.363 1089.206 M 3907.781 1089.206 4079.474 1089.206 M 644.939 1064.337 811.645 1064.337 M 960.002 1064.337 1156.671 1064.337 M 1515.92 1064.337 1795.912 1064.337 M 1944.234 1064.337 2780.144 1064.337 M 2928.501 1064.337 3764.411 1064.337 M 3912.769 1064.337 4079.474 1064.337 M 683.586 1039.469 815.592 1039.469 M 956.055 1039.469 1088.097 1039.469 M 1540.967 1039.469 1580.213 1039.469 M 1667.818 1039.469 1799.86 1039.469 M 1940.322 1039.469 2072.328 1039.469 M 2159.934 1039.469 2564.444 1039.469 M 2652.085 1039.469 2784.091 1039.469 M 2924.554 1039.469 3056.596 1039.469 M 3144.201 1039.469 3548.711 1039.469 M 3636.317 1039.469 3768.358 1039.469 M 3908.821 1039.469 4040.827 1039.469 M 704.22 1014.6 830.412 1014.6 M 941.271 1014.6 1067.463 1014.6 M 3656.95 1014.6 3783.143 1014.6 M 3894.001 1014.6 4020.194 1014.6 M 711.038 989.731 1060.61 989.731 M 3663.804 989.731 4013.376 989.731 M 708.49 964.862 1063.157 964.862 M 1200.606 964.862 1309.574 964.862 M 3661.256 964.862 4015.923 964.862 M 695.213 939.993 1076.434 939.993 M 1187.365 939.993 1309.574 939.993 M 3155.863 939.993 3537.049 939.993 M 3647.979 939.993 4029.201 939.993 M 644.939 915.125 1309.574 915.125 M 3370.738 915.125 4079.474 915.125 M 644.939 890.256 1309.574 890.256 M 3395.606 890.256 4079.474 890.256 M 644.939 865.387 1184.41 865.387 M 2207.983 865.387 3323.574 865.387 M 3420.473 865.387 4079.474 865.387 M 686.242 840.518 1085.405 840.518 M 2232.85 840.518 2561.789 840.518 M 2654.741 840.518 3053.904 840.518 M 3146.856 840.518 3348.442 840.518 M 3445.341 840.518 3546.056 840.518 M 3639.008 840.518 4038.172 840.518 M 705.189 815.65 966.808 815.65 M 1045.586 815.65 1066.459 815.65 M 2257.718 815.65 2542.842 815.65 M 3165.803 815.65 3373.309 815.65 M 3470.209 815.65 3527.109 815.65 M 3657.955 815.65 3698.061 815.65 M 3776.839 815.65 4019.225 815.65 M 711.181 790.781 957.335 790.781 M 2282.586 790.781 2536.849 790.781 M 3171.796 790.781 3398.177 790.781 M 3495.077 790.781 3521.116 790.781 M 3663.912 790.781 3688.588 790.781 M 3786.313 790.781 4013.232 790.781 M 707.844 765.912 840.245 765.912 M 931.403 765.912 962.466 765.912 M 1049.964 765.912 1063.803 765.912 M 2184.227 765.912 2210.554 765.912 M 2307.454 765.912 2540.186 765.912 M 3168.459 765.912 3423.045 765.912 M 3660.61 765.912 3693.683 765.912 M 3884.169 765.912 4016.569 765.912 M 693.383 741.043 819.396 741.043 M 952.251 741.043 971.222 741.043 M 1041.208 741.043 1078.265 741.043 M 1936.519 741.043 2062.496 741.043 M 2169.766 741.043 2235.422 741.043 M 2332.321 741.043 2554.648 741.043 M 2920.75 741.043 3046.763 741.043 M 3154.033 741.043 3447.913 741.043 M 3646.149 741.043 3702.475 741.043 M 3905.018 741.043 4030.995 741.043 M 644.939 716.175 812.04 716.175 M 1943.875 716.175 2260.29 716.175 M 2357.189 716.175 2579.264 716.175 M 2928.106 716.175 3472.78 716.175 M 3912.374 716.175 4079.474 716.175 M 644.939 691.306 813.762 691.306 M 1942.153 691.306 2285.157 691.306 M 2926.384 691.306 3497.648 691.306 M 3910.651 691.306 4079.474 691.306 M 644.939 666.437 825.353 666.437 M 1367.575 666.437 1485.012 666.437 M 1930.526 666.437 2310.025 666.437 M 2914.793 666.437 3522.516 666.437 M 3899.061 666.437 4079.474 666.437 M 644.939 641.568 857.972 641.568 M 913.676 641.568 941.761 641.568 M 1367.575 641.568 1510.777 641.568 M 1826.893 641.568 1842.203 641.568 M 1897.943 641.568 2335.79 641.568 M 2882.175 641.568 3548.281 641.568 M 3866.442 641.568 4079.474 641.568 M 644.939 616.699 941.761 616.699 M 1367.575 616.699 1586.887 616.699 M 1826.893 616.699 2579.264 616.699 M 2820.633 616.699 3560.517 616.699 M 3801.886 616.699 4079.474 616.699 M 644.939 591.831 941.761 591.831 M 1367.575 591.831 1586.887 591.831 M 1826.893 591.831 2579.264 591.831 M 2820.633 591.831 3560.517 591.831 M 3801.886 591.831 4079.474 591.831 M 644.939 566.962 941.761 566.962 M 1176.886 566.962 1586.887 566.962 M 1826.893 566.962 2579.264 566.962 M 2820.633 566.962 3560.517 566.962 M 3801.886 566.962 4079.474 566.962 M 644.939 542.093 941.761 542.093 M 1176.886 542.093 1586.887 542.093 M 1826.893 542.093 2579.264 542.093 M 2820.633 542.093 3560.517 542.093 M 3801.886 542.093 4079.474 542.093 M 644.939 517.224 941.761 517.224 M 1176.886 517.224 1586.887 517.224 M 1826.893 517.224 2579.264 517.224 M 2820.633 517.224 3560.517 517.224 M 3801.886 517.224 4079.474 517.224 M 644.939 492.356 4079.474 492.356 M 644.939 467.487 4079.474 467.487 M 644.939 442.618 4079.474 442.618 M 1365.075 684.34 1365.075 584.335 1186.894 584.335 1186.824 606.876 1182.476 609.54 1178.599 612.851 1174.362 617.089 1174.377 498.212 1050.527 498.212 1050.527 500.473 944.276 500.476 944.276 667.087 940.338 662.063 932.383 654.109 923.283 647.497 913.26 642.39 902.562 638.914 891.451 637.154 880.202 637.154 869.092 638.914 858.394 642.39 848.371 647.497 839.27 654.109 831.316 662.063 824.704 671.163 819.597 681.186 816.121 691.885 814.361 702.995 814.361 714.244 816.121 725.354 819.597 736.053 824.704 746.075 831.316 755.176 839.27 763.13 848.371 769.742 858.394 774.849 869.092 778.325 880.202 780.085 891.451 780.085 902.562 778.325 913.26 774.849 923.283 769.742 932.383 763.13 940.338 755.176 946.949 746.075 952.056 736.053 955.156 726.687 973.737 726.689 973.709 754.141 968.588 760.032 964.776 766.253 961.984 772.993 960.281 780.087 959.709 787.36 960.281 794.633 961.984 801.726 964.776 808.467 968.588 814.687 973.326 820.234 978.873 824.973 985.094 828.784 991.834 831.576 998.928 833.279 1006.201 833.852 1013.474 833.279 1020.568 831.576 1027.308 828.784 1033.528 824.973 1039.076 820.234 1043.814 814.687 1047.626 808.467 1050.417 801.726 1052.121 794.633 1052.693 787.36 1052.121 780.087 1050.417 772.993 1047.626 766.253 1043.814 760.032 1038.688 754.127 1038.693 726.679 1068.126 726.689 1068.126 724.428 1103.599 724.425 1095.841 728.534 1087.083 734.898 1079.428 742.553 1073.064 751.311 1068.149 760.957 1064.804 771.254 1063.11 781.947 1063.11 792.773 1064.804 803.465 1068.149 813.762 1073.064 823.408 1079.428 832.166 1087.083 839.822 1095.841 846.185 1105.488 851.1 1115.784 854.445 1126.477 856.139 1137.303 856.139 1147.996 854.445 1158.292 851.1 1167.938 846.185 1176.697 839.822 1184.352 832.166 1186.906 828.926 1186.894 887.319 1312.094 887.319 1312.091 984.344 1200.882 984.21 1200.032 973.417 1197.505 962.89 1193.362 952.888 1187.706 943.657 1180.675 935.425 1172.442 928.394 1163.212 922.738 1153.21 918.595 1142.683 916.067 1131.89 915.218 1121.097 916.067 1110.57 918.595 1100.568 922.738 1091.337 928.394 1083.105 935.425 1076.074 943.657 1070.417 952.888 1066.274 962.89 1063.747 973.417 1062.898 984.21 1063.747 995.003 1066.274 1005.53 1070.417 1015.532 1076.074 1024.763 1083.105 1032.995 1091.337 1040.026 1100.568 1045.682 1110.57 1049.825 1121.097 1052.353 1131.89 1053.202 1142.683 1052.353 1146.273 1051.638 1159.157 1064.336 1163.917 1067.794 1169.159 1070.465 1174.754 1072.283 1180.565 1073.203 1183.518 1073.319 1186.894 1076.198 1186.894 1087.319 1312.094 1087.319 1312.091 1187.319 1490.272 1187.319 1490.272 1084.335 1365.072 1084.335 1365.075 1073.288 1492.016 1073.203 1497.827 1072.283 1503.422 1070.465 1508.664 1067.794 1513.424 1064.336 1548.064 1029.859 1556.21 1021.714 1566.133 1021.702 1571.554 1029.017 1579.209 1036.672 1587.967 1043.035 1597.614 1047.95 1607.91 1051.296 1618.603 1052.989 1629.429 1052.989 1640.122 1051.296 1650.418 1047.95 1660.064 1043.035 1668.823 1036.672 1676.478 1029.017 1681.865 1021.719 1811.439 1021.702 1806.206 1030.405 1801.901 1040.798 1799.275 1051.736 1798.392 1062.95 1799.275 1074.164 1801.901 1085.102 1806.206 1095.495 1812.083 1105.086 1819.389 1113.64 1827.943 1120.946 1837.534 1126.823 1847.926 1131.128 1858.865 1133.754 1870.079 1134.636 1881.293 1133.754 1892.231 1131.128 1902.624 1126.823 1912.215 1120.946 1920.769 1113.64 1928.074 1105.086 1933.952 1095.495 1938.257 1085.102 1940.883 1074.164 1941.765 1062.95 1940.883 1051.736 1938.257 1040.798 1933.952 1030.405 1928.673 1021.71 2058.25 1021.702 2063.68 1029.017 2071.335 1036.672 2080.093 1043.035 2089.74 1047.95 2100.036 1051.296 2110.729 1052.989 2121.555 1052.989 2132.248 1051.296 2142.544 1047.95 2152.19 1043.035 2160.949 1036.672 2168.604 1029.017 2173.991 1021.719 2550.376 1021.702 2555.806 1029.017 2563.461 1036.672 2572.219 1043.035 2581.866 1047.95 2592.162 1051.296 2602.855 1052.989 2613.681 1052.989 2624.374 1051.296 2634.67 1047.95 2644.316 1043.035 2653.075 1036.672 2660.73 1029.017 2666.117 1021.719 2795.691 1021.702 2790.458 1030.405 2786.153 1040.798 2783.527 1051.736 2782.644 1062.95 2783.527 1074.164 2786.153 1085.102 2790.458 1095.495 2796.335 1105.086 2803.641 1113.64 2812.195 1120.946 2821.786 1126.823 2832.178 1131.128 2843.116 1133.754 2854.331 1134.636 2865.545 1133.754 2876.483 1131.128 2886.876 1126.823 2896.467 1120.946 2905.021 1113.64 2912.326 1105.086 2918.204 1095.495 2922.508 1085.102 2925.134 1074.164 2926.017 1062.95 2925.134 1051.736 2922.508 1040.798 2918.204 1030.405 2912.925 1021.71 3042.502 1021.702 3047.932 1029.017 3055.587 1036.672 3064.345 1043.035 3073.992 1047.95 3084.288 1051.296 3094.981 1052.989 3105.807 1052.989 3116.5 1051.296 3126.796 1047.95 3136.442 1043.035 3145.201 1036.672 3152.856 1029.017 3158.243 1021.719 3534.628 1021.702 3540.058 1029.017 3547.713 1036.672 3556.471 1043.035 3566.118 1047.95 3576.414 1051.296 3587.107 1052.989 3597.933 1052.989 3608.626 1051.296 3618.922 1047.95 3628.568 1043.035 3637.326 1036.672 3644.982 1029.017 3651.345 1020.258 3656.26 1010.612 3659.606 1000.316 3661.299 989.623 3661.299 978.797 3659.606 968.104 3656.26 957.808 3651.345 948.162 3644.982 939.403 3637.326 931.748 3628.568 925.385 3618.922 920.47 3608.626 917.124 3597.933 915.431 3587.107 915.431 3576.414 917.124 3566.118 920.47 3556.471 925.385 3547.713 931.748 3540.058 939.403 3534.67 946.701 3158.285 946.718 3152.856 939.403 3152.209 938.704 3333.75 938.593 3338.786 937.795 3343.635 936.22 3348.178 933.905 3352.303 930.908 3399.646 883.706 3536.704 746.807 3531.047 756.038 3526.904 766.04 3524.377 776.567 3523.528 787.36 3524.377 798.152 3526.904 808.679 3531.047 818.681 3536.704 827.912 3543.735 836.144 3551.967 843.175 3561.198 848.832 3571.2 852.975 3581.727 855.502 3592.52 856.352 3603.312 855.502 3613.839 852.975 3623.841 848.832 3633.072 843.175 3641.304 836.144 3648.335 827.912 3653.992 818.681 3658.135 808.679 3660.662 798.152 3661.512 787.36 3660.662 776.567 3658.135 766.04 3653.992 756.038 3648.335 746.807 3641.304 738.575 3633.072 731.544 3625.152 726.621 3704.986 726.615 3704.958 754.139 3699.837 760.032 3696.025 766.253 3693.233 772.993 3691.53 780.087 3690.958 787.36 3691.53 794.633 3693.233 801.726 3696.025 808.467 3699.837 814.687 3704.575 820.234 3710.123 824.973 3716.343 828.784 3723.083 831.576 3730.177 833.279 3737.45 833.852 3744.723 833.279 3751.817 831.576 3758.557 828.784 3764.778 824.973 3770.325 820.234 3775.063 814.687 3778.875 808.467 3781.667 801.726 3783.37 794.633 3783.942 787.36 3783.37 780.087 3781.667 772.993 3778.875 766.253 3775.063 760.032 3769.938 754.127 3769.942 729.263 3772.353 736.053 3777.46 746.075 3784.072 755.176 3792.026 763.13 3801.127 769.742 3811.149 774.849 3821.848 778.325 3832.958 780.085 3844.207 780.085 3855.318 778.325 3866.016 774.849 3876.039 769.742 3885.139 763.13 3893.093 755.176 3899.705 746.075 3904.812 736.053 3908.288 725.354 3910.048 714.244 3910.048 702.995 3908.288 691.885 3904.812 681.186 3899.705 671.163 3893.093 662.063 3885.139 654.109 3876.039 647.497 3866.016 642.39 3855.318 638.914 3844.207 637.154 3832.958 637.154 3821.848 638.914 3811.149 642.39 3801.127 647.497 3799.39 648.657 3799.375 500.403 3563.026 500.403 3563.026 636.655 3558.734 637.725 3554.023 639.677 3549.676 642.341 3545.799 645.652 3317.763 873.688 2197.153 873.709 2369.718 701.136 2581.808 701.12 2581.776 723.678 2572.219 728.534 2563.461 734.898 2555.806 742.553 2549.442 751.311 2544.527 760.957 2541.182 771.254 2539.488 781.947 2539.488 792.773 2541.182 803.465 2544.527 813.762 2549.442 823.408 2555.806 832.166 2563.461 839.822 2572.219 846.185 2581.866 851.1 2592.162 854.445 2602.855 856.139 2613.681 856.139 2624.374 854.445 2634.67 851.1 2644.316 846.185 2653.075 839.822 2660.73 832.166 2667.093 823.408 2669.089 819.845 3039.506 819.852 3044.578 827.912 3051.609 836.144 3059.841 843.175 3069.072 848.832 3079.074 852.975 3089.601 855.502 3100.394 856.352 3111.186 855.502 3121.713 852.975 3131.715 848.832 3140.946 843.175 3149.179 836.144 3156.21 827.912 3161.866 818.681 3166.009 808.679 3168.536 798.152 3169.386 787.36 3168.536 776.567 3166.009 766.04 3161.866 756.038 3156.21 746.807 3149.179 738.575 3140.946 731.544 3131.715 725.887 3121.713 721.744 3111.186 719.217 3100.394 718.367 3089.601 719.217 3079.074 721.744 3069.072 725.887 3059.841 731.544 3051.609 738.575 3044.578 746.807 3039.573 754.875 2909.095 754.867 2915.453 746.075 2920.56 736.053 2924.036 725.354 2925.796 714.244 2925.796 702.995 2924.036 691.885 2920.56 681.186 2915.453 671.163 2908.841 662.063 2900.887 654.109 2891.787 647.497 2881.764 642.39 2871.066 638.914 2859.955 637.154 2848.706 637.154 2837.596 638.914 2826.898 642.39 2818.122 646.798 2818.126 500.403 2581.776 500.403 2581.776 636.153 2353.726 636.235 2348.69 637.033 2343.841 638.608 2339.298 640.923 2335.174 643.92 2287.83 691.122 2184.786 794.166 2185.134 787.36 2184.284 776.567 2181.757 766.04 2177.614 756.038 2171.958 746.807 2164.927 738.575 2156.694 731.544 2147.464 725.887 2137.461 721.744 2126.934 719.217 2116.142 718.367 2105.349 719.217 2094.822 721.744 2084.82 725.887 2075.589 731.544 2067.357 738.575 2060.326 746.807 2055.321 754.875 1924.843 754.867 1931.201 746.075 1936.308 736.053 1939.784 725.354 1941.544 714.244 1941.544 702.995 1939.784 691.885 1936.308 681.186 1931.201 671.163 1924.589 662.063 1916.635 654.109 1907.535 647.497 1897.512 642.39 1886.814 638.914 1875.703 637.154 1864.454 637.154 1853.344 638.914 1842.646 642.39 1832.623 647.497 1824.368 653.442 1824.377 500.403 1589.404 500.403 1589.404 636.153 1528.725 636.235 1523.689 637.033 1518.84 638.608 1514.297 640.923 1510.172 643.92 1469.604 684.347 1365.072 684.335 M 3563.024 725.046 3556.471 728.534 3551.219 732.133 3563.029 720.323 3563.026 724.979 M 4082.003 915.322 4073.853 916.067 4063.326 918.595 4053.324 922.738 4044.093 928.394 4035.861 935.425 4028.83 943.657 4023.173 952.888 4019.03 962.89 4016.503 973.417 4015.654 984.21 4016.503 995.003 4019.03 1005.53 4023.173 1015.532 4028.83 1024.763 4035.861 1032.995 4044.093 1040.026 4053.324 1045.682 4063.326 1049.825 4073.853 1052.353 4082.003 1053.098 4081.988 1337.921 642.394 1337.894 642.421 1053.165 650.557 1052.353 661.084 1049.825 671.086 1045.682 680.316 1040.026 688.549 1032.995 695.58 1024.763 701.236 1015.532 705.379 1005.53 707.906 995.003 708.756 984.21 707.906 973.417 705.379 962.89 701.236 952.888 695.58 943.657 688.549 935.425 680.316 928.394 671.086 922.738 661.084 918.595 650.557 916.067 642.407 915.322 642.421 856.304 650.557 855.502 661.084 852.975 671.086 848.832 680.316 843.175 688.549 836.144 695.58 827.912 701.236 818.681 705.379 808.679 707.906 798.152 708.756 787.36 707.906 776.567 705.379 766.04 701.236 756.038 695.58 746.807 688.549 738.575 680.316 731.544 671.086 725.887 661.084 721.744 650.557 719.217 642.407 718.471 642.421 433.732 4082.016 433.76 4081.988 718.417 4073.853 719.217 4063.326 721.744 4053.324 725.887 4044.093 731.544 4035.861 738.575 4028.83 746.807 4023.173 756.038 4019.03 766.04 4016.503 776.567 4015.654 787.36 4016.503 798.152 4019.03 808.679 4023.173 818.681 4028.83 827.912 4035.861 836.144 4044.093 843.175 4053.324 848.832 4063.326 852.975 4073.853 855.502 4082.003 856.248 4081.988 915.277 M 3910.048 1057.326 3908.288 1046.215 3904.812 1035.517 3899.705 1025.494 3893.093 1016.394 3885.139 1008.439 3876.039 1001.827 3866.016 996.721 3855.318 993.244 3844.207 991.485 3832.958 991.485 3821.848 993.244 3811.149 996.721 3801.127 1001.827 3792.026 1008.439 3784.072 1016.394 3777.46 1025.494 3772.353 1035.517 3768.877 1046.215 3767.117 1057.326 3767.117 1068.575 3768.877 1079.685 3772.353 1090.383 3777.46 1100.406 3784.072 1109.507 3792.026 1117.461 3801.127 1124.073 3811.149 1129.18 3821.848 1132.656 3832.958 1134.415 3844.207 1134.415 3855.318 1132.656 3866.016 1129.18 3876.039 1124.073 3885.139 1117.461 3893.093 1109.507 3899.705 1100.406 3904.812 1090.383 3908.288 1079.685 3910.048 1068.575 3910.048 1057.326 M 957.292 1057.326 955.532 1046.215 952.056 1035.517 946.949 1025.494 940.338 1016.394 932.383 1008.439 923.283 1001.827 913.26 996.721 902.562 993.244 891.451 991.485 880.202 991.485 869.092 993.244 858.394 996.721 848.371 1001.827 839.27 1008.439 831.316 1016.394 824.704 1025.494 819.597 1035.517 816.121 1046.215 814.361 1057.326 814.361 1068.575 816.121 1079.685 819.597 1090.383 824.704 1100.406 831.316 1109.507 839.27 1117.461 848.371 1124.073 858.394 1129.18 869.092 1132.656 880.202 1134.415 891.451 1134.415 902.562 1132.656 913.26 1129.18 923.283 1124.073 932.383 1117.461 940.338 1109.507 946.949 1100.406 952.056 1090.383 955.532 1079.685 957.292 1068.575 957.292 1057.326" fill="none" stroke-width="25"/><path d="M 1401.181 1187.283 1401.181 1084.37 M 1312.127 1135.827 1490.236 1135.827 M 3624.951 558.391 3624.951 500.439 M 3563.062 558.391 3624.951 558.391 M 3737.45 558.391 3737.45 500.439 M 3737.45 558.391 3799.34 558.391 M 2643.701 558.391 2643.701 500.439 M 2581.812 558.391 2643.701 558.391 M 2756.201 558.391 2756.201 500.439 M 2756.201 558.391 2818.09 558.391 M 1651.329 558.391 1651.329 500.439 M 1589.44 558.391 1651.329 558.391 M 1762.451 558.391 1762.451 500.438 M 1762.451 558.391 1824.341 558.391 M 1112.451 556.201 1112.451 498.248 M 1112.451 556.201 1174.341 556.201 M 1006.201 558.465 1006.201 500.512 M 944.311 558.465 1006.201 558.465" fill="none" stroke-width="20"/><use xlink:href="#FsVo1-T5t2MzfODPxAxq_pad-17" x="3737.45" y="668.627"/><use xlink:href="#FsVo1-T5t2MzfODPxAxq_pad-17" x="3737.45" y="558.391"/><use xlink:href="#FsVo1-T5t2MzfODPxAxq_pad-17" x="2756.201" y="668.627"/><use xlink:href="#FsVo1-T5t2MzfODPxAxq_pad-17" x="2756.201" y="558.391"/><use xlink:href="#FsVo1-T5t2MzfODPxAxq_pad-17" x="1762.451" y="668.627"/><use xlink:href="#FsVo1-T5t2MzfODPxAxq_pad-17" x="1762.451" y="558.391"/><use xlink:href="#FsVo1-T5t2MzfODPxAxq_pad-17" x="1006.201" y="668.701"/><use xlink:href="#FsVo1-T5t2MzfODPxAxq_pad-17" x="1006.201" y="558.465"/><use xlink:href="#FsVo1-T5t2MzfODPxAxq_pad-17" x="3624.951" y="558.391"/><use xlink:href="#FsVo1-T5t2MzfODPxAxq_pad-17" x="3624.951" y="668.627"/><use xlink:href="#FsVo1-T5t2MzfODPxAxq_pad-17" x="2643.701" y="558.391"/><use xlink:href="#FsVo1-T5t2MzfODPxAxq_pad-17" x="2643.701" y="668.627"/><use xlink:href="#FsVo1-T5t2MzfODPxAxq_pad-17" x="1651.329" y="558.391"/><use xlink:href="#FsVo1-T5t2MzfODPxAxq_pad-17" x="1651.329" y="668.627"/><use xlink:href="#FsVo1-T5t2MzfODPxAxq_pad-17" x="1112.451" y="556.201"/><use xlink:href="#FsVo1-T5t2MzfODPxAxq_pad-17" x="1112.451" y="666.437"/><use xlink:href="#FsVo1-T5t2MzfODPxAxq_pad-33" x="1275.984" y="635.827"/><use xlink:href="#FsVo1-T5t2MzfODPxAxq_pad-33" x="1401.181" y="735.827"/><use xlink:href="#FsVo1-T5t2MzfODPxAxq_pad-33" x="1275.984" y="835.827"/><use xlink:href="#FsVo1-T5t2MzfODPxAxq_pad-33" x="1401.181" y="935.827"/><use xlink:href="#FsVo1-T5t2MzfODPxAxq_pad-33" x="1275.984" y="1035.827"/><use xlink:href="#FsVo1-T5t2MzfODPxAxq_pad-33" x="1401.181" y="1135.827"/><use xlink:href="#FsVo1-T5t2MzfODPxAxq_pad-35" x="3592.52" y="787.36"/><use xlink:href="#FsVo1-T5t2MzfODPxAxq_pad-35" x="3592.52" y="984.21"/><use xlink:href="#FsVo1-T5t2MzfODPxAxq_pad-35" x="4084.646" y="984.21"/><use xlink:href="#FsVo1-T5t2MzfODPxAxq_pad-35" x="4084.646" y="787.36"/><use xlink:href="#FsVo1-T5t2MzfODPxAxq_pad-35" x="2608.268" y="787.36"/><use xlink:href="#FsVo1-T5t2MzfODPxAxq_pad-35" x="2608.268" y="984.21"/><use xlink:href="#FsVo1-T5t2MzfODPxAxq_pad-35" x="3100.394" y="984.21"/><use xlink:href="#FsVo1-T5t2MzfODPxAxq_pad-35" x="3100.394" y="787.36"/><use xlink:href="#FsVo1-T5t2MzfODPxAxq_pad-35" x="1624.016" y="787.36"/><use xlink:href="#FsVo1-T5t2MzfODPxAxq_pad-35" x="1624.016" y="984.21"/><use xlink:href="#FsVo1-T5t2MzfODPxAxq_pad-35" x="2116.142" y="984.21"/><use xlink:href="#FsVo1-T5t2MzfODPxAxq_pad-35" x="2116.142" y="787.36"/><use xlink:href="#FsVo1-T5t2MzfODPxAxq_pad-35" x="639.764" y="787.36"/><use xlink:href="#FsVo1-T5t2MzfODPxAxq_pad-35" x="639.764" y="984.21"/><use xlink:href="#FsVo1-T5t2MzfODPxAxq_pad-35" x="1131.89" y="984.21"/><use xlink:href="#FsVo1-T5t2MzfODPxAxq_pad-35" x="1131.89" y="787.36"/></g></svg>