<svg version="1.1" xmlns="http://www.w3.org/2000/svg" xmlns:xlink="http://www.w3.org/1999/xlink" stroke-linecap="round" stroke-linejoin="round" stroke-width="0" fill-rule="evenodd" clip-rule="evenodd" id="Z0GxB2qX4yqzEFLRmBaN_top" viewBox="393.701 393.701 3937.008 984.252" width="3.9370079999999996in" height="0.9842519999999999in" class="w-100 h-100"><defs><style>.Z0GxB2qX4yqzEFLRmBaN_fr4 {color: #666666;}
.Z0GxB2qX4yqzEFLRmBaN_cu {color: #cccccc;}
.Z0GxB2qX4yqzEFLRmBaN_cf {color: #cc9933;}
.Z0GxB2qX4yqzEFLRmBaN_sm {color: #004200; opacity: 0.75;}
.Z0GxB2qX4yqzEFLRmBaN_ss {color: #ffffff;}
.Z0GxB2qX4yqzEFLRmBaN_sp {color: #999999;}
.Z0GxB2qX4yqzEFLRmBaN_out {color: #000000;}</style><circle cx="0" cy="0" r="20" id="FsVo1-T5t2MzfODPxAxq_pad-36"/><rect x="-35.433" y="-31.496" width="70.866" height="62.992" id="FsVo1-T5t2MzfODPxAxq_pad-17"/><rect x="-62.5985" y="-25" width="125.197" height="50" id="FsVo1-T5t2MzfODPxAxq_pad-33"/><circle cx="0" cy="0" r="42.5" id="FsVo1-T5t2MzfODPxAxq_pad-35"/><circle cx="0" cy="0" r="7.792" id="oI7X8YA-Lk7QqoHLRB-W_pad-18"/><circle cx="0" cy="0" r="16.3885" id="oI7X8YA-Lk7QqoHLRB-W_pad-19"/><circle cx="0" cy="0" r="6.2555" id="oI7X8YA-Lk7QqoHLRB-W_pad-20"/><circle cx="0" cy="0" r="6.2555" id="oI7X8YA-Lk7QqoHLRB-W_pad-21"/><circle cx="0" cy="0" r="6.219" id="oI7X8YA-Lk7QqoHLRB-W_pad-22"/><circle cx="0" cy="0" r="6.219" id="oI7X8YA-Lk7QqoHLRB-W_pad-23"/><circle cx="0" cy="0" r="6.987" id="oI7X8YA-Lk7QqoHLRB-W_pad-24"/><rect x="-7.792" y="-7.022" width="15.584" height="14.044" rx="7.022" ry="7.022" id="oI7X8YA-Lk7QqoHLRB-W_pad-25"/><rect x="-13.2425" y="-16.3815" width="26.485" height="32.763" rx="13.2425" ry="13.2425" id="oI7X8YA-Lk7QqoHLRB-W_pad-26"/><rect x="-3.9145" y="-3.1235" width="7.829" height="6.247" rx="3.1235" ry="3.1235" id="oI7X8YA-Lk7QqoHLRB-W_pad-27"/><circle cx="0" cy="0" r="7.0235" id="oI7X8YA-Lk7QqoHLRB-W_pad-28"/><rect x="-7.8285" y="-7.022" width="15.657" height="14.044" rx="7.022" ry="7.022" id="oI7X8YA-Lk7QqoHLRB-W_pad-29"/><rect x="-6.219" y="-7.022" width="12.438" height="14.044" rx="6.219" ry="6.219" id="oI7X8YA-Lk7QqoHLRB-W_pad-30"/><rect x="-6.219" y="-5.4605" width="12.438" height="10.921" rx="5.4605" ry="5.4605" id="oI7X8YA-Lk7QqoHLRB-W_pad-31"/><rect x="-22.335" y="-21.8685" width="44.67" height="43.737" rx="21.8685" ry="21.8685" id="oI7X8YA-Lk7QqoHLRB-W_pad-32"/><rect x="-39.37" y="-35.433" width="78.74" height="70.866" id="rpfL5j4KimTrfpQhwVCW_pad-48"/><circle cx="0" cy="0" r="59.055" id="rpfL5j4KimTrfpQhwVCW_pad-38"/><rect x="-66.5355" y="-28.937" width="133.071" height="57.874" id="rpfL5j4KimTrfpQhwVCW_pad-46"/><circle cx="0" cy="0" r="46.437" id="rpfL5j4KimTrfpQhwVCW_pad-44"/><circle cx="0" cy="0" r="35.433" id="rpfL5j4KimTrfpQhwVCW_pad-39"/><circle cx="0" cy="0" r="9.55" id="oW3_Uyx9awPHIyI93l-C_pad-1"/><circle cx="0" cy="0" r="23.6" id="oW3_Uyx9awPHIyI93l-C_pad-2"/><circle cx="0" cy="0" r="35.45" id="oW3_Uyx9awPHIyI93l-C_pad-3"/><circle cx="0" cy="0" r="59.05" id="oW3_Uyx9awPHIyI93l-C_pad-4"/><g id="Z0GxB2qX4yqzEFLRmBaN_top_copper"><path d="M 3624.951 668.627 3737.45 668.627 3737.45 787.36 M 3624.951 668.627 3568.774 668.627 3331.201 906.201 1524.95 906.201 1495.324 935.827 1401.181 935.827 M 2608.268 787.36 2756.201 787.36 3100.394 787.36 M 2643.701 668.627 2756.201 668.627 2756.201 787.36 M 2643.701 668.627 2356.276 668.627 2162.451 862.451 1531.202 862.451 1504.577 835.827 1275.984 835.827 M 1624.016 787.36 1762.451 787.36 2116.142 787.36 M 1401.181 735.827 1464.075 735.827 1531.274 668.627 1651.329 668.627 1762.451 668.627 1762.451 787.36 M 1275.984 635.827 1201.575 635.827 1170.965 666.437 1112.451 666.437 1008.465 666.437 1006.201 668.701 1006.201 787.36" fill="none" stroke-width="12"/><path d="M 1624.016 984.21 2116.142 984.21 2608.268 984.21 3100.394 984.21 3592.52 984.21 M 1624.016 984.21 1540.692 984.21 1489.075 1035.827 1275.984 1035.827 1183.507 1035.827 1131.89 984.21" fill="none" stroke-width="22"/><use xlink:href="#FsVo1-T5t2MzfODPxAxq_pad-36" x="3737.45" y="787.36"/><use xlink:href="#FsVo1-T5t2MzfODPxAxq_pad-36" x="1006.201" y="787.36"/><path d="M 644.939 1313.025 4079.474 1313.025 M 644.939 1288.156 4079.474 1288.156 M 644.939 1263.287 4079.474 1263.287 M 644.939 1238.419 4079.474 1238.419 M 644.939 1213.55 4079.474 1213.55 M 644.939 1188.681 4079.474 1188.681 M 644.939 1163.812 1309.574 1163.812 M 1492.775 1163.812 4079.474 1163.812 M 644.939 1138.944 1309.574 1138.944 M 1492.775 1138.944 4079.474 1138.944 M 644.939 1114.075 833.068 1114.075 M 938.579 1114.075 1309.574 1114.075 M 1492.775 1114.075 1817.335 1114.075 M 1922.847 1114.075 2801.567 1114.075 M 2907.078 1114.075 3785.834 1114.075 M 3891.346 1114.075 4079.474 1114.075 M 644.939 1089.206 816.633 1089.206 M 955.014 1089.206 1309.574 1089.206 M 1492.775 1089.206 1800.864 1089.206 M 1939.282 1089.206 2785.132 1089.206 M 2923.549 1089.206 3769.363 1089.206 M 3907.781 1089.206 4079.474 1089.206 M 644.939 1064.337 811.645 1064.337 M 960.002 1064.337 1156.671 1064.337 M 1515.92 1064.337 1795.912 1064.337 M 1944.234 1064.337 2780.144 1064.337 M 2928.501 1064.337 3764.411 1064.337 M 3912.769 1064.337 4079.474 1064.337 M 683.586 1039.469 815.592 1039.469 M 956.055 1039.469 1088.097 1039.469 M 1540.967 1039.469 1580.213 1039.469 M 1667.818 1039.469 1799.86 1039.469 M 1940.322 1039.469 2072.328 1039.469 M 2159.934 1039.469 2564.444 1039.469 M 2652.085 1039.469 2784.091 1039.469 M 2924.554 1039.469 3056.596 1039.469 M 3144.201 1039.469 3548.711 1039.469 M 3636.317 1039.469 3768.358 1039.469 M 3908.821 1039.469 4040.827 1039.469 M 704.22 1014.6 830.412 1014.6 M 941.271 1014.6 1067.463 1014.6 M 3656.95 1014.6 3783.143 1014.6 M 3894.001 1014.6 4020.194 1014.6 M 711.038 989.731 1060.61 989.731 M 3663.804 989.731 4013.376 989.731 M 708.49 964.862 1063.157 964.862 M 1200.606 964.862 1309.574 964.862 M 3661.256 964.862 4015.923 964.862 M 695.213 939.993 1076.434 939.993 M 1187.365 939.993 1309.574 939.993 M 3155.863 939.993 3537.049 939.993 M 3647.979 939.993 4029.201 939.993 M 644.939 915.125 1309.574 915.125 M 3370.738 915.125 4079.474 915.125 M 644.939 890.256 1309.574 890.256 M 3395.606 890.256 4079.474 890.256 M 644.939 865.387 1184.41 865.387 M 2207.983 865.387 3323.574 865.387 M 3420.473 865.387 4079.474 865.387 M 686.242 840.518 1085.405 840.518 M 2232.85 840.518 2561.789 840.518 M 2654.741 840.518 3053.904 840.518 M 3146.856 840.518 3348.442 840.518 M 3445.341 840.518 3546.056 840.518 M 3639.008 840.518 4038.172 840.518 M 705.189 815.65 966.808 815.65 M 1045.586 815.65 1066.459 815.65 M 2257.718 815.65 2542.842 815.65 M 3165.803 815.65 3373.309 815.65 M 3470.209 815.65 3527.109 815.65 M 3657.955 815.65 3698.061 815.65 M 3776.839 815.65 4019.225 815.65 M 711.181 790.781 957.335 790.781 M 2282.586 790.781 2536.849 790.781 M 3171.796 790.781 3398.177 790.781 M 3495.077 790.781 3521.116 790.781 M 3663.912 790.781 3688.588 790.781 M 3786.313 790.781 4013.232 790.781 M 707.844 765.912 840.245 765.912 M 931.403 765.912 962.466 765.912 M 1049.964 765.912 1063.803 765.912 M 2184.227 765.912 2210.554 765.912 M 2307.454 765.912 2540.186 765.912 M 3168.459 765.912 3423.045 765.912 M 3660.61 765.912 3693.683 765.912 M 3884.169 765.912 4016.569 765.912 M 693.383 741.043 819.396 741.043 M 952.251 741.043 971.222 741.043 M 1041.208 741.043 1078.265 741.043 M 1936.519 741.043 2062.496 741.043 M 2169.766 741.043 2235.422 741.043 M 2332.321 741.043 2554.648 741.043 M 2920.75 741.043 3046.763 741.043 M 3154.033 741.043 3447.913 741.043 M 3646.149 741.043 3702.475 741.043 M 3905.018 741.043 4030.995 741.043 M 644.939 716.175 812.04 716.175 M 1943.875 716.175 2260.29 716.175 M 2357.189 716.175 2579.264 716.175 M 2928.106 716.175 3472.78 716.175 M 3912.374 716.175 4079.474 716.175 M 644.939 691.306 813.762 691.306 M 1942.153 691.306 2285.157 691.306 M 2926.384 691.306 3497.648 691.306 M 3910.651 691.306 4079.474 691.306 M 644.939 666.437 825.353 666.437 M 1367.575 666.437 1485.012 666.437 M 1930.526 666.437 2310.025 666.437 M 2914.793 666.437 3522.516 666.437 M 3899.061 666.437 4079.474 666.437 M 644.939 641.568 857.972 641.568 M 913.676 641.568 941.761 641.568 M 1367.575 641.568 1510.777 641.568 M 1826.893 641.568 1842.203 641.568 M 1897.943 641.568 2335.79 641.568 M 2882.175 641.568 3548.281 641.568 M 3866.442 641.568 4079.474 641.568 M 644.939 616.699 941.761 616.699 M 1367.575 616.699 1586.887 616.699 M 1826.893 616.699 2579.264 616.699 M 2820.633 616.699 3560.517 616.699 M 3801.886 616.699 4079.474 616.699 M 644.939 591.831 941.761 591.831 M 1367.575 591.831 1586.887 591.831 M 1826.893 591.831 2579.264 591.831 M 2820.633 591.831 3560.517 591.831 M 3801.886 591.831 4079.474 591.831 M 644.939 566.962 941.761 566.962 M 1176.886 566.962 1586.887 566.962 M 1826.893 566.962 2579.264 566.962 M 2820.633 566.962 3560.517 566.962 M 3801.886 566.962 4079.474 566.962 M 644.939 542.093 941.761 542.093 M 1176.886 542.093 1586.887 542.093 M 1826.893 542.093 2579.264 542.093 M 2820.633 542.093 3560.517 542.093 M 3801.886 542.093 4079.474 542.093 M 644.939 517.224 941.761 517.224 M 1176.886 517.224 1586.887 517.224 M 1826.893 517.224 2579.264 517.224 M 2820.633 517.224 3560.517 517.224 M 3801.886 517.224 4079.474 517.224 M 644.939 492.356 4079.474 492.356 M 644.939 467.487 4079.474 467.487 M 644.939 442.618 4079.474 442.618 M 1365.075 684.34 1365.075 584.335 1186.894 584.335 1186.824 606.876 1182.476 609.54 1178.599 612.851 1174.362 617.089 1174.377 498.212 1050.527 498.212 1050.527 500.473 944.276 500.476 944.276 667.087 940.338 662.063 932.383 654.109 923.283 647.497 913.26 642.39 902.562 638.914 891.451 637.154 880.202 637.154 869.092 638.914 858.394 642.39 848.371 647.497 839.27 654.109 831.316 662.063 824.704 671.163 819.597 681.186 816.121 691.885 814.361 702.995 814.361 714.244 816.121 725.354 819.597 736.053 824.704 746.075 831.316 755.176 839.27 763.13 848.371 769.742 858.394 774.849 869.092 778.325 880.202 780.085 891.451 780.085 902.562 778.325 913.26 774.849 923.283 769.742 932.383 763.13 940.338 755.176 946.949 746.075 952.056 736.053 955.156 726.687 973.737 726.689 973.709 754.141 968.588 760.032 964.776 766.253 961.984 772.993 960.281 780.087 959.709 787.36 960.281 794.633 961.984 801.726 964.776 808.467 968.588 814.687 973.326 820.234 978.873 824.973 985.094 828.784 991.834 831.576 998.928 833.279 1006.201 833.852 1013.474 833.279 1020.568 831.576 1027.308 828.784 1033.528 824.973 1039.076 820.234 1043.814 814.687 1047.626 808.467 1050.417 801.726 1052.121 794.633 1052.693 787.36 1052.121 780.087 1050.417 772.993 1047.626 766.253 1043.814 760.032 1038.688 754.127 1038.693 726.679 1068.126 726.689 1068.126 724.428 1103.599 724.425 1095.841 728.534 1087.083 734.898 1079.428 742.553 1073.064 751.311 1068.149 760.957 1064.804 771.254 1063.11 781.947 1063.11 792.773 1064.804 803.465 1068.149 813.762 1073.064 823.408 1079.428 832.166 1087.083 839.822 1095.841 846.185 1105.488 851.1 1115.784 854.445 1126.477 856.139 1137.303 856.139 1147.996 854.445 1158.292 851.1 1167.938 846.185 1176.697 839.822 1184.352 832.166 1186.906 828.926 1186.894 887.319 1312.094 887.319 1312.091 984.344 1200.882 984.21 1200.032 973.417 1197.505 962.89 1193.362 952.888 1187.706 943.657 1180.675 935.425 1172.442 928.394 1163.212 922.738 1153.21 918.595 1142.683 916.067 1131.89 915.218 1121.097 916.067 1110.57 918.595 1100.568 922.738 1091.337 928.394 1083.105 935.425 1076.074 943.657 1070.417 952.888 1066.274 962.89 1063.747 973.417 1062.898 984.21 1063.747 995.003 1066.274 1005.53 1070.417 1015.532 1076.074 1024.763 1083.105 1032.995 1091.337 1040.026 1100.568 1045.682 1110.57 1049.825 1121.097 1052.353 1131.89 1053.202 1142.683 1052.353 1146.273 1051.638 1159.157 1064.336 1163.917 1067.794 1169.159 1070.465 1174.754 1072.283 1180.565 1073.203 1183.518 1073.319 1186.894 1076.198 1186.894 1087.319 1312.094 1087.319 1312.091 1187.319 1490.272 1187.319 1490.272 1084.335 1365.072 1084.335 1365.075 1073.288 1492.016 1073.203 1497.827 1072.283 1503.422 1070.465 1508.664 1067.794 1513.424 1064.336 1548.064 1029.859 1556.21 1021.714 1566.133 1021.702 1571.554 1029.017 1579.209 1036.672 1587.967 1043.035 1597.614 1047.95 1607.91 1051.296 1618.603 1052.989 1629.429 1052.989 1640.122 1051.296 1650.418 1047.95 1660.064 1043.035 1668.823 1036.672 1676.478 1029.017 1681.865 1021.719 1811.439 1021.702 1806.206 1030.405 1801.901 1040.798 1799.275 1051.736 1798.392 1062.95 1799.275 1074.164 1801.901 1085.102 1806.206 1095.495 1812.083 1105.086 1819.389 1113.64 1827.943 1120.946 1837.534 1126.823 1847.926 1131.128 1858.865 1133.754 1870.079 1134.636 1881.293 1133.754 1892.231 1131.128 1902.624 1126.823 1912.215 1120.946 1920.769 1113.64 1928.074 1105.086 1933.952 1095.495 1938.257 1085.102 1940.883 1074.164 1941.765 1062.95 1940.883 1051.736 1938.257 1040.798 1933.952 1030.405 1928.673 1021.71 2058.25 1021.702 2063.68 1029.017 2071.335 1036.672 2080.093 1043.035 2089.74 1047.95 2100.036 1051.296 2110.729 1052.989 2121.555 1052.989 2132.248 1051.296 2142.544 1047.95 2152.19 1043.035 2160.949 1036.672 2168.604 1029.017 2173.991 1021.719 2550.376 1021.702 2555.806 1029.017 2563.461 1036.672 2572.219 1043.035 2581.866 1047.95 2592.162 1051.296 2602.855 1052.989 2613.681 1052.989 2624.374 1051.296 2634.67 1047.95 2644.316 1043.035 2653.075 1036.672 2660.73 1029.017 2666.117 1021.719 2795.691 1021.702 2790.458 1030.405 2786.153 1040.798 2783.527 1051.736 2782.644 1062.95 2783.527 1074.164 2786.153 1085.102 2790.458 1095.495 2796.335 1105.086 2803.641 1113.64 2812.195 1120.946 2821.786 1126.823 2832.178 1131.128 2843.116 1133.754 2854.331 1134.636 2865.545 1133.754 2876.483 1131.128 2886.876 1126.823 2896.467 1120.946 2905.021 1113.64 2912.326 1105.086 2918.204 1095.495 2922.508 1085.102 2925.134 1074.164 2926.017 1062.95 2925.134 1051.736 2922.508 1040.798 2918.204 1030.405 2912.925 1021.71 3042.502 1021.702 3047.932 1029.017 3055.587 1036.672 3064.345 1043.035 3073.992 1047.95 3084.288 1051.296 3094.981 1052.989 3105.807 1052.989 3116.5 1051.296 3126.796 1047.95 3136.442 1043.035 3145.201 1036.672 3152.856 1029.017 3158.243 1021.719 3534.628 1021.702 3540.058 1029.017 3547.713 1036.672 3556.471 1043.035 3566.118 1047.95 3576.414 1051.296 3587.107 1052.989 3597.933 1052.989 3608.626 1051.296 3618.922 1047.95 3628.568 1043.035 3637.326 1036.672 3644.982 1029.017 3651.345 1020.258 3656.26 1010.612 3659.606 1000.316 3661.299 989.623 3661.299 978.797 3659.606 968.104 3656.26 957.808 3651.345 948.162 3644.982 939.403 3637.326 931.748 3628.568 925.385 3618.922 920.47 3608.626 917.124 3597.933 915.431 3587.107 915.431 3576.414 917.124 3566.118 920.47 3556.471 925.385 3547.713 931.748 3540.058 939.403 3534.67 946.701 3158.285 946.718 3152.856 939.403 3152.209 938.704 3333.75 938.593 3338.786 937.795 3343.635 936.22 3348.178 933.905 3352.303 930.908 3399.646 883.706 3536.704 746.807 3531.047 756.038 3526.904 766.04 3524.377 776.567 3523.528 787.36 3524.377 798.152 3526.904 808.679 3531.047 818.681 3536.704 827.912 3543.735 836.144 3551.967 843.175 3561.198 848.832 3571.2 852.975 3581.727 855.502 3592.52 856.352 3603.312 855.502 3613.839 852.975 3623.841 848.832 3633.072 843.175 3641.304 836.144 3648.335 827.912 3653.992 818.681 3658.135 808.679 3660.662 798.152 3661.512 787.36 3660.662 776.567 3658.135 766.04 3653.992 756.038 3648.335 746.807 3641.304 738.575 3633.072 731.544 3625.152 726.621 3704.986 726.615 3704.958 754.139 3699.837 760.032 3696.025 766.253 3693.233 772.993 3691.53 780.087 3690.958 787.36 3691.53 794.633 3693.233 801.726 3696.025 808.467 3699.837 814.687 3704.575 820.234 3710.123 824.973 3716.343 828.784 3723.083 831.576 3730.177 833.279 3737.45 833.852 3744.723 833.279 3751.817 831.576 3758.557 828.784 3764.778 824.973 3770.325 820.234 3775.063 814.687 3778.875 808.467 3781.667 801.726 3783.37 794.633 3783.942 787.36 3783.37 780.087 3781.667 772.993 3778.875 766.253 3775.063 760.032 3769.938 754.127 3769.942 729.263 3772.353 736.053 3777.46 746.075 3784.072 755.176 3792.026 763.13 3801.127 769.742 3811.149 774.849 3821.848 778.325 3832.958 780.085 3844.207 780.085 3855.318 778.325 3866.016 774.849 3876.039 769.742 3885.139 763.13 3893.093 755.176 3899.705 746.075 3904.812 736.053 3908.288 725.354 3910.048 714.244 3910.048 702.995 3908.288 691.885 3904.812 681.186 3899.705 671.163 3893.093 662.063 3885.139 654.109 3876.039 647.497 3866.016 642.39 3855.318 638.914 3844.207 637.154 3832.958 637.154 3821.848 638.914 3811.149 642.39 3801.127 647.497 3799.39 648.657 3799.375 500.403 3563.026 500.403 3563.026 636.655 3558.734 637.725 3554.023 639.677 3549.676 642.341 3545.799 645.652 3317.763 873.688 2197.153 873.709 2369.718 701.136 2581.808 701.12 2581.776 723.678 2572.219 728.534 2563.461 734.898 2555.806 742.553 2549.442 751.311 2544.527 760.957 2541.182 771.254 2539.488 781.947 2539.488 792.773 2541.182 803.465 2544.527 813.762 2549.442 823.408 2555.806 832.166 2563.461 839.822 2572.219 846.185 2581.866 851.1 2592.162 854.445 2602.855 856.139 2613.681 856.139 2624.374 854.445 2634.67 851.1 2644.316 846.185 2653.075 839.822 2660.73 832.166 2667.093 823.408 2669.089 819.845 3039.506 819.852 3044.578 827.912 3051.609 836.144 3059.841 843.175 3069.072 848.832 3079.074 852.975 3089.601 855.502 3100.394 856.352 3111.186 855.502 3121.713 852.975 3131.715 848.832 3140.946 843.175 3149.179 836.144 3156.21 827.912 3161.866 818.681 3166.009 808.679 3168.536 798.152 3169.386 787.36 3168.536 776.567 3166.009 766.04 3161.866 756.038 3156.21 746.807 3149.179 738.575 3140.946 731.544 3131.715 725.887 3121.713 721.744 3111.186 719.217 3100.394 718.367 3089.601 719.217 3079.074 721.744 3069.072 725.887 3059.841 731.544 3051.609 738.575 3044.578 746.807 3039.573 754.875 2909.095 754.867 2915.453 746.075 2920.56 736.053 2924.036 725.354 2925.796 714.244 2925.796 702.995 2924.036 691.885 2920.56 681.186 2915.453 671.163 2908.841 662.063 2900.887 654.109 2891.787 647.497 2881.764 642.39 2871.066 638.914 2859.955 637.154 2848.706 637.154 2837.596 638.914 2826.898 642.39 2818.122 646.798 2818.126 500.403 2581.776 500.403 2581.776 636.153 2353.726 636.235 2348.69 637.033 2343.841 638.608 2339.298 640.923 2335.174 643.92 2287.83 691.122 2184.786 794.166 2185.134 787.36 2184.284 776.567 2181.757 766.04 2177.614 756.038 2171.958 746.807 2164.927 738.575 2156.694 731.544 2147.464 725.887 2137.461 721.744 2126.934 719.217 2116.142 718.367 2105.349 719.217 2094.822 721.744 2084.82 725.887 2075.589 731.544 2067.357 738.575 2060.326 746.807 2055.321 754.875 1924.843 754.867 1931.201 746.075 1936.308 736.053 1939.784 725.354 1941.544 714.244 1941.544 702.995 1939.784 691.885 1936.308 681.186 1931.201 671.163 1924.589 662.063 1916.635 654.109 1907.535 647.497 1897.512 642.39 1886.814 638.914 1875.703 637.154 1864.454 637.154 1853.344 638.914 1842.646 642.39 1832.623 647.497 1824.368 653.442 1824.377 500.403 1589.404 500.403 1589.404 636.153 1528.725 636.235 1523.689 637.033 1518.84 638.608 1514.297 640.923 1510.172 643.92 1469.604 684.347 1365.072 684.335 M 3563.024 725.046 3556.471 728.534 3551.219 732.133 3563.029 720.323 3563.026 724.979 M 4082.003 915.322 4073.853 916.067 4063.326 918.595 4053.324 922.738 4044.093 928.394 4035.861 935.425 4028.83 943.657 4023.173 952.888 4019.03 962.89 4016.503 973.417 4015.654 984.21 4016.503 995.003 4019.03 1005.53 4023.173 1015.532 4028.83 1024.763 4035.861 1032.995 4044.093 1040.026 4053.324 1045.682 4063.326 1049.825 4073.853 1052.353 4082.003 1053.098 4081.988 1337.921 642.394 1337.894 642.421 1053.165 650.557 1052.353 661.084 1049.825 671.086 1045.682 680.316 1040.026 688.549 1032.995 695.58 1024.763 701.236 1015.532 705.379 1005.53 707.906 995.003 708.756 984.21 707.906 973.417 705.379 962.89 701.236 952.888 695.58 943.657 688.549 935.425 680.316 928.394 671.086 922.738 661.084 918.595 650.557 916.067 642.407 915.322 642.421 856.304 650.557 855.502 661.084 852.975 671.086 848.832 680.316 843.175 688.549 836.144 695.58 827.912 701.236 818.681 705.379 808.679 707.906 798.152 708.756 787.36 707.906 776.567 705.379 766.04 701.236 756.038 695.58 746.807 688.549 738.575 680.316 731.544 671.086 725.887 661.084 721.744 650.557 719.217 642.407 718.471 642.421 433.732 4082.016 433.76 4081.988 718.417 4073.853 719.217 4063.326 721.744 4053.324 725.887 4044.093 731.544 4035.861 738.575 4028.83 746.807 4023.173 756.038 4019.03 766.04 4016.503 776.567 4015.654 787.36 4016.503 798.152 4019.03 808.679 4023.173 818.681 4028.83 827.912 4035.861 836.144 4044.093 843.175 4053.324 848.832 4063.326 852.975 4073.853 855.502 4082.003 856.248 4081.988 915.277 M 3910.048 1057.326 3908.288 1046.215 3904.812 1035.517 3899.705 1025.494 3893.093 1016.394 3885.139 1008.439 3876.039 1001.827 3866.016 996.721 3855.318 993.244 3844.207 991.485 3832.958 991.485 3821.848 993.244 3811.149 996.721 3801.127 1001.827 3792.026 1008.439 3784.072 1016.394 3777.46 1025.494 3772.353 1035.517 3768.877 1046.215 3767.117 1057.326 3767.117 1068.575 3768.877 1079.685 3772.353 1090.383 3777.46 1100.406 3784.072 1109.507 3792.026 1117.461 3801.127 1124.073 3811.149 1129.18 3821.848 1132.656 3832.958 1134.415 3844.207 1134.415 3855.318 1132.656 3866.016 1129.18 3876.039 1124.073 3885.139 1117.461 3893.093 1109.507 3899.705 1100.406 3904.812 1090.383 3908.288 1079.685 3910.048 1068.575 3910.048 1057.326 M 957.292 1057.326 955.532 1046.215 952.056 1035.517 946.949 1025.494 940.338 1016.394 932.383 1008.439 923.283 1001.827 913.26 996.721 902.562 993.244 891.451 991.485 880.202 991.485 869.092 993.244 858.394 996.721 848.371 1001.827 839.27 1008.439 831.316 1016.394 824.704 1025.494 819.597 1035.517 816.121 1046.215 814.361 1057.326 814.361 1068.575 816.121 1079.685 819.597 1090.383 824.704 1100.406 831.316 1109.507 839.27 1117.461 848.371 1124.073 858.394 1129.18 869.092 1132.656 880.202 1134.415 891.451 1134.415 902.562 1132.656 913.26 1129.18 923.283 1124.073 932.383 1117.461 940.338 1109.507 946.949 1100.406 952.056 1090.383 955.532 1079.685 957.292 1068.575 957.292 1057.326" fill="none" stroke-width="25"/><path d="M 1401.181 1187.283 1401.181 1084.37 M 1312.127 1135.827 1490.236 1135.827 M 3624.951 558.391 3624.951 500.439 M 3563.062 558.391 3624.951 558.391 M 3737.45 558.391 3737.45 500.439 M 3737.45 558.391 3799.34 558.391 M 2643.701 558.391 2643.701 500.439 M 2581.812 558.391 2643.701 558.391 M 2756.201 558.391 2756.201 500.439 M 2756.201 558.391 2818.09 558.391 M 1651.329 558.391 1651.329 500.439 M 1589.44 558.391 1651.329 558.391 M 1762.451 558.391 1762.451 500.438 M 1762.451 558.391 1824.341 558.391 M 1112.451 556.201 1112.451 498.248 M 1112.451 556.201 1174.341 556.201 M 1006.201 558.465 1006.201 500.512 M 944.311 558.465 1006.201 558.465" fill="none" stroke-width="20"/><use xlink:href="#FsVo1-T5t2MzfODPxAxq_pad-17" x="3737.45" y="668.627"/><use xlink:href="#FsVo1-T5t2MzfODPxAxq_pad-17" x="3737.45" y="558.391"/><use xlink:href="#FsVo1-T5t2MzfODPxAxq_pad-17" x="2756.201" y="668.627"/><use xlink:href="#FsVo1-T5t2MzfODPxAxq_pad-17" x="2756.201" y="558.391"/><use xlink:href="#FsVo1-T5t2MzfODPxAxq_pad-17" x="1762.451" y="668.627"/><use xlink:href="#FsVo1-T5t2MzfODPxAxq_pad-17" x="1762.451" y="558.391"/><use xlink:href="#FsVo1-T5t2MzfODPxAxq_pad-17" x="1006.201" y="668.701"/><use xlink:href="#FsVo1-T5t2MzfODPxAxq_pad-17" x="1006.201" y="558.465"/><use xlink:href="#FsVo1-T5t2MzfODPxAxq_pad-17" x="3624.951" y="558.391"/><use xlink:href="#FsVo1-T5t2MzfODPxAxq_pad-17" x="3624.951" y="668.627"/><use xlink:href="#FsVo1-T5t2MzfODPxAxq_pad-17" x="2643.701" y="558.391"/><use xlink:href="#FsVo1-T5t2MzfODPxAxq_pad-17" x="2643.701" y="668.627"/><use xlink:href="#FsVo1-T5t2MzfODPxAxq_pad-17" x="1651.329" y="558.391"/><use xlink:href="#FsVo1-T5t2MzfODPxAxq_pad-17" x="1651.329" y="668.627"/><use xlink:href="#FsVo1-T5t2MzfODPxAxq_pad-17" x="1112.451" y="556.201"/><use xlink:href="#FsVo1-T5t2MzfODPxAxq_pad-17" x="1112.451" y="666.437"/><use xlink:href="#FsVo1-T5t2MzfODPxAxq_pad-33" x="1275.984" y="635.827"/><use xlink:href="#FsVo1-T5t2MzfODPxAxq_pad-33" x="1401.181" y="735.827"/><use xlink:href="#FsVo1-T5t2MzfODPxAxq_pad-33" x="1275.984" y="835.827"/><use xlink:href="#FsVo1-T5t2MzfODPxAxq_pad-33" x="1401.181" y="935.827"/><use xlink:href="#FsVo1-T5t2MzfODPxAxq_pad-33" x="1275.984" y="1035.827"/><use xlink:href="#FsVo1-T5t2MzfODPxAxq_pad-33" x="1401.181" y="1135.827"/><use xlink:href="#FsVo1-T5t2MzfODPxAxq_pad-35" x="3592.52" y="787.36"/><use xlink:href="#FsVo1-T5t2MzfODPxAxq_pad-35" x="3592.52" y="984.21"/><use xlink:href="#FsVo1-T5t2MzfODPxAxq_pad-35" x="4084.646" y="984.21"/><use xlink:href="#FsVo1-T5t2MzfODPxAxq_pad-35" x="4084.646" y="787.36"/><use xlink:href="#FsVo1-T5t2MzfODPxAxq_pad-35" x="2608.268" y="787.36"/><use xlink:href="#FsVo1-T5t2MzfODPxAxq_pad-35" x="2608.268" y="984.21"/><use xlink:href="#FsVo1-T5t2MzfODPxAxq_pad-35" x="3100.394" y="984.21"/><use xlink:href="#FsVo1-T5t2MzfODPxAxq_pad-35" x="3100.394" y="787.36"/><use xlink:href="#FsVo1-T5t2MzfODPxAxq_pad-35" x="1624.016" y="787.36"/><use xlink:href="#FsVo1-T5t2MzfODPxAxq_pad-35" x="1624.016" y="984.21"/><use xlink:href="#FsVo1-T5t2MzfODPxAxq_pad-35" x="2116.142" y="984.21"/><use xlink:href="#FsVo1-T5t2MzfODPxAxq_pad-35" x="2116.142" y="787.36"/><use xlink:href="#FsVo1-T5t2MzfODPxAxq_pad-35" x="639.764" y="787.36"/><use xlink:href="#FsVo1-T5t2MzfODPxAxq_pad-35" x="639.764" y="984.21"/><use xlink:href="#FsVo1-T5t2MzfODPxAxq_pad-35" x="1131.89" y="984.21"/><use xlink:href="#FsVo1-T5t2MzfODPxAxq_pad-35" x="1131.89" y="787.36"/></g><g id="Z0GxB2qX4yqzEFLRmBaN_top_silkscreen"><path d="M 3782.45 709.509 3692.45 709.509 3692.45 517.509 3782.45 517.509 3782.45 709.509 M 2801.201 709.509 2711.201 709.509 2711.201 517.509 2801.201 517.509 2801.201 709.509 M 1807.451 709.509 1717.451 709.509 1717.451 517.509 1807.451 517.509 1807.451 709.509 M 1051.201 709.583 961.201 709.583 961.201 517.583 1051.201 517.583 1051.201 709.583 M 3579.951 517.509 3669.951 517.509 3669.951 709.509 3579.951 709.509 3579.951 517.509 M 2598.701 517.509 2688.701 517.509 2688.701 709.509 2598.701 709.509 2598.701 517.509 M 1606.329 517.509 1696.329 517.509 1696.329 709.509 1606.329 709.509 1606.329 517.509 M 1067.451 515.319 1157.451 515.319 1157.451 707.319 1067.451 707.319 1067.451 515.319" fill="none" stroke-width="9.843"/><use xlink:href="#oI7X8YA-Lk7QqoHLRB-W_pad-18" x="3232.304" y="1103.175"/><path d="M 3065.381 1132.815 3149.739 1276.581 3215.367 1132.815 3065.381 1132.815"/><path d="M 3229.195 1270.09 3288.458 1270.09 3296.286 1268.54 3307.188 1263.866 3315.016 1259.192 3322.772 1252.945 3327.454 1246.698 3332.137 1237.35 3333.673 1229.53 3335.283 1218.631 3333.673 1209.261 3328.991 1198.34 3322.772 1192.093 3315.016 1185.869 3305.651 1181.172 3297.823 1178.071 3346.184 1132.815 3229.195 1132.815 3229.195 1270.09"/><path d="M 3327.454 1270.09 3471.002 1270.09 3450.736 1231.103 3422.641 1226.429 3413.276 1134.387 3386.717 1134.387 3377.352 1226.429 3349.33 1231.103 3327.454 1270.09"/><path d="M 3485.05 1212.384 3505.316 1212.384 3525.582 1132.815 3466.32 1132.815 3485.05 1212.384"/><path d="M 3642.572 1159.331 3573.944 1196.789 3642.572 1232.654 3633.207 1243.574 3623.842 1249.821 3611.404 1256.068 3598.893 1259.192 3584.845 1259.192 3572.407 1256.068 3559.896 1251.372 3548.995 1243.574 3539.63 1232.654 3533.411 1221.733 3530.265 1209.261 3528.728 1196.789 3530.265 1182.745 3533.411 1170.251 3541.166 1157.78 3550.531 1148.432 3561.433 1140.612 3573.944 1135.938 3584.845 1132.815 3598.893 1132.815 3611.404 1135.938 3625.451 1142.185 3642.572 1159.331"/><path d="M 3644.108 1134.387 3708.127 1279.461 3797.021 1132.815 3644.108 1134.387"/><use xlink:href="#oI7X8YA-Lk7QqoHLRB-W_pad-19" x="3495.146" y="1255.282"/><path d="M 3148.056 1103.175 3160.567 1103.175 3160.567 1065.738 3148.056 1065.738 3148.056 1103.175"/><use xlink:href="#oI7X8YA-Lk7QqoHLRB-W_pad-20" x="3154.311" y="1104.737"/><use xlink:href="#oI7X8YA-Lk7QqoHLRB-W_pad-21" x="3154.311" y="1065.738"/><path d="M 3165.249 1103.175 3177.687 1103.175 3177.687 1065.738 3165.249 1065.738 3165.249 1103.175"/><use xlink:href="#oI7X8YA-Lk7QqoHLRB-W_pad-22" x="3171.468" y="1104.737"/><use xlink:href="#oI7X8YA-Lk7QqoHLRB-W_pad-23" x="3171.468" y="1065.738"/><path d="M 3205.782 1103.175 3218.293 1103.175 3218.293 1065.738 3205.782 1065.738 3205.782 1103.175"/><use xlink:href="#oI7X8YA-Lk7QqoHLRB-W_pad-20" x="3212.038" y="1104.737"/><use xlink:href="#oI7X8YA-Lk7QqoHLRB-W_pad-21" x="3212.038" y="1065.738"/><path d="M 3297.823 1101.625 3310.334 1101.625 3310.334 1064.188 3297.823 1064.188 3297.823 1101.625"/><use xlink:href="#oI7X8YA-Lk7QqoHLRB-W_pad-20" x="3304.078" y="1103.186"/><use xlink:href="#oI7X8YA-Lk7QqoHLRB-W_pad-20" x="3304.078" y="1064.177"/><use xlink:href="#oI7X8YA-Lk7QqoHLRB-W_pad-24" x="3268.96" y="1085.232"/><use xlink:href="#oI7X8YA-Lk7QqoHLRB-W_pad-25" x="3268.155" y="1068.087"/><use xlink:href="#oI7X8YA-Lk7QqoHLRB-W_pad-18" x="3678.459" y="1103.175"/><path d="M 3285.312 1110.973 3322.772 1110.973 3322.772 1098.501 3285.312 1098.501 3285.312 1110.973"/><use xlink:href="#oI7X8YA-Lk7QqoHLRB-W_pad-20" x="3286.885" y="1104.737"/><use xlink:href="#oI7X8YA-Lk7QqoHLRB-W_pad-22" x="3321.235" y="1104.737"/><path d="M 3335.283 1103.175 3347.721 1103.175 3347.721 1065.738 3335.283 1065.738 3335.283 1103.175"/><use xlink:href="#oI7X8YA-Lk7QqoHLRB-W_pad-22" x="3341.502" y="1104.737"/><use xlink:href="#oI7X8YA-Lk7QqoHLRB-W_pad-23" x="3341.502" y="1065.738"/><path d="M 3389.863 1103.175 3402.374 1103.175 3402.374 1084.457 3389.863 1084.457 3389.863 1103.175"/><use xlink:href="#oI7X8YA-Lk7QqoHLRB-W_pad-20" x="3396.119" y="1104.737"/><path d="M 3341.502 1110.973 3375.816 1110.973 3375.816 1078.21 3341.502 1078.21 3341.502 1110.973"/><path d="M 3430.396 1103.175 3442.907 1103.175 3442.907 1089.131 3430.396 1089.131 3430.396 1103.175"/><use xlink:href="#oI7X8YA-Lk7QqoHLRB-W_pad-20" x="3436.652" y="1104.737"/><use xlink:href="#oI7X8YA-Lk7QqoHLRB-W_pad-26" x="3373.474" y="1094.591"/><path d="M 3636.353 1101.625 3648.791 1101.625 3648.791 1064.188 3636.353 1064.188 3636.353 1101.625"/><use xlink:href="#oI7X8YA-Lk7QqoHLRB-W_pad-22" x="3642.572" y="1103.186"/><use xlink:href="#oI7X8YA-Lk7QqoHLRB-W_pad-22" x="3642.572" y="1064.177"/><path d="M 3623.842 1110.973 3661.302 1110.973 3661.302 1098.501 3623.842 1098.501 3623.842 1110.973"/><use xlink:href="#oI7X8YA-Lk7QqoHLRB-W_pad-20" x="3625.415" y="1104.737"/><use xlink:href="#oI7X8YA-Lk7QqoHLRB-W_pad-20" x="3659.729" y="1104.737"/><path d="M 3503.706 1103.175 3516.217 1103.175 3516.217 1065.738 3503.706 1065.738 3503.706 1103.175"/><use xlink:href="#oI7X8YA-Lk7QqoHLRB-W_pad-20" x="3509.962" y="1104.737"/><use xlink:href="#oI7X8YA-Lk7QqoHLRB-W_pad-21" x="3509.962" y="1065.738"/><path d="M 3486.586 1103.175 3499.097 1103.175 3499.097 1065.738 3486.586 1065.738 3486.586 1103.175"/><use xlink:href="#oI7X8YA-Lk7QqoHLRB-W_pad-20" x="3492.841" y="1104.737"/><use xlink:href="#oI7X8YA-Lk7QqoHLRB-W_pad-21" x="3492.841" y="1065.738"/><path d="M 3446.053 1103.175 3458.491 1103.175 3458.491 1065.738 3446.053 1065.738 3446.053 1103.175"/><use xlink:href="#oI7X8YA-Lk7QqoHLRB-W_pad-22" x="3452.272" y="1104.737"/><use xlink:href="#oI7X8YA-Lk7QqoHLRB-W_pad-23" x="3452.272" y="1065.738"/><path d="M 3393.009 1087.58 3402.374 1087.58 3402.374 1078.21 3393.009 1078.21 3393.009 1087.58"/><use xlink:href="#oI7X8YA-Lk7QqoHLRB-W_pad-27" x="3471.77" y="1079.783"/><use xlink:href="#oI7X8YA-Lk7QqoHLRB-W_pad-28" x="3715.15" y="1085.232"/><use xlink:href="#oI7X8YA-Lk7QqoHLRB-W_pad-29" x="3714.346" y="1068.087"/><path d="M 3680.032 1110.973 3717.492 1110.973 3717.492 1098.501 3680.032 1098.501 3680.032 1110.973"/><use xlink:href="#oI7X8YA-Lk7QqoHLRB-W_pad-22" x="3681.568" y="1104.737"/><use xlink:href="#oI7X8YA-Lk7QqoHLRB-W_pad-20" x="3715.919" y="1104.737"/><path d="M 3675.349 1092.254 3712.809 1092.254 3712.809 1081.333 3675.349 1081.333 3675.349 1092.254"/><use xlink:href="#oI7X8YA-Lk7QqoHLRB-W_pad-30" x="3676.886" y="1088.356"/><path d="M 3675.349 1071.985 3712.809 1071.985 3712.809 1061.064 3675.349 1061.064 3675.349 1071.985"/><path d="M 3171.468 1110.973 3215.147 1071.985 3213.611 1059.492 3207.319 1062.615 3171.468 1093.827 3171.468 1110.973"/><path d="M 3559.896 1103.175 3572.407 1103.175 3572.407 1065.738 3559.896 1065.738 3559.896 1103.175"/><use xlink:href="#oI7X8YA-Lk7QqoHLRB-W_pad-20" x="3566.152" y="1104.737"/><use xlink:href="#oI7X8YA-Lk7QqoHLRB-W_pad-21" x="3566.152" y="1065.738"/><path d="M 3600.429 1103.175 3612.94 1103.175 3612.94 1065.738 3600.429 1065.738 3600.429 1103.175"/><use xlink:href="#oI7X8YA-Lk7QqoHLRB-W_pad-20" x="3606.685" y="1104.737"/><use xlink:href="#oI7X8YA-Lk7QqoHLRB-W_pad-21" x="3606.685" y="1065.738"/><path d="M 3566.115 1110.973 3609.794 1071.985 3608.258 1059.492 3602.039 1062.615 3566.115 1093.827 3566.115 1110.973"/><path d="M 3233.877 1110.973 3271.264 1110.973 3271.264 1098.501 3233.877 1098.501 3233.877 1110.973"/><use xlink:href="#oI7X8YA-Lk7QqoHLRB-W_pad-22" x="3235.414" y="1104.737"/><use xlink:href="#oI7X8YA-Lk7QqoHLRB-W_pad-22" x="3269.728" y="1104.737"/><path d="M 3229.195 1092.254 3266.655 1092.254 3266.655 1081.333 3229.195 1081.333 3229.195 1092.254"/><use xlink:href="#oI7X8YA-Lk7QqoHLRB-W_pad-30" x="3230.731" y="1088.356"/><use xlink:href="#oI7X8YA-Lk7QqoHLRB-W_pad-31" x="3675.349" y="1066.525"/><path d="M 3229.195 1071.985 3266.655 1071.985 3266.655 1061.064 3229.195 1061.064 3229.195 1071.985"/><use xlink:href="#oI7X8YA-Lk7QqoHLRB-W_pad-31" x="3229.195" y="1066.525"/><use xlink:href="#oI7X8YA-Lk7QqoHLRB-W_pad-22" x="3265.045" y="1067.3"/><use xlink:href="#oI7X8YA-Lk7QqoHLRB-W_pad-21" x="3378.925" y="1065.738"/><path d="M 3354.013 1079.783 3374.279 1061.064 3383.644 1070.413 3371.133 1082.906 3354.013 1079.783"/><path d="M 3414.812 1059.492 3425.713 1059.492 3436.688 1067.311 3441.371 1078.21 3442.907 1090.704 3430.396 1092.254 3428.86 1079.783 3414.812 1059.492"/><path d="M 3389.863 1090.704 3389.863 1075.109 3400.765 1061.064 3417.958 1059.492 3432.006 1068.862 3424.177 1073.536 3417.958 1070.413 3408.593 1071.985 3389.863 1090.704"/><path d="M 3453.808 1110.973 3472.538 1093.827 3489.732 1109.422 3495.951 1100.052 3475.685 1079.783 3467.856 1079.783 3453.808 1093.827 3453.808 1110.973"/><path d="M 3224.512 1101.625 3236.95 1101.625 3236.95 1089.131 3224.512 1089.131 3224.512 1101.625"/><path d="M 3265.045 1082.906 3275.947 1082.906 3275.947 1068.862 3265.045 1068.862 3265.045 1082.906"/><path d="M 3509.998 1112.546 3547.385 1112.546 3547.385 1100.052 3509.998 1100.052 3509.998 1112.546"/><use xlink:href="#oI7X8YA-Lk7QqoHLRB-W_pad-23" x="3511.535" y="1106.299"/><use xlink:href="#oI7X8YA-Lk7QqoHLRB-W_pad-23" x="3545.849" y="1106.299"/><path d="M 3508.389 1092.254 3545.849 1092.254 3545.849 1079.783 3508.389 1079.783 3508.389 1092.254"/><use xlink:href="#oI7X8YA-Lk7QqoHLRB-W_pad-20" x="3509.962" y="1086.019"/><use xlink:href="#oI7X8YA-Lk7QqoHLRB-W_pad-22" x="3544.312" y="1086.019"/><path d="M 3509.998 1071.985 3547.385 1071.985 3547.385 1059.492 3509.998 1059.492 3509.998 1071.985"/><use xlink:href="#oI7X8YA-Lk7QqoHLRB-W_pad-23" x="3511.535" y="1065.738"/><use xlink:href="#oI7X8YA-Lk7QqoHLRB-W_pad-23" x="3545.849" y="1065.738"/><use xlink:href="#oI7X8YA-Lk7QqoHLRB-W_pad-20" x="3711.236" y="1067.3"/><path d="M 3670.667 1101.625 3683.105 1101.625 3683.105 1089.131 3670.667 1089.131 3670.667 1101.625"/><path d="M 3711.2 1082.906 3722.174 1082.906 3722.174 1068.862 3711.2 1068.862 3711.2 1082.906"/><path d="M 873.413 1158.401 899.931 1158.401 904.603 1127.203 923.333 1119.399 948.293 1139.689 968.561 1119.399 948.293 1094.445 956.101 1077.276 987.291 1072.594 987.291 1044.518 956.101 1041.396 948.293 1022.685 967.003 997.712 948.293 979.001 923.333 997.712 912.411 993.048 896.816 1030.489 907.738 1039.835 915.526 1050.761 915.526 1063.247 912.411 1074.155 903.046 1081.958 892.123 1086.641 879.643 1086.641 868.721 1080.398 862.491 1071.033 859.376 1058.565 862.491 1046.078 870.298 1035.153 878.086 1030.489 862.491 993.048 851.568 997.712 826.608 979.001 807.898 997.712 826.608 1024.245 818.801 1041.396 787.611 1044.518 787.611 1072.594 820.378 1075.715 826.608 1094.445 806.341 1119.399 826.608 1138.129 851.568 1119.399 870.298 1125.642 873.413 1158.401"/><use xlink:href="#oI7X8YA-Lk7QqoHLRB-W_pad-32" x="1435.911" y="1213.958"/><path d="M 1289.556 680.238 1289.556 790.524 M 1289.556 585.94 1289.556 593.673 M 1289.556 585.94 1387.61 585.94 1387.61 692.131 M 1387.61 778.696 1387.61 892.816 M 1289.556 880.274 1289.556 990.559 M 1387.61 978.666 1387.61 1092.852 M 1289.556 1080.374 1289.556 1185.85 M 1387.61 1178.832 1387.61 1185.85 1289.556 1185.85" fill="none" stroke-width="9.843"/><path d="M 3689.813 501.564 3692.698 503.023 3697.009 507.301 3697.009 477.19 M 3714.894 507.301 3710.583 505.875 3707.698 501.564 3706.272 494.401 3706.272 490.09 3707.698 482.927 3710.583 478.616 3714.894 477.19 3717.746 477.19 3722.057 478.616 3724.909 482.927 3726.368 490.09 3726.368 494.401 3724.909 501.564 3722.057 505.875 3717.746 507.301 3714.894 507.301 M 3724.909 501.564 3707.698 482.927 M 3744.254 507.301 3739.943 505.875 3737.058 501.564 3735.632 494.401 3735.632 490.09 3737.058 482.927 3739.943 478.616 3744.254 477.19 3747.106 477.19 3751.417 478.616 3754.269 482.927 3755.728 490.09 3755.728 494.401 3754.269 501.564 3751.417 505.875 3747.106 507.301 3744.254 507.301 M 3754.269 501.564 3737.058 482.927 M 3785.088 507.334 3785.088 477.19 3764.992 507.334 3764.992 477.19 M 2708.563 501.564 2711.448 503.023 2715.76 507.301 2715.76 477.19 M 2733.645 507.301 2729.334 505.875 2726.449 501.564 2725.023 494.401 2725.023 490.09 2726.449 482.927 2729.334 478.616 2733.645 477.19 2736.497 477.19 2740.808 478.616 2743.66 482.927 2745.119 490.09 2745.119 494.401 2743.66 501.564 2740.808 505.875 2736.497 507.301 2733.645 507.301 M 2743.66 501.564 2726.449 482.927 M 2763.005 507.301 2758.694 505.875 2755.809 501.564 2754.383 494.401 2754.383 490.09 2755.809 482.927 2758.694 478.616 2763.005 477.19 2765.857 477.19 2770.168 478.616 2773.019 482.927 2774.479 490.09 2774.479 494.401 2773.019 501.564 2770.168 505.875 2765.857 507.301 2763.005 507.301 M 2773.019 501.564 2755.809 482.927 M 2803.838 507.334 2803.838 477.19 2783.742 507.334 2783.742 477.19 M 1714.814 501.564 1717.699 503.023 1722.01 507.301 1722.01 477.19 M 1739.896 507.301 1735.585 505.875 1732.7 501.564 1731.274 494.401 1731.274 490.09 1732.7 482.927 1735.585 478.616 1739.896 477.19 1742.748 477.19 1747.059 478.616 1749.911 482.927 1751.37 490.09 1751.37 494.401 1749.911 501.564 1747.059 505.875 1742.748 507.301 1739.896 507.301 M 1749.911 501.564 1732.7 482.927 M 1769.255 507.301 1764.944 505.875 1762.059 501.564 1760.633 494.401 1760.633 490.09 1762.059 482.927 1764.944 478.616 1769.255 477.19 1772.107 477.19 1776.418 478.616 1779.27 482.927 1780.729 490.09 1780.729 494.401 1779.27 501.564 1776.418 505.875 1772.107 507.301 1769.255 507.301 M 1779.27 501.564 1762.059 482.927 M 1810.089 507.334 1810.089 477.19 1789.993 507.334 1789.993 477.19 M 958.563 501.637 961.448 503.096 965.76 507.374 965.76 477.263 M 983.645 507.374 979.334 505.948 976.449 501.637 975.023 494.474 975.023 490.163 976.449 483 979.334 478.689 983.645 477.263 986.497 477.263 990.808 478.689 993.66 483 995.119 490.163 995.119 494.474 993.66 501.637 990.808 505.948 986.497 507.374 983.645 507.374 M 993.66 501.637 976.449 483 M 1013.005 507.374 1008.694 505.948 1005.809 501.637 1004.383 494.474 1004.383 490.163 1005.809 483 1008.694 478.689 1013.005 477.263 1015.857 477.263 1020.168 478.689 1023.019 483 1024.479 490.163 1024.479 494.474 1023.019 501.637 1020.168 505.948 1015.857 507.374 1013.005 507.374 M 1023.019 501.637 1005.809 483 M 1053.838 507.407 1053.838 477.263 1033.742 507.407 1033.742 477.263 M 3591.994 501.564 3594.879 503.023 3599.19 507.301 3599.19 477.19 M 3617.076 507.301 3612.765 505.875 3609.879 501.564 3608.453 494.401 3608.453 490.09 3609.879 482.927 3612.765 478.616 3617.076 477.19 3619.927 477.19 3624.238 478.616 3627.09 482.927 3628.549 490.09 3628.549 494.401 3627.09 501.564 3624.238 505.875 3619.927 507.301 3617.076 507.301 M 3627.09 501.564 3609.879 482.927 M 3637.813 507.334 3637.813 477.19 M 3657.909 507.334 3637.813 487.238 M 3644.976 494.434 3657.909 477.19 M 2610.743 501.564 2613.628 503.023 2617.939 507.301 2617.939 477.19 M 2635.825 507.301 2631.514 505.875 2628.629 501.564 2627.203 494.401 2627.203 490.09 2628.629 482.927 2631.514 478.616 2635.825 477.19 2638.677 477.19 2642.988 478.616 2645.84 482.927 2647.299 490.09 2647.299 494.401 2645.84 501.564 2642.988 505.875 2638.677 507.301 2635.825 507.301 M 2645.84 501.564 2628.629 482.927 M 2656.562 507.334 2656.562 477.19 M 2676.658 507.334 2656.562 487.238 M 2663.725 494.434 2676.658 477.19 M 1618.372 501.564 1621.257 503.023 1625.568 507.301 1625.568 477.19 M 1643.453 507.301 1639.142 505.875 1636.257 501.564 1634.831 494.401 1634.831 490.09 1636.257 482.927 1639.142 478.616 1643.453 477.19 1646.305 477.19 1650.616 478.616 1653.468 482.927 1654.927 490.09 1654.927 494.401 1653.468 501.564 1650.616 505.875 1646.305 507.301 1643.453 507.301 M 1653.468 501.564 1636.257 482.927 M 1664.191 507.334 1664.191 477.19 M 1684.287 507.334 1664.191 487.238 M 1671.354 494.434 1684.287 477.19 M 1079.494 499.374 1082.379 500.833 1086.69 505.111 1086.69 475 M 1104.576 505.111 1100.265 503.685 1097.379 499.374 1095.953 492.211 1095.953 487.9 1097.379 480.737 1100.265 476.426 1104.576 475 1107.427 475 1111.738 476.426 1114.59 480.737 1116.049 487.9 1116.049 492.211 1114.59 499.374 1111.738 503.685 1107.427 505.111 1104.576 505.111 M 1114.59 499.374 1097.379 480.737 M 1125.313 505.144 1125.313 475 M 1145.409 505.144 1125.313 485.048 M 1132.476 492.244 1145.409 475" fill="none" stroke-width="4.632"/><path d="M 1499.263 747.927 1499.263 750.779 1502.115 756.549 1504.966 759.401 1510.737 762.253 1522.211 762.253 1527.914 759.401 1530.766 756.549 1533.684 750.779 1533.684 745.075 1530.766 739.305 1525.062 730.749 1496.344 702.031 1536.536 702.031 M 1499.86 1138.394 1533.022 1138.394 M 1516.408 1064.228 1516.408 1012.562 M 1490.608 1038.362 1542.274 1038.362 M 1523.637 908.283 1523.637 968.505 1494.919 928.379 1537.963 928.379 M 1502.115 868.507 1533.618 868.507 1516.44 845.559 1525.062 845.559 1530.766 842.707 1533.618 839.855 1536.536 831.233 1536.536 825.53 1533.618 816.907 1527.914 811.137 1519.292 808.285 1510.67 808.285 1502.115 811.137 1499.263 814.056 1496.344 819.759 M 1502.995 644.531 1508.765 647.449 1517.387 656.005 1517.387 595.783 M 759.363 738.281 765.133 741.199 773.755 749.755 773.755 689.533" fill="none" stroke-width="9.264"/><path d="M 3119.106 910.419 3121.007 908.517 3122.953 910.419 3121.007 912.364 3119.106 910.419 M 3121.007 897.021 3121.007 870.227 M 3135.304 897.021 3135.304 870.227 M 3135.304 889.372 3141.052 895.12 3144.899 897.021 3150.603 897.021 3154.45 895.12 3156.351 889.372 3156.351 870.227 M 3189.749 891.273 3187.848 895.12 3182.1 897.021 3176.352 897.021 3170.604 895.12 3168.702 891.273 3170.604 887.471 3174.45 885.525 3184.001 883.624 3187.848 881.723 3189.749 877.876 3189.749 875.975 3187.848 872.172 3182.1 870.227 3176.352 870.227 3170.604 872.172 3168.702 875.975 M 3207.848 910.419 3207.848 877.876 3209.75 872.172 3213.597 870.227 3217.399 870.227 M 3202.1 897.021 3215.498 897.021 M 3229.75 897.021 3229.75 870.227 M 3229.75 885.525 3231.696 891.273 3235.498 895.12 3239.345 897.021 3245.093 897.021 M 3257.445 897.021 3257.445 877.876 3259.346 872.172 3263.193 870.227 3268.941 870.227 3272.743 872.172 3278.491 877.876 M 3278.491 897.021 3278.491 870.227 M 3290.843 897.021 3290.843 870.227 M 3290.843 889.372 3296.591 895.12 3300.438 897.021 3306.141 897.021 3309.988 895.12 3311.889 889.372 3311.889 870.227 M 3311.889 889.372 3317.637 895.12 3321.484 897.021 3327.188 897.021 3331.035 895.12 3332.98 889.372 3332.98 870.227 M 3345.332 885.525 3368.28 885.525 3368.28 889.372 3366.378 893.219 3364.477 895.12 3360.63 897.021 3354.882 897.021 3351.08 895.12 3347.233 891.273 3345.332 885.525 3345.332 881.723 3347.233 875.975 3351.08 872.172 3354.882 870.227 3360.63 870.227 3364.477 872.172 3368.28 875.975 M 3380.631 897.021 3380.631 870.227 M 3380.631 889.372 3386.379 895.12 3390.226 897.021 3395.93 897.021 3399.776 895.12 3401.678 889.372 3401.678 870.227 M 3419.777 910.419 3419.777 877.876 3421.678 872.172 3425.525 870.227 3429.328 870.227 M 3414.029 897.021 3427.426 897.021 M 3462.726 891.273 3460.824 895.12 3455.076 897.021 3449.328 897.021 3443.58 895.12 3441.679 891.273 3443.58 887.471 3447.427 885.525 3456.978 883.624 3460.824 881.723 3462.726 877.876 3462.726 875.975 3460.824 872.172 3455.076 870.227 3449.328 870.227 3443.58 872.172 3441.679 875.975 M 3476.978 874.073 3475.077 872.128 3476.978 870.227 3478.924 872.128 3476.978 874.073 M 3514.223 897.021 3514.223 870.227 M 3514.223 891.273 3510.421 895.12 3506.574 897.021 3500.87 897.021 3497.023 895.12 3493.221 891.273 3491.275 885.525 3491.275 881.723 3493.221 875.975 3497.023 872.172 3500.87 870.227 3506.574 870.227 3510.421 872.172 3514.223 875.975 M 3526.574 897.021 3526.574 870.227 M 3526.574 885.525 3528.52 891.273 3532.322 895.12 3536.169 897.021 3541.917 897.021 M 3560.017 910.419 3560.017 877.876 3561.918 872.172 3565.765 870.227 3569.567 870.227 M 3554.269 897.021 3567.666 897.021 M 3581.919 910.419 3583.82 908.517 3585.765 910.419 3583.82 912.364 3581.919 910.419 M 3583.82 897.021 3583.82 870.227 M 3621.109 891.273 3617.262 895.12 3613.415 897.021 3607.712 897.021 3603.865 895.12 3600.062 891.273 3598.117 885.525 3598.117 881.723 3600.062 875.975 3603.865 872.172 3607.712 870.227 3613.415 870.227 3617.262 872.172 3621.109 875.975 M 3656.408 897.021 3656.408 870.227 M 3656.408 891.273 3652.606 895.12 3648.759 897.021 3643.055 897.021 3639.208 895.12 3635.406 891.273 3633.46 885.525 3633.46 881.723 3635.406 875.975 3639.208 872.172 3643.055 870.227 3648.759 870.227 3652.606 872.172 3656.408 875.975 M 3670.661 874.073 3668.76 872.128 3670.661 870.227 3672.606 872.128 3670.661 874.073 M 3707.95 891.273 3704.103 895.12 3700.256 897.021 3694.553 897.021 3690.706 895.12 3686.903 891.273 3684.958 885.525 3684.958 881.723 3686.903 875.975 3690.706 872.172 3694.553 870.227 3700.256 870.227 3704.103 872.172 3707.95 875.975 M 3743.293 891.273 3739.447 895.12 3735.6 897.021 3729.896 897.021 3726.049 895.12 3722.247 891.273 3720.301 885.525 3720.301 881.723 3722.247 875.975 3726.049 872.172 3729.896 870.227 3735.6 870.227 3739.447 872.172 3743.293 875.975" fill="none" stroke-width="6.176"/><path d="M 2833.884 899.754 2865.387 899.754 2848.209 876.806 2856.831 876.806 2862.535 873.954 2865.387 871.102 2868.305 862.48 2868.305 856.776 2865.387 848.154 2859.683 842.384 2851.061 839.532 2842.439 839.532 2833.884 842.384 2831.032 845.302 2828.113 851.006 M 3969.333 683.282 3969.333 743.504 3940.615 703.378 3983.659 703.378" fill="none" stroke-width="9.264"/><path d="M 743.001 925.397 741.575 928.249 738.69 931.134 735.838 932.56 730.101 932.56 727.216 931.134 724.364 928.249 722.905 925.397 721.479 921.086 721.479 913.89 722.905 909.612 724.364 906.727 727.216 903.875 730.101 902.416 735.838 902.416 738.69 903.875 741.575 906.727 743.001 909.612 M 773.787 925.397 772.361 928.249 769.476 931.134 766.624 932.56 760.887 932.56 758.002 931.134 755.15 928.249 753.691 925.397 752.265 921.086 752.265 913.89 753.691 909.612 755.15 906.727 758.002 903.875 760.887 902.416 766.624 902.416 769.476 903.875 772.361 906.727 773.787 909.612 M 812.211 932.56 812.211 902.416 825.144 902.416 829.455 903.875 830.881 905.301 832.307 908.153 832.307 912.464 830.881 915.349 829.455 916.775 825.144 918.201 829.455 919.66 830.881 921.086 832.307 923.938 832.307 926.823 830.881 929.675 829.455 931.134 825.144 932.56 812.211 932.56 M 812.211 918.201 825.144 918.201 M 841.57 932.56 853.044 918.201 853.044 902.416 M 864.518 932.56 853.044 918.201 M 873.782 917.471 890.363 917.471 M 919.722 928.249 916.87 931.134 912.559 932.56 906.822 932.56 902.511 931.134 899.626 928.249 899.626 925.397 901.085 922.512 902.511 921.086 905.363 919.66 913.985 916.775 916.87 915.349 918.296 913.89 919.722 911.038 919.722 906.727 916.87 903.875 912.559 902.416 906.822 902.416 902.511 903.875 899.626 906.727 M 951.967 902.416 940.46 932.56 928.986 902.416 M 933.297 912.464 947.656 912.464 M 1004.75 902.416 1004.75 932.527 990.391 912.464 1011.913 912.464 M 1022.602 905.301 1021.177 903.842 1022.602 902.416 1024.062 903.842 1022.602 905.301 M 1041.947 932.527 1037.636 931.101 1034.751 926.79 1033.325 919.627 1033.325 915.316 1034.751 908.153 1037.636 903.842 1041.947 902.416 1044.799 902.416 1049.11 903.842 1051.962 908.153 1053.421 915.316 1053.421 919.627 1051.962 926.79 1049.11 931.101 1044.799 932.527 1041.947 932.527 M 1051.962 926.79 1034.751 908.153" fill="none" stroke-width="4.632"/><path d="M 2018.084 545.604 2018.084 1268.264 1673.467 786.756 2189.994 786.756 M 2154.716 1269.06 2154.716 545.604 2465.11 545.604 2568.575 580.623 2602.798 614.846 2637.021 683.291 2637.021 786.756 2602.798 855.998 2568.575 890.22 2465.11 924.443 2568.575 959.462 2602.798 993.685 2637.021 1062.131 2637.021 1131.372 2602.798 1199.818 2568.575 1234.837 2465.11 1269.06 2154.716 1269.06 M 2154.716 924.443 2465.11 924.443" fill="none" stroke-width="111.163"/><path d="M 2249.519 1174.454 2249.519 1147.66 M 2249.519 1168.706 2245.716 1172.553 2241.869 1174.454 2236.166 1174.454 2232.319 1172.553 2228.516 1168.706 2226.571 1162.958 2226.571 1159.156 2228.516 1153.408 2232.319 1149.605 2236.166 1147.66 2241.869 1147.66 2245.716 1149.605 2249.519 1153.408 M 2261.87 1187.852 2261.87 1147.66 M 2274.221 1174.454 2274.221 1134.262 M 2274.221 1168.706 2278.068 1172.509 2281.871 1174.454 2287.619 1174.454 2291.466 1172.509 2295.268 1168.706 2297.214 1162.958 2297.214 1159.112 2295.268 1153.408 2291.466 1149.561 2287.619 1147.66 2281.871 1147.66 2278.068 1149.561 2274.221 1153.408 M 2309.565 1187.852 2309.565 1147.66 M 2309.565 1166.805 2315.313 1172.553 2319.16 1174.454 2324.908 1174.454 2328.71 1172.553 2330.612 1166.805 2330.612 1147.66 M 2365.911 1174.454 2365.911 1147.66 M 2365.911 1168.706 2362.108 1172.553 2358.262 1174.454 2352.558 1174.454 2348.711 1172.553 2344.909 1168.706 2342.963 1162.958 2342.963 1159.156 2344.909 1153.408 2348.711 1149.605 2352.558 1147.66 2358.262 1147.66 2362.108 1149.605 2365.911 1153.408 M 2380.164 1151.506 2378.262 1149.561 2380.164 1147.66 2382.109 1149.561 2380.164 1151.506 M 2394.461 1180.158 2398.307 1182.104 2404.055 1187.807 2404.055 1147.66" fill="none" stroke-width="6.176"/><path d="M 2260.836 794.029 2260.836 633.261 M 2425.025 755.826 2417.42 771.037 2402.033 786.424 2386.823 794.029 2356.225 794.029 2340.838 786.424 2325.628 771.037 2317.846 755.826 2310.241 732.834 2310.241 694.455 2317.846 671.64 2325.628 656.253 2340.838 641.043 2356.225 633.261 2386.823 633.261 2402.033 641.043 2417.42 656.253 2425.025 671.64 2425.025 694.455 2386.823 694.455" fill="none" stroke-width="24.703"/><path d="M 2732.449 999.059 2732.449 556.947 2922.134 556.947 2985.363 578.347 3006.277 599.261 3027.191 641.089 3027.191 704.317 3006.277 746.632 2985.363 767.546 2922.134 788.46 2985.363 809.86 3006.277 830.774 3027.191 872.602 3027.191 914.916 3006.277 956.744 2985.363 978.145 2922.134 999.059 2732.449 999.059 M 2732.449 788.46 2922.134 788.46" fill="none" stroke-width="67.933"/><path d="M 3037.489 590.446 3037.489 547.402 3040.341 538.78 3046.111 533.076 3054.733 530.158 3060.437 530.158 3069.059 533.076 3074.829 538.78 3077.681 547.402 3077.681 590.446 M 3116.304 590.446 3116.304 530.158 M 3096.208 590.446 3136.4 590.446 M 3175.023 590.446 3175.023 530.158 M 3154.927 590.446 3195.119 590.446 M 3230.89 590.446 3225.12 587.594 3219.416 581.824 3216.498 576.12 3213.646 567.498 3213.646 553.106 3216.498 544.55 3219.416 538.78 3225.12 533.076 3230.89 530.158 3242.364 530.158 3248.068 533.076 3253.838 538.78 3256.69 544.55 3259.542 553.106 3259.542 567.498 3256.69 576.12 3253.838 581.824 3248.068 587.594 3242.364 590.446 3230.89 590.446 M 3318.261 590.446 3318.261 530.158 3278.069 590.446 3278.069 530.158 M 1856.032 897.928 1856.032 900.78 1858.884 906.55 1861.735 909.402 1867.506 912.254 1878.98 912.254 1884.683 909.402 1887.535 906.55 1890.453 900.78 1890.453 895.076 1887.535 889.306 1881.831 880.75 1853.113 852.032 1893.305 852.032" fill="none" stroke-width="9.264"/></g><g id="Z0GxB2qX4yqzEFLRmBaN_top_soldermask"><use xlink:href="#rpfL5j4KimTrfpQhwVCW_pad-48" x="3737.45" y="668.627"/><use xlink:href="#rpfL5j4KimTrfpQhwVCW_pad-48" x="3737.45" y="558.391"/><use xlink:href="#rpfL5j4KimTrfpQhwVCW_pad-48" x="2756.201" y="668.627"/><use xlink:href="#rpfL5j4KimTrfpQhwVCW_pad-48" x="2756.201" y="558.391"/><use xlink:href="#rpfL5j4KimTrfpQhwVCW_pad-48" x="1762.451" y="668.627"/><use xlink:href="#rpfL5j4KimTrfpQhwVCW_pad-48" x="1762.451" y="558.391"/><use xlink:href="#rpfL5j4KimTrfpQhwVCW_pad-48" x="1006.201" y="668.701"/><use xlink:href="#rpfL5j4KimTrfpQhwVCW_pad-48" x="1006.201" y="558.465"/><use xlink:href="#rpfL5j4KimTrfpQhwVCW_pad-38" x="511.811" y="511.811"/><use xlink:href="#rpfL5j4KimTrfpQhwVCW_pad-38" x="511.811" y="1259.843"/><use xlink:href="#rpfL5j4KimTrfpQhwVCW_pad-38" x="4212.598" y="1259.843"/><use xlink:href="#rpfL5j4KimTrfpQhwVCW_pad-38" x="4212.598" y="511.811"/><use xlink:href="#rpfL5j4KimTrfpQhwVCW_pad-48" x="3624.951" y="558.391"/><use xlink:href="#rpfL5j4KimTrfpQhwVCW_pad-48" x="3624.951" y="668.627"/><use xlink:href="#rpfL5j4KimTrfpQhwVCW_pad-48" x="2643.701" y="558.391"/><use xlink:href="#rpfL5j4KimTrfpQhwVCW_pad-48" x="2643.701" y="668.627"/><use xlink:href="#rpfL5j4KimTrfpQhwVCW_pad-48" x="1651.329" y="558.391"/><use xlink:href="#rpfL5j4KimTrfpQhwVCW_pad-48" x="1651.329" y="668.627"/><use xlink:href="#rpfL5j4KimTrfpQhwVCW_pad-48" x="1112.451" y="556.201"/><use xlink:href="#rpfL5j4KimTrfpQhwVCW_pad-48" x="1112.451" y="666.437"/><use xlink:href="#rpfL5j4KimTrfpQhwVCW_pad-46" x="1275.984" y="635.827"/><use xlink:href="#rpfL5j4KimTrfpQhwVCW_pad-46" x="1401.181" y="735.827"/><use xlink:href="#rpfL5j4KimTrfpQhwVCW_pad-46" x="1275.984" y="835.827"/><use xlink:href="#rpfL5j4KimTrfpQhwVCW_pad-46" x="1401.181" y="935.827"/><use xlink:href="#rpfL5j4KimTrfpQhwVCW_pad-46" x="1275.984" y="1035.827"/><use xlink:href="#rpfL5j4KimTrfpQhwVCW_pad-46" x="1401.181" y="1135.827"/><use xlink:href="#rpfL5j4KimTrfpQhwVCW_pad-44" x="3592.52" y="787.36"/><use xlink:href="#rpfL5j4KimTrfpQhwVCW_pad-44" x="3592.52" y="984.21"/><use xlink:href="#rpfL5j4KimTrfpQhwVCW_pad-44" x="4084.646" y="984.21"/><use xlink:href="#rpfL5j4KimTrfpQhwVCW_pad-44" x="4084.646" y="787.36"/><use xlink:href="#rpfL5j4KimTrfpQhwVCW_pad-39" x="3838.583" y="708.619"/><use xlink:href="#rpfL5j4KimTrfpQhwVCW_pad-39" x="3838.583" y="1062.95"/><use xlink:href="#rpfL5j4KimTrfpQhwVCW_pad-44" x="2608.268" y="787.36"/><use xlink:href="#rpfL5j4KimTrfpQhwVCW_pad-44" x="2608.268" y="984.21"/><use xlink:href="#rpfL5j4KimTrfpQhwVCW_pad-44" x="3100.394" y="984.21"/><use xlink:href="#rpfL5j4KimTrfpQhwVCW_pad-44" x="3100.394" y="787.36"/><use xlink:href="#rpfL5j4KimTrfpQhwVCW_pad-39" x="2854.331" y="708.619"/><use xlink:href="#rpfL5j4KimTrfpQhwVCW_pad-39" x="2854.331" y="1062.95"/><use xlink:href="#rpfL5j4KimTrfpQhwVCW_pad-44" x="1624.016" y="787.36"/><use xlink:href="#rpfL5j4KimTrfpQhwVCW_pad-44" x="1624.016" y="984.21"/><use xlink:href="#rpfL5j4KimTrfpQhwVCW_pad-44" x="2116.142" y="984.21"/><use xlink:href="#rpfL5j4KimTrfpQhwVCW_pad-44" x="2116.142" y="787.36"/><use xlink:href="#rpfL5j4KimTrfpQhwVCW_pad-39" x="1870.079" y="708.619"/><use xlink:href="#rpfL5j4KimTrfpQhwVCW_pad-39" x="1870.079" y="1062.95"/><use xlink:href="#rpfL5j4KimTrfpQhwVCW_pad-44" x="639.764" y="787.36"/><use xlink:href="#rpfL5j4KimTrfpQhwVCW_pad-44" x="639.764" y="984.21"/><use xlink:href="#rpfL5j4KimTrfpQhwVCW_pad-44" x="1131.89" y="984.21"/><use xlink:href="#rpfL5j4KimTrfpQhwVCW_pad-44" x="1131.89" y="787.36"/><use xlink:href="#rpfL5j4KimTrfpQhwVCW_pad-39" x="885.827" y="708.619"/><use xlink:href="#rpfL5j4KimTrfpQhwVCW_pad-39" x="885.827" y="1062.95"/></g><g id="Z0GxB2qX4yqzEFLRmBaN_top_drill1"><use xlink:href="#oW3_Uyx9awPHIyI93l-C_pad-1" x="3737.5" y="787.4"/><use xlink:href="#oW3_Uyx9awPHIyI93l-C_pad-1" x="1006.2" y="787.4"/><use xlink:href="#oW3_Uyx9awPHIyI93l-C_pad-2" x="3592.5" y="787.4"/><use xlink:href="#oW3_Uyx9awPHIyI93l-C_pad-2" x="3592.5" y="984.2"/><use xlink:href="#oW3_Uyx9awPHIyI93l-C_pad-2" x="4084.6" y="984.2"/><use xlink:href="#oW3_Uyx9awPHIyI93l-C_pad-2" x="4084.6" y="787.4"/><use xlink:href="#oW3_Uyx9awPHIyI93l-C_pad-2" x="3100.4" y="787.4"/><use xlink:href="#oW3_Uyx9awPHIyI93l-C_pad-2" x="3100.4" y="984.2"/><use xlink:href="#oW3_Uyx9awPHIyI93l-C_pad-2" x="2608.3" y="984.2"/><use xlink:href="#oW3_Uyx9awPHIyI93l-C_pad-2" x="2608.3" y="787.4"/><use xlink:href="#oW3_Uyx9awPHIyI93l-C_pad-2" x="2116.1" y="787.4"/><use xlink:href="#oW3_Uyx9awPHIyI93l-C_pad-2" x="2116.1" y="984.2"/><use xlink:href="#oW3_Uyx9awPHIyI93l-C_pad-2" x="1624" y="984.2"/><use xlink:href="#oW3_Uyx9awPHIyI93l-C_pad-2" x="1624" y="787.4"/><use xlink:href="#oW3_Uyx9awPHIyI93l-C_pad-2" x="1131.9" y="787.4"/><use xlink:href="#oW3_Uyx9awPHIyI93l-C_pad-2" x="1131.9" y="984.2"/><use xlink:href="#oW3_Uyx9awPHIyI93l-C_pad-2" x="639.8" y="984.2"/><use xlink:href="#oW3_Uyx9awPHIyI93l-C_pad-2" x="639.8" y="787.4"/><use xlink:href="#oW3_Uyx9awPHIyI93l-C_pad-3" x="3838.6" y="708.6"/><use xlink:href="#oW3_Uyx9awPHIyI93l-C_pad-3" x="3838.6" y="1063"/><use xlink:href="#oW3_Uyx9awPHIyI93l-C_pad-3" x="2854.3" y="1063"/><use xlink:href="#oW3_Uyx9awPHIyI93l-C_pad-3" x="2854.3" y="708.6"/><use xlink:href="#oW3_Uyx9awPHIyI93l-C_pad-3" x="1870.1" y="708.6"/><use xlink:href="#oW3_Uyx9awPHIyI93l-C_pad-3" x="1870.1" y="1063"/><use xlink:href="#oW3_Uyx9awPHIyI93l-C_pad-3" x="885.8" y="1063"/><use xlink:href="#oW3_Uyx9awPHIyI93l-C_pad-3" x="885.8" y="708.6"/><use xlink:href="#oW3_Uyx9awPHIyI93l-C_pad-4" x="511.8" y="511.8"/><use xlink:href="#oW3_Uyx9awPHIyI93l-C_pad-4" x="511.8" y="1259.8"/><use xlink:href="#oW3_Uyx9awPHIyI93l-C_pad-4" x="4212.6" y="1259.8"/><use xlink:href="#oW3_Uyx9awPHIyI93l-C_pad-4" x="4212.6" y="511.8"/></g><clipPath id="Z0GxB2qX4yqzEFLRmBaN_top_outline"><path d="M 393.701 393.701 4330.709 393.701 4330.709 1377.953 393.701 1377.953 393.701 393.701" fill="none" stroke-width="5.512"/></clipPath><mask id="Z0GxB2qX4yqzEFLRmBaN_top_mech-mask"><g fill="#000" stroke="#000"><rect x="393.701" y="393.701" width="3937.008" height="984.252" fill="#fff"/><use xlink:href="#Z0GxB2qX4yqzEFLRmBaN_top_drill1"/></g></mask><mask id="Z0GxB2qX4yqzEFLRmBaN_top_cf-mask"><g fill="#fff" stroke="#fff"><use xlink:href="#Z0GxB2qX4yqzEFLRmBaN_top_soldermask"/></g></mask><mask id="Z0GxB2qX4yqzEFLRmBaN_top_sm-mask"><g fill="#000" stroke="#000"><rect x="393.701" y="393.701" width="3937.008" height="984.252" fill="#fff"/><use xlink:href="#Z0GxB2qX4yqzEFLRmBaN_top_soldermask"/></g></mask></defs><g transform="translate(0,1771.654) scale(1,-1)"><g mask="url(#Z0GxB2qX4yqzEFLRmBaN_top_mech-mask)" clip-path="url(#Z0GxB2qX4yqzEFLRmBaN_top_outline)"><rect x="393.701" y="393.701" width="3937.008" height="984.252" fill="currentColor" class="Z0GxB2qX4yqzEFLRmBaN_fr4"/><use xlink:href="#Z0GxB2qX4yqzEFLRmBaN_top_copper" fill="currentColor" stroke="currentColor" class="Z0GxB2qX4yqzEFLRmBaN_cu"/><use xlink:href="#Z0GxB2qX4yqzEFLRmBaN_top_copper" fill="currentColor" stroke="currentColor" class="Z0GxB2qX4yqzEFLRmBaN_cf" mask="url(#Z0GxB2qX4yqzEFLRmBaN_top_cf-mask)"/><g mask="url(#Z0GxB2qX4yqzEFLRmBaN_top_sm-mask)"><rect x="393.701" y="393.701" width="3937.008" height="984.252" fill="currentColor" class="Z0GxB2qX4yqzEFLRmBaN_sm"/><use xlink:href="#Z0GxB2qX4yqzEFLRmBaN_top_silkscreen" fill="currentColor" stroke="currentColor" class="Z0GxB2qX4yqzEFLRmBaN_ss"/></g></g></g></svg>