<svg version="1.1" xmlns="http://www.w3.org/2000/svg" xmlns:xlink="http://www.w3.org/1999/xlink" stroke-linecap="round" stroke-linejoin="round" stroke-width="0" fill-rule="evenodd" width="3.8188969999999998in" height="0.8661420000000001in" viewBox="452.756 452.756 3818.897 866.142" id="rpfL5j4KimTrfpQhwVCW"><defs><rect x="-39.37" y="-35.433" width="78.74" height="70.866" id="rpfL5j4KimTrfpQhwVCW_pad-48"/><circle cx="0" cy="0" r="59.055" id="rpfL5j4KimTrfpQhwVCW_pad-38"/><rect x="-66.5355" y="-28.937" width="133.071" height="57.874" id="rpfL5j4KimTrfpQhwVCW_pad-46"/><circle cx="0" cy="0" r="46.437" id="rpfL5j4KimTrfpQhwVCW_pad-44"/><circle cx="0" cy="0" r="35.433" id="rpfL5j4KimTrfpQhwVCW_pad-39"/></defs><g transform="translate(0,1771.654) scale(1,-1)" fill="currentColor" stroke="currentColor"><use xlink:href="#rpfL5j4KimTrfpQhwVCW_pad-48" x="3737.45" y="668.627"/><use xlink:href="#rpfL5j4KimTrfpQhwVCW_pad-48" x="3737.45" y="558.391"/><use xlink:href="#rpfL5j4KimTrfpQhwVCW_pad-48" x="2756.201" y="668.627"/><use xlink:href="#rpfL5j4KimTrfpQhwVCW_pad-48" x="2756.201" y="558.391"/><use xlink:href="#rpfL5j4KimTrfpQhwVCW_pad-48" x="1762.451" y="668.627"/><use xlink:href="#rpfL5j4KimTrfpQhwVCW_pad-48" x="1762.451" y="558.391"/><use xlink:href="#rpfL5j4KimTrfpQhwVCW_pad-48" x="1006.201" y="668.701"/><use xlink:href="#rpfL5j4KimTrfpQhwVCW_pad-48" x="1006.201" y="558.465"/><use xlink:href="#rpfL5j4KimTrfpQhwVCW_pad-38" x="511.811" y="511.811"/><use xlink:href="#rpfL5j4KimTrfpQhwVCW_pad-38" x="511.811" y="1259.843"/><use xlink:href="#rpfL5j4KimTrfpQhwVCW_pad-38" x="4212.598" y="1259.843"/><use xlink:href="#rpfL5j4KimTrfpQhwVCW_pad-38" x="4212.598" y="511.811"/><use xlink:href="#rpfL5j4KimTrfpQhwVCW_pad-48" x="3624.951" y="558.391"/><use xlink:href="#rpfL5j4KimTrfpQhwVCW_pad-48" x="3624.951" y="668.627"/><use xlink:href="#rpfL5j4KimTrfpQhwVCW_pad-48" x="2643.701" y="558.391"/><use xlink:href="#rpfL5j4KimTrfpQhwVCW_pad-48" x="2643.701" y="668.627"/><use xlink:href="#rpfL5j4KimTrfpQhwVCW_pad-48" x="1651.329" y="558.391"/><use xlink:href="#rpfL5j4KimTrfpQhwVCW_pad-48" x="1651.329" y="668.627"/><use xlink:href="#rpfL5j4KimTrfpQhwVCW_pad-48" x="1112.451" y="556.201"/><use xlink:href="#rpfL5j4KimTrfpQhwVCW_pad-48" x="1112.451" y="666.437"/><use xlink:href="#rpfL5j4KimTrfpQhwVCW_pad-46" x="1275.984" y="635.827"/><use xlink:href="#rpfL5j4KimTrfpQhwVCW_pad-46" x="1401.181" y="735.827"/><use xlink:href="#rpfL5j4KimTrfpQhwVCW_pad-46" x="1275.984" y="835.827"/><use xlink:href="#rpfL5j4KimTrfpQhwVCW_pad-46" x="1401.181" y="935.827"/><use xlink:href="#rpfL5j4KimTrfpQhwVCW_pad-46" x="1275.984" y="1035.827"/><use xlink:href="#rpfL5j4KimTrfpQhwVCW_pad-46" x="1401.181" y="1135.827"/><use xlink:href="#rpfL5j4KimTrfpQhwVCW_pad-44" x="3592.52" y="787.36"/><use xlink:href="#rpfL5j4KimTrfpQhwVCW_pad-44" x="3592.52" y="984.21"/><use xlink:href="#rpfL5j4KimTrfpQhwVCW_pad-44" x="4084.646" y="984.21"/><use xlink:href="#rpfL5j4KimTrfpQhwVCW_pad-44" x="4084.646" y="787.36"/><use xlink:href="#rpfL5j4KimTrfpQhwVCW_pad-39" x="3838.583" y="708.619"/><use xlink:href="#rpfL5j4KimTrfpQhwVCW_pad-39" x="3838.583" y="1062.95"/><use xlink:href="#rpfL5j4KimTrfpQhwVCW_pad-44" x="2608.268" y="787.36"/><use xlink:href="#rpfL5j4KimTrfpQhwVCW_pad-44" x="2608.268" y="984.21"/><use xlink:href="#rpfL5j4KimTrfpQhwVCW_pad-44" x="3100.394" y="984.21"/><use xlink:href="#rpfL5j4KimTrfpQhwVCW_pad-44" x="3100.394" y="787.36"/><use xlink:href="#rpfL5j4KimTrfpQhwVCW_pad-39" x="2854.331" y="708.619"/><use xlink:href="#rpfL5j4KimTrfpQhwVCW_pad-39" x="2854.331" y="1062.95"/><use xlink:href="#rpfL5j4KimTrfpQhwVCW_pad-44" x="1624.016" y="787.36"/><use xlink:href="#rpfL5j4KimTrfpQhwVCW_pad-44" x="1624.016" y="984.21"/><use xlink:href="#rpfL5j4KimTrfpQhwVCW_pad-44" x="2116.142" y="984.21"/><use xlink:href="#rpfL5j4KimTrfpQhwVCW_pad-44" x="2116.142" y="787.36"/><use xlink:href="#rpfL5j4KimTrfpQhwVCW_pad-39" x="1870.079" y="708.619"/><use xlink:href="#rpfL5j4KimTrfpQhwVCW_pad-39" x="1870.079" y="1062.95"/><use xlink:href="#rpfL5j4KimTrfpQhwVCW_pad-44" x="639.764" y="787.36"/><use xlink:href="#rpfL5j4KimTrfpQhwVCW_pad-44" x="639.764" y="984.21"/><use xlink:href="#rpfL5j4KimTrfpQhwVCW_pad-44" x="1131.89" y="984.21"/><use xlink:href="#rpfL5j4KimTrfpQhwVCW_pad-44" x="1131.89" y="787.36"/><use xlink:href="#rpfL5j4KimTrfpQhwVCW_pad-39" x="885.827" y="708.619"/><use xlink:href="#rpfL5j4KimTrfpQhwVCW_pad-39" x="885.827" y="1062.95"/></g></svg>