<svg version="1.1" xmlns="http://www.w3.org/2000/svg" xmlns:xlink="http://www.w3.org/1999/xlink" stroke-linecap="round" stroke-linejoin="round" stroke-width="0" fill-rule="evenodd" width="3.2691280000000003in" height="0.8519575in" viewBox="719.163 472.684 3269.128 851.9575" id="oI7X8YA-Lk7QqoHLRB-W"><defs><circle cx="0" cy="0" r="7.792" id="oI7X8YA-Lk7QqoHLRB-W_pad-18"/><circle cx="0" cy="0" r="16.3885" id="oI7X8YA-Lk7QqoHLRB-W_pad-19"/><circle cx="0" cy="0" r="6.2555" id="oI7X8YA-Lk7QqoHLRB-W_pad-20"/><circle cx="0" cy="0" r="6.2555" id="oI7X8YA-Lk7QqoHLRB-W_pad-21"/><circle cx="0" cy="0" r="6.219" id="oI7X8YA-Lk7QqoHLRB-W_pad-22"/><circle cx="0" cy="0" r="6.219" id="oI7X8YA-Lk7QqoHLRB-W_pad-23"/><circle cx="0" cy="0" r="6.987" id="oI7X8YA-Lk7QqoHLRB-W_pad-24"/><rect x="-7.792" y="-7.022" width="15.584" height="14.044" rx="7.022" ry="7.022" id="oI7X8YA-Lk7QqoHLRB-W_pad-25"/><rect x="-13.2425" y="-16.3815" width="26.485" height="32.763" rx="13.2425" ry="13.2425" id="oI7X8YA-Lk7QqoHLRB-W_pad-26"/><rect x="-3.9145" y="-3.1235" width="7.829" height="6.247" rx="3.1235" ry="3.1235" id="oI7X8YA-Lk7QqoHLRB-W_pad-27"/><circle cx="0" cy="0" r="7.0235" id="oI7X8YA-Lk7QqoHLRB-W_pad-28"/><rect x="-7.8285" y="-7.022" width="15.657" height="14.044" rx="7.022" ry="7.022" id="oI7X8YA-Lk7QqoHLRB-W_pad-29"/><rect x="-6.219" y="-7.022" width="12.438" height="14.044" rx="6.219" ry="6.219" id="oI7X8YA-Lk7QqoHLRB-W_pad-30"/><rect x="-6.219" y="-5.4605" width="12.438" height="10.921" rx="5.4605" ry="5.4605" id="oI7X8YA-Lk7QqoHLRB-W_pad-31"/><rect x="-22.335" y="-21.8685" width="44.67" height="43.737" rx="21.8685" ry="21.8685" id="oI7X8YA-Lk7QqoHLRB-W_pad-32"/></defs><g transform="translate(0,1797.3255) scale(1,-1)" fill="currentColor" stroke="currentColor"><path d="M 3782.45 709.509 3692.45 709.509 3692.45 517.509 3782.45 517.509 3782.45 709.509 M 2801.201 709.509 2711.201 709.509 2711.201 517.509 2801.201 517.509 2801.201 709.509 M 1807.451 709.509 1717.451 709.509 1717.451 517.509 1807.451 517.509 1807.451 709.509 M 1051.201 709.583 961.201 709.583 961.201 517.583 1051.201 517.583 1051.201 709.583 M 3579.951 517.509 3669.951 517.509 3669.951 709.509 3579.951 709.509 3579.951 517.509 M 2598.701 517.509 2688.701 517.509 2688.701 709.509 2598.701 709.509 2598.701 517.509 M 1606.329 517.509 1696.329 517.509 1696.329 709.509 1606.329 709.509 1606.329 517.509 M 1067.451 515.319 1157.451 515.319 1157.451 707.319 1067.451 707.319 1067.451 515.319" fill="none" stroke-width="9.843"/><use xlink:href="#oI7X8YA-Lk7QqoHLRB-W_pad-18" x="3232.304" y="1103.175"/><path d="M 3065.381 1132.815 3149.739 1276.581 3215.367 1132.815 3065.381 1132.815"/><path d="M 3229.195 1270.09 3288.458 1270.09 3296.286 1268.54 3307.188 1263.866 3315.016 1259.192 3322.772 1252.945 3327.454 1246.698 3332.137 1237.35 3333.673 1229.53 3335.283 1218.631 3333.673 1209.261 3328.991 1198.34 3322.772 1192.093 3315.016 1185.869 3305.651 1181.172 3297.823 1178.071 3346.184 1132.815 3229.195 1132.815 3229.195 1270.09"/><path d="M 3327.454 1270.09 3471.002 1270.09 3450.736 1231.103 3422.641 1226.429 3413.276 1134.387 3386.717 1134.387 3377.352 1226.429 3349.33 1231.103 3327.454 1270.09"/><path d="M 3485.05 1212.384 3505.316 1212.384 3525.582 1132.815 3466.32 1132.815 3485.05 1212.384"/><path d="M 3642.572 1159.331 3573.944 1196.789 3642.572 1232.654 3633.207 1243.574 3623.842 1249.821 3611.404 1256.068 3598.893 1259.192 3584.845 1259.192 3572.407 1256.068 3559.896 1251.372 3548.995 1243.574 3539.63 1232.654 3533.411 1221.733 3530.265 1209.261 3528.728 1196.789 3530.265 1182.745 3533.411 1170.251 3541.166 1157.78 3550.531 1148.432 3561.433 1140.612 3573.944 1135.938 3584.845 1132.815 3598.893 1132.815 3611.404 1135.938 3625.451 1142.185 3642.572 1159.331"/><path d="M 3644.108 1134.387 3708.127 1279.461 3797.021 1132.815 3644.108 1134.387"/><use xlink:href="#oI7X8YA-Lk7QqoHLRB-W_pad-19" x="3495.146" y="1255.282"/><path d="M 3148.056 1103.175 3160.567 1103.175 3160.567 1065.738 3148.056 1065.738 3148.056 1103.175"/><use xlink:href="#oI7X8YA-Lk7QqoHLRB-W_pad-20" x="3154.311" y="1104.737"/><use xlink:href="#oI7X8YA-Lk7QqoHLRB-W_pad-21" x="3154.311" y="1065.738"/><path d="M 3165.249 1103.175 3177.687 1103.175 3177.687 1065.738 3165.249 1065.738 3165.249 1103.175"/><use xlink:href="#oI7X8YA-Lk7QqoHLRB-W_pad-22" x="3171.468" y="1104.737"/><use xlink:href="#oI7X8YA-Lk7QqoHLRB-W_pad-23" x="3171.468" y="1065.738"/><path d="M 3205.782 1103.175 3218.293 1103.175 3218.293 1065.738 3205.782 1065.738 3205.782 1103.175"/><use xlink:href="#oI7X8YA-Lk7QqoHLRB-W_pad-20" x="3212.038" y="1104.737"/><use xlink:href="#oI7X8YA-Lk7QqoHLRB-W_pad-21" x="3212.038" y="1065.738"/><path d="M 3297.823 1101.625 3310.334 1101.625 3310.334 1064.188 3297.823 1064.188 3297.823 1101.625"/><use xlink:href="#oI7X8YA-Lk7QqoHLRB-W_pad-20" x="3304.078" y="1103.186"/><use xlink:href="#oI7X8YA-Lk7QqoHLRB-W_pad-20" x="3304.078" y="1064.177"/><use xlink:href="#oI7X8YA-Lk7QqoHLRB-W_pad-24" x="3268.96" y="1085.232"/><use xlink:href="#oI7X8YA-Lk7QqoHLRB-W_pad-25" x="3268.155" y="1068.087"/><use xlink:href="#oI7X8YA-Lk7QqoHLRB-W_pad-18" x="3678.459" y="1103.175"/><path d="M 3285.312 1110.973 3322.772 1110.973 3322.772 1098.501 3285.312 1098.501 3285.312 1110.973"/><use xlink:href="#oI7X8YA-Lk7QqoHLRB-W_pad-20" x="3286.885" y="1104.737"/><use xlink:href="#oI7X8YA-Lk7QqoHLRB-W_pad-22" x="3321.235" y="1104.737"/><path d="M 3335.283 1103.175 3347.721 1103.175 3347.721 1065.738 3335.283 1065.738 3335.283 1103.175"/><use xlink:href="#oI7X8YA-Lk7QqoHLRB-W_pad-22" x="3341.502" y="1104.737"/><use xlink:href="#oI7X8YA-Lk7QqoHLRB-W_pad-23" x="3341.502" y="1065.738"/><path d="M 3389.863 1103.175 3402.374 1103.175 3402.374 1084.457 3389.863 1084.457 3389.863 1103.175"/><use xlink:href="#oI7X8YA-Lk7QqoHLRB-W_pad-20" x="3396.119" y="1104.737"/><path d="M 3341.502 1110.973 3375.816 1110.973 3375.816 1078.21 3341.502 1078.21 3341.502 1110.973"/><path d="M 3430.396 1103.175 3442.907 1103.175 3442.907 1089.131 3430.396 1089.131 3430.396 1103.175"/><use xlink:href="#oI7X8YA-Lk7QqoHLRB-W_pad-20" x="3436.652" y="1104.737"/><use xlink:href="#oI7X8YA-Lk7QqoHLRB-W_pad-26" x="3373.474" y="1094.591"/><path d="M 3636.353 1101.625 3648.791 1101.625 3648.791 1064.188 3636.353 1064.188 3636.353 1101.625"/><use xlink:href="#oI7X8YA-Lk7QqoHLRB-W_pad-22" x="3642.572" y="1103.186"/><use xlink:href="#oI7X8YA-Lk7QqoHLRB-W_pad-22" x="3642.572" y="1064.177"/><path d="M 3623.842 1110.973 3661.302 1110.973 3661.302 1098.501 3623.842 1098.501 3623.842 1110.973"/><use xlink:href="#oI7X8YA-Lk7QqoHLRB-W_pad-20" x="3625.415" y="1104.737"/><use xlink:href="#oI7X8YA-Lk7QqoHLRB-W_pad-20" x="3659.729" y="1104.737"/><path d="M 3503.706 1103.175 3516.217 1103.175 3516.217 1065.738 3503.706 1065.738 3503.706 1103.175"/><use xlink:href="#oI7X8YA-Lk7QqoHLRB-W_pad-20" x="3509.962" y="1104.737"/><use xlink:href="#oI7X8YA-Lk7QqoHLRB-W_pad-21" x="3509.962" y="1065.738"/><path d="M 3486.586 1103.175 3499.097 1103.175 3499.097 1065.738 3486.586 1065.738 3486.586 1103.175"/><use xlink:href="#oI7X8YA-Lk7QqoHLRB-W_pad-20" x="3492.841" y="1104.737"/><use xlink:href="#oI7X8YA-Lk7QqoHLRB-W_pad-21" x="3492.841" y="1065.738"/><path d="M 3446.053 1103.175 3458.491 1103.175 3458.491 1065.738 3446.053 1065.738 3446.053 1103.175"/><use xlink:href="#oI7X8YA-Lk7QqoHLRB-W_pad-22" x="3452.272" y="1104.737"/><use xlink:href="#oI7X8YA-Lk7QqoHLRB-W_pad-23" x="3452.272" y="1065.738"/><path d="M 3393.009 1087.58 3402.374 1087.58 3402.374 1078.21 3393.009 1078.21 3393.009 1087.58"/><use xlink:href="#oI7X8YA-Lk7QqoHLRB-W_pad-27" x="3471.77" y="1079.783"/><use xlink:href="#oI7X8YA-Lk7QqoHLRB-W_pad-28" x="3715.15" y="1085.232"/><use xlink:href="#oI7X8YA-Lk7QqoHLRB-W_pad-29" x="3714.346" y="1068.087"/><path d="M 3680.032 1110.973 3717.492 1110.973 3717.492 1098.501 3680.032 1098.501 3680.032 1110.973"/><use xlink:href="#oI7X8YA-Lk7QqoHLRB-W_pad-22" x="3681.568" y="1104.737"/><use xlink:href="#oI7X8YA-Lk7QqoHLRB-W_pad-20" x="3715.919" y="1104.737"/><path d="M 3675.349 1092.254 3712.809 1092.254 3712.809 1081.333 3675.349 1081.333 3675.349 1092.254"/><use xlink:href="#oI7X8YA-Lk7QqoHLRB-W_pad-30" x="3676.886" y="1088.356"/><path d="M 3675.349 1071.985 3712.809 1071.985 3712.809 1061.064 3675.349 1061.064 3675.349 1071.985"/><path d="M 3171.468 1110.973 3215.147 1071.985 3213.611 1059.492 3207.319 1062.615 3171.468 1093.827 3171.468 1110.973"/><path d="M 3559.896 1103.175 3572.407 1103.175 3572.407 1065.738 3559.896 1065.738 3559.896 1103.175"/><use xlink:href="#oI7X8YA-Lk7QqoHLRB-W_pad-20" x="3566.152" y="1104.737"/><use xlink:href="#oI7X8YA-Lk7QqoHLRB-W_pad-21" x="3566.152" y="1065.738"/><path d="M 3600.429 1103.175 3612.94 1103.175 3612.94 1065.738 3600.429 1065.738 3600.429 1103.175"/><use xlink:href="#oI7X8YA-Lk7QqoHLRB-W_pad-20" x="3606.685" y="1104.737"/><use xlink:href="#oI7X8YA-Lk7QqoHLRB-W_pad-21" x="3606.685" y="1065.738"/><path d="M 3566.115 1110.973 3609.794 1071.985 3608.258 1059.492 3602.039 1062.615 3566.115 1093.827 3566.115 1110.973"/><path d="M 3233.877 1110.973 3271.264 1110.973 3271.264 1098.501 3233.877 1098.501 3233.877 1110.973"/><use xlink:href="#oI7X8YA-Lk7QqoHLRB-W_pad-22" x="3235.414" y="1104.737"/><use xlink:href="#oI7X8YA-Lk7QqoHLRB-W_pad-22" x="3269.728" y="1104.737"/><path d="M 3229.195 1092.254 3266.655 1092.254 3266.655 1081.333 3229.195 1081.333 3229.195 1092.254"/><use xlink:href="#oI7X8YA-Lk7QqoHLRB-W_pad-30" x="3230.731" y="1088.356"/><use xlink:href="#oI7X8YA-Lk7QqoHLRB-W_pad-31" x="3675.349" y="1066.525"/><path d="M 3229.195 1071.985 3266.655 1071.985 3266.655 1061.064 3229.195 1061.064 3229.195 1071.985"/><use xlink:href="#oI7X8YA-Lk7QqoHLRB-W_pad-31" x="3229.195" y="1066.525"/><use xlink:href="#oI7X8YA-Lk7QqoHLRB-W_pad-22" x="3265.045" y="1067.3"/><use xlink:href="#oI7X8YA-Lk7QqoHLRB-W_pad-21" x="3378.925" y="1065.738"/><path d="M 3354.013 1079.783 3374.279 1061.064 3383.644 1070.413 3371.133 1082.906 3354.013 1079.783"/><path d="M 3414.812 1059.492 3425.713 1059.492 3436.688 1067.311 3441.371 1078.21 3442.907 1090.704 3430.396 1092.254 3428.86 1079.783 3414.812 1059.492"/><path d="M 3389.863 1090.704 3389.863 1075.109 3400.765 1061.064 3417.958 1059.492 3432.006 1068.862 3424.177 1073.536 3417.958 1070.413 3408.593 1071.985 3389.863 1090.704"/><path d="M 3453.808 1110.973 3472.538 1093.827 3489.732 1109.422 3495.951 1100.052 3475.685 1079.783 3467.856 1079.783 3453.808 1093.827 3453.808 1110.973"/><path d="M 3224.512 1101.625 3236.95 1101.625 3236.95 1089.131 3224.512 1089.131 3224.512 1101.625"/><path d="M 3265.045 1082.906 3275.947 1082.906 3275.947 1068.862 3265.045 1068.862 3265.045 1082.906"/><path d="M 3509.998 1112.546 3547.385 1112.546 3547.385 1100.052 3509.998 1100.052 3509.998 1112.546"/><use xlink:href="#oI7X8YA-Lk7QqoHLRB-W_pad-23" x="3511.535" y="1106.299"/><use xlink:href="#oI7X8YA-Lk7QqoHLRB-W_pad-23" x="3545.849" y="1106.299"/><path d="M 3508.389 1092.254 3545.849 1092.254 3545.849 1079.783 3508.389 1079.783 3508.389 1092.254"/><use xlink:href="#oI7X8YA-Lk7QqoHLRB-W_pad-20" x="3509.962" y="1086.019"/><use xlink:href="#oI7X8YA-Lk7QqoHLRB-W_pad-22" x="3544.312" y="1086.019"/><path d="M 3509.998 1071.985 3547.385 1071.985 3547.385 1059.492 3509.998 1059.492 3509.998 1071.985"/><use xlink:href="#oI7X8YA-Lk7QqoHLRB-W_pad-23" x="3511.535" y="1065.738"/><use xlink:href="#oI7X8YA-Lk7QqoHLRB-W_pad-23" x="3545.849" y="1065.738"/><use xlink:href="#oI7X8YA-Lk7QqoHLRB-W_pad-20" x="3711.236" y="1067.3"/><path d="M 3670.667 1101.625 3683.105 1101.625 3683.105 1089.131 3670.667 1089.131 3670.667 1101.625"/><path d="M 3711.2 1082.906 3722.174 1082.906 3722.174 1068.862 3711.2 1068.862 3711.2 1082.906"/><path d="M 873.413 1158.401 899.931 1158.401 904.603 1127.203 923.333 1119.399 948.293 1139.689 968.561 1119.399 948.293 1094.445 956.101 1077.276 987.291 1072.594 987.291 1044.518 956.101 1041.396 948.293 1022.685 967.003 997.712 948.293 979.001 923.333 997.712 912.411 993.048 896.816 1030.489 907.738 1039.835 915.526 1050.761 915.526 1063.247 912.411 1074.155 903.046 1081.958 892.123 1086.641 879.643 1086.641 868.721 1080.398 862.491 1071.033 859.376 1058.565 862.491 1046.078 870.298 1035.153 878.086 1030.489 862.491 993.048 851.568 997.712 826.608 979.001 807.898 997.712 826.608 1024.245 818.801 1041.396 787.611 1044.518 787.611 1072.594 820.378 1075.715 826.608 1094.445 806.341 1119.399 826.608 1138.129 851.568 1119.399 870.298 1125.642 873.413 1158.401"/><use xlink:href="#oI7X8YA-Lk7QqoHLRB-W_pad-32" x="1435.911" y="1213.958"/><path d="M 1289.556 680.238 1289.556 790.524 M 1289.556 585.94 1289.556 593.673 M 1289.556 585.94 1387.61 585.94 1387.61 692.131 M 1387.61 778.696 1387.61 892.816 M 1289.556 880.274 1289.556 990.559 M 1387.61 978.666 1387.61 1092.852 M 1289.556 1080.374 1289.556 1185.85 M 1387.61 1178.832 1387.61 1185.85 1289.556 1185.85" fill="none" stroke-width="9.843"/><path d="M 3689.813 501.564 3692.698 503.023 3697.009 507.301 3697.009 477.19 M 3714.894 507.301 3710.583 505.875 3707.698 501.564 3706.272 494.401 3706.272 490.09 3707.698 482.927 3710.583 478.616 3714.894 477.19 3717.746 477.19 3722.057 478.616 3724.909 482.927 3726.368 490.09 3726.368 494.401 3724.909 501.564 3722.057 505.875 3717.746 507.301 3714.894 507.301 M 3724.909 501.564 3707.698 482.927 M 3744.254 507.301 3739.943 505.875 3737.058 501.564 3735.632 494.401 3735.632 490.09 3737.058 482.927 3739.943 478.616 3744.254 477.19 3747.106 477.19 3751.417 478.616 3754.269 482.927 3755.728 490.09 3755.728 494.401 3754.269 501.564 3751.417 505.875 3747.106 507.301 3744.254 507.301 M 3754.269 501.564 3737.058 482.927 M 3785.088 507.334 3785.088 477.19 3764.992 507.334 3764.992 477.19 M 2708.563 501.564 2711.448 503.023 2715.76 507.301 2715.76 477.19 M 2733.645 507.301 2729.334 505.875 2726.449 501.564 2725.023 494.401 2725.023 490.09 2726.449 482.927 2729.334 478.616 2733.645 477.19 2736.497 477.19 2740.808 478.616 2743.66 482.927 2745.119 490.09 2745.119 494.401 2743.66 501.564 2740.808 505.875 2736.497 507.301 2733.645 507.301 M 2743.66 501.564 2726.449 482.927 M 2763.005 507.301 2758.694 505.875 2755.809 501.564 2754.383 494.401 2754.383 490.09 2755.809 482.927 2758.694 478.616 2763.005 477.19 2765.857 477.19 2770.168 478.616 2773.019 482.927 2774.479 490.09 2774.479 494.401 2773.019 501.564 2770.168 505.875 2765.857 507.301 2763.005 507.301 M 2773.019 501.564 2755.809 482.927 M 2803.838 507.334 2803.838 477.19 2783.742 507.334 2783.742 477.19 M 1714.814 501.564 1717.699 503.023 1722.01 507.301 1722.01 477.19 M 1739.896 507.301 1735.585 505.875 1732.7 501.564 1731.274 494.401 1731.274 490.09 1732.7 482.927 1735.585 478.616 1739.896 477.19 1742.748 477.19 1747.059 478.616 1749.911 482.927 1751.37 490.09 1751.37 494.401 1749.911 501.564 1747.059 505.875 1742.748 507.301 1739.896 507.301 M 1749.911 501.564 1732.7 482.927 M 1769.255 507.301 1764.944 505.875 1762.059 501.564 1760.633 494.401 1760.633 490.09 1762.059 482.927 1764.944 478.616 1769.255 477.19 1772.107 477.19 1776.418 478.616 1779.27 482.927 1780.729 490.09 1780.729 494.401 1779.27 501.564 1776.418 505.875 1772.107 507.301 1769.255 507.301 M 1779.27 501.564 1762.059 482.927 M 1810.089 507.334 1810.089 477.19 1789.993 507.334 1789.993 477.19 M 958.563 501.637 961.448 503.096 965.76 507.374 965.76 477.263 M 983.645 507.374 979.334 505.948 976.449 501.637 975.023 494.474 975.023 490.163 976.449 483 979.334 478.689 983.645 477.263 986.497 477.263 990.808 478.689 993.66 483 995.119 490.163 995.119 494.474 993.66 501.637 990.808 505.948 986.497 507.374 983.645 507.374 M 993.66 501.637 976.449 483 M 1013.005 507.374 1008.694 505.948 1005.809 501.637 1004.383 494.474 1004.383 490.163 1005.809 483 1008.694 478.689 1013.005 477.263 1015.857 477.263 1020.168 478.689 1023.019 483 1024.479 490.163 1024.479 494.474 1023.019 501.637 1020.168 505.948 1015.857 507.374 1013.005 507.374 M 1023.019 501.637 1005.809 483 M 1053.838 507.407 1053.838 477.263 1033.742 507.407 1033.742 477.263 M 3591.994 501.564 3594.879 503.023 3599.19 507.301 3599.19 477.19 M 3617.076 507.301 3612.765 505.875 3609.879 501.564 3608.453 494.401 3608.453 490.09 3609.879 482.927 3612.765 478.616 3617.076 477.19 3619.927 477.19 3624.238 478.616 3627.09 482.927 3628.549 490.09 3628.549 494.401 3627.09 501.564 3624.238 505.875 3619.927 507.301 3617.076 507.301 M 3627.09 501.564 3609.879 482.927 M 3637.813 507.334 3637.813 477.19 M 3657.909 507.334 3637.813 487.238 M 3644.976 494.434 3657.909 477.19 M 2610.743 501.564 2613.628 503.023 2617.939 507.301 2617.939 477.19 M 2635.825 507.301 2631.514 505.875 2628.629 501.564 2627.203 494.401 2627.203 490.09 2628.629 482.927 2631.514 478.616 2635.825 477.19 2638.677 477.19 2642.988 478.616 2645.84 482.927 2647.299 490.09 2647.299 494.401 2645.84 501.564 2642.988 505.875 2638.677 507.301 2635.825 507.301 M 2645.84 501.564 2628.629 482.927 M 2656.562 507.334 2656.562 477.19 M 2676.658 507.334 2656.562 487.238 M 2663.725 494.434 2676.658 477.19 M 1618.372 501.564 1621.257 503.023 1625.568 507.301 1625.568 477.19 M 1643.453 507.301 1639.142 505.875 1636.257 501.564 1634.831 494.401 1634.831 490.09 1636.257 482.927 1639.142 478.616 1643.453 477.19 1646.305 477.19 1650.616 478.616 1653.468 482.927 1654.927 490.09 1654.927 494.401 1653.468 501.564 1650.616 505.875 1646.305 507.301 1643.453 507.301 M 1653.468 501.564 1636.257 482.927 M 1664.191 507.334 1664.191 477.19 M 1684.287 507.334 1664.191 487.238 M 1671.354 494.434 1684.287 477.19 M 1079.494 499.374 1082.379 500.833 1086.69 505.111 1086.69 475 M 1104.576 505.111 1100.265 503.685 1097.379 499.374 1095.953 492.211 1095.953 487.9 1097.379 480.737 1100.265 476.426 1104.576 475 1107.427 475 1111.738 476.426 1114.59 480.737 1116.049 487.9 1116.049 492.211 1114.59 499.374 1111.738 503.685 1107.427 505.111 1104.576 505.111 M 1114.59 499.374 1097.379 480.737 M 1125.313 505.144 1125.313 475 M 1145.409 505.144 1125.313 485.048 M 1132.476 492.244 1145.409 475" fill="none" stroke-width="4.632"/><path d="M 1499.263 747.927 1499.263 750.779 1502.115 756.549 1504.966 759.401 1510.737 762.253 1522.211 762.253 1527.914 759.401 1530.766 756.549 1533.684 750.779 1533.684 745.075 1530.766 739.305 1525.062 730.749 1496.344 702.031 1536.536 702.031 M 1499.86 1138.394 1533.022 1138.394 M 1516.408 1064.228 1516.408 1012.562 M 1490.608 1038.362 1542.274 1038.362 M 1523.637 908.283 1523.637 968.505 1494.919 928.379 1537.963 928.379 M 1502.115 868.507 1533.618 868.507 1516.44 845.559 1525.062 845.559 1530.766 842.707 1533.618 839.855 1536.536 831.233 1536.536 825.53 1533.618 816.907 1527.914 811.137 1519.292 808.285 1510.67 808.285 1502.115 811.137 1499.263 814.056 1496.344 819.759 M 1502.995 644.531 1508.765 647.449 1517.387 656.005 1517.387 595.783 M 759.363 738.281 765.133 741.199 773.755 749.755 773.755 689.533" fill="none" stroke-width="9.264"/><path d="M 3119.106 910.419 3121.007 908.517 3122.953 910.419 3121.007 912.364 3119.106 910.419 M 3121.007 897.021 3121.007 870.227 M 3135.304 897.021 3135.304 870.227 M 3135.304 889.372 3141.052 895.12 3144.899 897.021 3150.603 897.021 3154.45 895.12 3156.351 889.372 3156.351 870.227 M 3189.749 891.273 3187.848 895.12 3182.1 897.021 3176.352 897.021 3170.604 895.12 3168.702 891.273 3170.604 887.471 3174.45 885.525 3184.001 883.624 3187.848 881.723 3189.749 877.876 3189.749 875.975 3187.848 872.172 3182.1 870.227 3176.352 870.227 3170.604 872.172 3168.702 875.975 M 3207.848 910.419 3207.848 877.876 3209.75 872.172 3213.597 870.227 3217.399 870.227 M 3202.1 897.021 3215.498 897.021 M 3229.75 897.021 3229.75 870.227 M 3229.75 885.525 3231.696 891.273 3235.498 895.12 3239.345 897.021 3245.093 897.021 M 3257.445 897.021 3257.445 877.876 3259.346 872.172 3263.193 870.227 3268.941 870.227 3272.743 872.172 3278.491 877.876 M 3278.491 897.021 3278.491 870.227 M 3290.843 897.021 3290.843 870.227 M 3290.843 889.372 3296.591 895.12 3300.438 897.021 3306.141 897.021 3309.988 895.12 3311.889 889.372 3311.889 870.227 M 3311.889 889.372 3317.637 895.12 3321.484 897.021 3327.188 897.021 3331.035 895.12 3332.98 889.372 3332.98 870.227 M 3345.332 885.525 3368.28 885.525 3368.28 889.372 3366.378 893.219 3364.477 895.12 3360.63 897.021 3354.882 897.021 3351.08 895.12 3347.233 891.273 3345.332 885.525 3345.332 881.723 3347.233 875.975 3351.08 872.172 3354.882 870.227 3360.63 870.227 3364.477 872.172 3368.28 875.975 M 3380.631 897.021 3380.631 870.227 M 3380.631 889.372 3386.379 895.12 3390.226 897.021 3395.93 897.021 3399.776 895.12 3401.678 889.372 3401.678 870.227 M 3419.777 910.419 3419.777 877.876 3421.678 872.172 3425.525 870.227 3429.328 870.227 M 3414.029 897.021 3427.426 897.021 M 3462.726 891.273 3460.824 895.12 3455.076 897.021 3449.328 897.021 3443.58 895.12 3441.679 891.273 3443.58 887.471 3447.427 885.525 3456.978 883.624 3460.824 881.723 3462.726 877.876 3462.726 875.975 3460.824 872.172 3455.076 870.227 3449.328 870.227 3443.58 872.172 3441.679 875.975 M 3476.978 874.073 3475.077 872.128 3476.978 870.227 3478.924 872.128 3476.978 874.073 M 3514.223 897.021 3514.223 870.227 M 3514.223 891.273 3510.421 895.12 3506.574 897.021 3500.87 897.021 3497.023 895.12 3493.221 891.273 3491.275 885.525 3491.275 881.723 3493.221 875.975 3497.023 872.172 3500.87 870.227 3506.574 870.227 3510.421 872.172 3514.223 875.975 M 3526.574 897.021 3526.574 870.227 M 3526.574 885.525 3528.52 891.273 3532.322 895.12 3536.169 897.021 3541.917 897.021 M 3560.017 910.419 3560.017 877.876 3561.918 872.172 3565.765 870.227 3569.567 870.227 M 3554.269 897.021 3567.666 897.021 M 3581.919 910.419 3583.82 908.517 3585.765 910.419 3583.82 912.364 3581.919 910.419 M 3583.82 897.021 3583.82 870.227 M 3621.109 891.273 3617.262 895.12 3613.415 897.021 3607.712 897.021 3603.865 895.12 3600.062 891.273 3598.117 885.525 3598.117 881.723 3600.062 875.975 3603.865 872.172 3607.712 870.227 3613.415 870.227 3617.262 872.172 3621.109 875.975 M 3656.408 897.021 3656.408 870.227 M 3656.408 891.273 3652.606 895.12 3648.759 897.021 3643.055 897.021 3639.208 895.12 3635.406 891.273 3633.46 885.525 3633.46 881.723 3635.406 875.975 3639.208 872.172 3643.055 870.227 3648.759 870.227 3652.606 872.172 3656.408 875.975 M 3670.661 874.073 3668.76 872.128 3670.661 870.227 3672.606 872.128 3670.661 874.073 M 3707.95 891.273 3704.103 895.12 3700.256 897.021 3694.553 897.021 3690.706 895.12 3686.903 891.273 3684.958 885.525 3684.958 881.723 3686.903 875.975 3690.706 872.172 3694.553 870.227 3700.256 870.227 3704.103 872.172 3707.95 875.975 M 3743.293 891.273 3739.447 895.12 3735.6 897.021 3729.896 897.021 3726.049 895.12 3722.247 891.273 3720.301 885.525 3720.301 881.723 3722.247 875.975 3726.049 872.172 3729.896 870.227 3735.6 870.227 3739.447 872.172 3743.293 875.975" fill="none" stroke-width="6.176"/><path d="M 2833.884 899.754 2865.387 899.754 2848.209 876.806 2856.831 876.806 2862.535 873.954 2865.387 871.102 2868.305 862.48 2868.305 856.776 2865.387 848.154 2859.683 842.384 2851.061 839.532 2842.439 839.532 2833.884 842.384 2831.032 845.302 2828.113 851.006 M 3969.333 683.282 3969.333 743.504 3940.615 703.378 3983.659 703.378" fill="none" stroke-width="9.264"/><path d="M 743.001 925.397 741.575 928.249 738.69 931.134 735.838 932.56 730.101 932.56 727.216 931.134 724.364 928.249 722.905 925.397 721.479 921.086 721.479 913.89 722.905 909.612 724.364 906.727 727.216 903.875 730.101 902.416 735.838 902.416 738.69 903.875 741.575 906.727 743.001 909.612 M 773.787 925.397 772.361 928.249 769.476 931.134 766.624 932.56 760.887 932.56 758.002 931.134 755.15 928.249 753.691 925.397 752.265 921.086 752.265 913.89 753.691 909.612 755.15 906.727 758.002 903.875 760.887 902.416 766.624 902.416 769.476 903.875 772.361 906.727 773.787 909.612 M 812.211 932.56 812.211 902.416 825.144 902.416 829.455 903.875 830.881 905.301 832.307 908.153 832.307 912.464 830.881 915.349 829.455 916.775 825.144 918.201 829.455 919.66 830.881 921.086 832.307 923.938 832.307 926.823 830.881 929.675 829.455 931.134 825.144 932.56 812.211 932.56 M 812.211 918.201 825.144 918.201 M 841.57 932.56 853.044 918.201 853.044 902.416 M 864.518 932.56 853.044 918.201 M 873.782 917.471 890.363 917.471 M 919.722 928.249 916.87 931.134 912.559 932.56 906.822 932.56 902.511 931.134 899.626 928.249 899.626 925.397 901.085 922.512 902.511 921.086 905.363 919.66 913.985 916.775 916.87 915.349 918.296 913.89 919.722 911.038 919.722 906.727 916.87 903.875 912.559 902.416 906.822 902.416 902.511 903.875 899.626 906.727 M 951.967 902.416 940.46 932.56 928.986 902.416 M 933.297 912.464 947.656 912.464 M 1004.75 902.416 1004.75 932.527 990.391 912.464 1011.913 912.464 M 1022.602 905.301 1021.177 903.842 1022.602 902.416 1024.062 903.842 1022.602 905.301 M 1041.947 932.527 1037.636 931.101 1034.751 926.79 1033.325 919.627 1033.325 915.316 1034.751 908.153 1037.636 903.842 1041.947 902.416 1044.799 902.416 1049.11 903.842 1051.962 908.153 1053.421 915.316 1053.421 919.627 1051.962 926.79 1049.11 931.101 1044.799 932.527 1041.947 932.527 M 1051.962 926.79 1034.751 908.153" fill="none" stroke-width="4.632"/><path d="M 2018.084 545.604 2018.084 1268.264 1673.467 786.756 2189.994 786.756 M 2154.716 1269.06 2154.716 545.604 2465.11 545.604 2568.575 580.623 2602.798 614.846 2637.021 683.291 2637.021 786.756 2602.798 855.998 2568.575 890.22 2465.11 924.443 2568.575 959.462 2602.798 993.685 2637.021 1062.131 2637.021 1131.372 2602.798 1199.818 2568.575 1234.837 2465.11 1269.06 2154.716 1269.06 M 2154.716 924.443 2465.11 924.443" fill="none" stroke-width="111.163"/><path d="M 2249.519 1174.454 2249.519 1147.66 M 2249.519 1168.706 2245.716 1172.553 2241.869 1174.454 2236.166 1174.454 2232.319 1172.553 2228.516 1168.706 2226.571 1162.958 2226.571 1159.156 2228.516 1153.408 2232.319 1149.605 2236.166 1147.66 2241.869 1147.66 2245.716 1149.605 2249.519 1153.408 M 2261.87 1187.852 2261.87 1147.66 M 2274.221 1174.454 2274.221 1134.262 M 2274.221 1168.706 2278.068 1172.509 2281.871 1174.454 2287.619 1174.454 2291.466 1172.509 2295.268 1168.706 2297.214 1162.958 2297.214 1159.112 2295.268 1153.408 2291.466 1149.561 2287.619 1147.66 2281.871 1147.66 2278.068 1149.561 2274.221 1153.408 M 2309.565 1187.852 2309.565 1147.66 M 2309.565 1166.805 2315.313 1172.553 2319.16 1174.454 2324.908 1174.454 2328.71 1172.553 2330.612 1166.805 2330.612 1147.66 M 2365.911 1174.454 2365.911 1147.66 M 2365.911 1168.706 2362.108 1172.553 2358.262 1174.454 2352.558 1174.454 2348.711 1172.553 2344.909 1168.706 2342.963 1162.958 2342.963 1159.156 2344.909 1153.408 2348.711 1149.605 2352.558 1147.66 2358.262 1147.66 2362.108 1149.605 2365.911 1153.408 M 2380.164 1151.506 2378.262 1149.561 2380.164 1147.66 2382.109 1149.561 2380.164 1151.506 M 2394.461 1180.158 2398.307 1182.104 2404.055 1187.807 2404.055 1147.66" fill="none" stroke-width="6.176"/><path d="M 2260.836 794.029 2260.836 633.261 M 2425.025 755.826 2417.42 771.037 2402.033 786.424 2386.823 794.029 2356.225 794.029 2340.838 786.424 2325.628 771.037 2317.846 755.826 2310.241 732.834 2310.241 694.455 2317.846 671.64 2325.628 656.253 2340.838 641.043 2356.225 633.261 2386.823 633.261 2402.033 641.043 2417.42 656.253 2425.025 671.64 2425.025 694.455 2386.823 694.455" fill="none" stroke-width="24.703"/><path d="M 2732.449 999.059 2732.449 556.947 2922.134 556.947 2985.363 578.347 3006.277 599.261 3027.191 641.089 3027.191 704.317 3006.277 746.632 2985.363 767.546 2922.134 788.46 2985.363 809.86 3006.277 830.774 3027.191 872.602 3027.191 914.916 3006.277 956.744 2985.363 978.145 2922.134 999.059 2732.449 999.059 M 2732.449 788.46 2922.134 788.46" fill="none" stroke-width="67.933"/><path d="M 3037.489 590.446 3037.489 547.402 3040.341 538.78 3046.111 533.076 3054.733 530.158 3060.437 530.158 3069.059 533.076 3074.829 538.78 3077.681 547.402 3077.681 590.446 M 3116.304 590.446 3116.304 530.158 M 3096.208 590.446 3136.4 590.446 M 3175.023 590.446 3175.023 530.158 M 3154.927 590.446 3195.119 590.446 M 3230.89 590.446 3225.12 587.594 3219.416 581.824 3216.498 576.12 3213.646 567.498 3213.646 553.106 3216.498 544.55 3219.416 538.78 3225.12 533.076 3230.89 530.158 3242.364 530.158 3248.068 533.076 3253.838 538.78 3256.69 544.55 3259.542 553.106 3259.542 567.498 3256.69 576.12 3253.838 581.824 3248.068 587.594 3242.364 590.446 3230.89 590.446 M 3318.261 590.446 3318.261 530.158 3278.069 590.446 3278.069 530.158 M 1856.032 897.928 1856.032 900.78 1858.884 906.55 1861.735 909.402 1867.506 912.254 1878.98 912.254 1884.683 909.402 1887.535 906.55 1890.453 900.78 1890.453 895.076 1887.535 889.306 1881.831 880.75 1853.113 852.032 1893.305 852.032" fill="none" stroke-width="9.264"/></g></svg>