G04 DipTrace 3.3.1.3*
G04 Bottom.gbr*
%MOIN*%
G04 #@! TF.FileFunction,Copper,L2,Bot*
G04 #@! TF.Part,Single*
G04 #@! TA.AperFunction,Conductor*
%ADD13C,0.012*%
%ADD14C,0.022*%
G04 #@! TA.AperFunction,CopperBalancing*
%ADD15C,0.025*%
G04 #@! TA.AperFunction,ComponentPad*
%ADD35C,0.085*%
G04 #@! TA.AperFunction,ViaPad*
%ADD36C,0.04*%
%FSLAX26Y26*%
G04*
G70*
G90*
G75*
G01*
G04 Bottom*
%LPD*%
X3592520Y787360D2*
D13*
X3737450D1*
X4084646D1*
X1131890D2*
X1006201D1*
X639764D1*
Y984210D2*
D14*
X1131890D1*
X3592520D2*
X4084646D1*
D36*
X3737450Y787360D3*
X1006201D3*
X644939Y1313025D2*
D15*
X4079474D1*
X644939Y1288156D2*
X4079474D1*
X644939Y1263287D2*
X4079474D1*
X644939Y1238419D2*
X4079474D1*
X644939Y1213550D2*
X4079474D1*
X644939Y1188681D2*
X4079474D1*
X644939Y1163812D2*
X4079474D1*
X644939Y1138944D2*
X4079474D1*
X644939Y1114075D2*
X833068D1*
X938579D2*
X1817335D1*
X1922847D2*
X2801567D1*
X2907078D2*
X3785834D1*
X3891346D2*
X4079474D1*
X644939Y1089206D2*
X816633D1*
X955014D2*
X1800864D1*
X1939282D2*
X2785132D1*
X2923549D2*
X3769363D1*
X3907781D2*
X4079474D1*
X644939Y1064337D2*
X811645D1*
X960002D2*
X1795912D1*
X1944234D2*
X2780144D1*
X2928501D2*
X3764411D1*
X3912769D2*
X4079474D1*
X683586Y1039469D2*
X815592D1*
X956055D2*
X1088097D1*
X1175702D2*
X1580213D1*
X1667818D2*
X1799860D1*
X1940322D2*
X2072328D1*
X2159934D2*
X2564444D1*
X2652085D2*
X2784091D1*
X2924554D2*
X3056596D1*
X3144201D2*
X3548711D1*
X3636317D2*
X3768358D1*
X3908821D2*
X4040827D1*
X1196336Y1014600D2*
X1559579D1*
X1688451D2*
X1814644D1*
X1925502D2*
X2051695D1*
X2180567D2*
X2543846D1*
X2672719D2*
X2798911D1*
X2909770D2*
X3035962D1*
X3164834D2*
X3528078D1*
X1203154Y989731D2*
X1552761D1*
X1695269D2*
X2044877D1*
X2187421D2*
X2536993D1*
X2679537D2*
X3029108D1*
X3171652D2*
X3521260D1*
X1200606Y964862D2*
X1555309D1*
X1692722D2*
X2047425D1*
X2184873D2*
X2539540D1*
X2676989D2*
X3031656D1*
X3169105D2*
X3523808D1*
X695213Y939993D2*
X1076434D1*
X1187365D2*
X1568550D1*
X1679480D2*
X2060666D1*
X2171596D2*
X2552818D1*
X2663712D2*
X3044933D1*
X3155863D2*
X3537049D1*
X3647979D2*
X4029201D1*
X644939Y915125D2*
X4079474D1*
X644939Y890256D2*
X4079474D1*
X644939Y865387D2*
X4079474D1*
X686242Y840518D2*
X1085405D1*
X1178358D2*
X1577521D1*
X1670509D2*
X2069673D1*
X2162625D2*
X2561789D1*
X2654741D2*
X3053904D1*
X3146856D2*
X3546056D1*
X3639008D2*
X4038172D1*
X1197304Y815650D2*
X1558574D1*
X1689456D2*
X2050726D1*
X2181572D2*
X2542842D1*
X2673688D2*
X3034957D1*
X3165803D2*
X3527109D1*
X1203297Y790781D2*
X1552618D1*
X1695413D2*
X2044733D1*
X2187564D2*
X2536849D1*
X2679680D2*
X3029001D1*
X3171796D2*
X3521116D1*
X1199960Y765912D2*
X1555955D1*
X1692076D2*
X1824476D1*
X1915670D2*
X2048071D1*
X2184227D2*
X2540186D1*
X2676343D2*
X2808744D1*
X2899901D2*
X3032302D1*
X3168459D2*
X3524454D1*
X693383Y741043D2*
X819396D1*
X952251D2*
X999678D1*
X1012757D2*
X1078265D1*
X1185534D2*
X1570380D1*
X1677650D2*
X1803627D1*
X1936519D2*
X2062496D1*
X2169766D2*
X2554648D1*
X2661918D2*
X2787895D1*
X2920750D2*
X3046763D1*
X3154033D2*
X3538879D1*
X3646149D2*
X3730895D1*
X3743969D2*
X3772162D1*
X3905018D2*
X4030995D1*
X644939Y716175D2*
X812040D1*
X959608D2*
X1796307D1*
X1943875D2*
X2780539D1*
X2928106D2*
X3764806D1*
X3912374D2*
X4079474D1*
X644939Y691306D2*
X813762D1*
X957885D2*
X1798030D1*
X1942153D2*
X2782261D1*
X2926384D2*
X3766528D1*
X3910651D2*
X4079474D1*
X644939Y666437D2*
X825353D1*
X946295D2*
X1809620D1*
X1930526D2*
X2793852D1*
X2914793D2*
X3778119D1*
X3899061D2*
X4079474D1*
X644939Y641568D2*
X857972D1*
X913676D2*
X1842203D1*
X1897943D2*
X2826470D1*
X2882175D2*
X3810738D1*
X3866442D2*
X4079474D1*
X644939Y616699D2*
X4079474D1*
X644939Y591831D2*
X4079474D1*
X644939Y566962D2*
X4079474D1*
X644939Y542093D2*
X4079474D1*
X644939Y517224D2*
X4079474D1*
X644939Y492356D2*
X4079474D1*
X644939Y467487D2*
X4079474D1*
X644939Y442618D2*
X4079474D1*
X3653341Y754875D2*
X3648335Y746807D1*
X3641304Y738575D1*
X3633072Y731544D1*
X3623841Y725887D1*
X3613839Y721744D1*
X3603312Y719217D1*
X3592520Y718367D1*
X3581727Y719217D1*
X3571200Y721744D1*
X3561198Y725887D1*
X3551967Y731544D1*
X3543735Y738575D1*
X3536704Y746807D1*
X3531047Y756038D1*
X3526904Y766040D1*
X3524377Y776567D1*
X3523528Y787360D1*
X3524377Y798152D1*
X3526904Y808679D1*
X3531047Y818681D1*
X3536704Y827912D1*
X3543735Y836144D1*
X3551967Y843175D1*
X3561198Y848832D1*
X3571200Y852975D1*
X3581727Y855502D1*
X3592520Y856352D1*
X3603312Y855502D1*
X3613839Y852975D1*
X3623841Y848832D1*
X3633072Y843175D1*
X3641304Y836144D1*
X3648335Y827912D1*
X3653341Y819845D1*
X3704227Y819852D1*
X3710123Y824973D1*
X3716343Y828784D1*
X3723083Y831576D1*
X3730177Y833279D1*
X3737450Y833852D1*
X3744723Y833279D1*
X3751817Y831576D1*
X3758557Y828784D1*
X3764778Y824973D1*
X3770683Y819847D1*
X4023770Y819852D1*
X4028830Y827912D1*
X4035861Y836144D1*
X4044093Y843175D1*
X4053324Y848832D1*
X4063326Y852975D1*
X4073853Y855502D1*
X4082003Y856248D1*
X4081988Y915277D1*
X4073853Y916067D1*
X4063326Y918595D1*
X4053324Y922738D1*
X4044093Y928394D1*
X4035861Y935425D1*
X4028830Y943657D1*
X4026796Y946701D1*
X3650411Y946718D1*
X3644982Y939403D1*
X3637326Y931748D1*
X3628568Y925385D1*
X3618922Y920470D1*
X3608626Y917124D1*
X3597933Y915431D1*
X3587107D1*
X3576414Y917124D1*
X3566118Y920470D1*
X3556471Y925385D1*
X3547713Y931748D1*
X3540058Y939403D1*
X3533694Y948162D1*
X3528779Y957808D1*
X3525434Y968104D1*
X3523740Y978797D1*
Y989623D1*
X3525434Y1000316D1*
X3528779Y1010612D1*
X3533694Y1020258D1*
X3540058Y1029017D1*
X3547713Y1036672D1*
X3556471Y1043035D1*
X3566118Y1047950D1*
X3576414Y1051296D1*
X3587107Y1052989D1*
X3597933D1*
X3608626Y1051296D1*
X3618922Y1047950D1*
X3628568Y1043035D1*
X3637326Y1036672D1*
X3644982Y1029017D1*
X3650369Y1021719D1*
X3779943Y1021702D1*
X3774710Y1030405D1*
X3770405Y1040798D1*
X3767779Y1051736D1*
X3766896Y1062950D1*
X3767779Y1074164D1*
X3770405Y1085102D1*
X3774710Y1095495D1*
X3780587Y1105086D1*
X3787893Y1113640D1*
X3796446Y1120946D1*
X3806038Y1126823D1*
X3816430Y1131128D1*
X3827368Y1133754D1*
X3838583Y1134636D1*
X3849797Y1133754D1*
X3860735Y1131128D1*
X3871128Y1126823D1*
X3880719Y1120946D1*
X3889273Y1113640D1*
X3896578Y1105086D1*
X3902456Y1095495D1*
X3906760Y1085102D1*
X3909386Y1074164D1*
X3910269Y1062950D1*
X3909386Y1051736D1*
X3906760Y1040798D1*
X3902456Y1030405D1*
X3897177Y1021710D1*
X4026754Y1021702D1*
X4032184Y1029017D1*
X4039839Y1036672D1*
X4048597Y1043035D1*
X4058244Y1047950D1*
X4068540Y1051296D1*
X4079233Y1052989D1*
X4082003Y1053098D1*
X4081988Y1337921D1*
X642394Y1337894D1*
X642421Y1053165D1*
X650557Y1052353D1*
X661084Y1049825D1*
X671086Y1045682D1*
X680316Y1040026D1*
X688549Y1032995D1*
X695580Y1024763D1*
X697613Y1021719D1*
X827187Y1021702D1*
X821954Y1030405D1*
X817649Y1040798D1*
X815023Y1051736D1*
X814140Y1062950D1*
X815023Y1074164D1*
X817649Y1085102D1*
X821954Y1095495D1*
X827831Y1105086D1*
X835137Y1113640D1*
X843691Y1120946D1*
X853282Y1126823D1*
X863674Y1131128D1*
X874613Y1133754D1*
X885827Y1134636D1*
X897041Y1133754D1*
X907979Y1131128D1*
X918372Y1126823D1*
X927963Y1120946D1*
X936517Y1113640D1*
X943822Y1105086D1*
X949700Y1095495D1*
X954005Y1085102D1*
X956631Y1074164D1*
X957513Y1062950D1*
X956631Y1051736D1*
X954005Y1040798D1*
X949700Y1030405D1*
X944421Y1021710D1*
X1073998Y1021702D1*
X1079428Y1029017D1*
X1087083Y1036672D1*
X1095841Y1043035D1*
X1105488Y1047950D1*
X1115784Y1051296D1*
X1126477Y1052989D1*
X1137303D1*
X1147996Y1051296D1*
X1158292Y1047950D1*
X1167938Y1043035D1*
X1176697Y1036672D1*
X1184352Y1029017D1*
X1190715Y1020258D1*
X1195630Y1010612D1*
X1198976Y1000316D1*
X1200669Y989623D1*
Y978797D1*
X1198976Y968104D1*
X1195630Y957808D1*
X1190715Y948162D1*
X1184352Y939403D1*
X1176697Y931748D1*
X1167938Y925385D1*
X1158292Y920470D1*
X1147996Y917124D1*
X1137303Y915431D1*
X1126477D1*
X1115784Y917124D1*
X1105488Y920470D1*
X1095841Y925385D1*
X1087083Y931748D1*
X1079428Y939403D1*
X1074040Y946701D1*
X697655Y946718D1*
X692226Y939403D1*
X684571Y931748D1*
X675812Y925385D1*
X666166Y920470D1*
X655870Y917124D1*
X645177Y915431D1*
X642407Y915322D1*
X642421Y856304D1*
X650557Y855502D1*
X661084Y852975D1*
X671086Y848832D1*
X680316Y843175D1*
X688549Y836144D1*
X695580Y827912D1*
X700585Y819845D1*
X972948Y819852D1*
X978873Y824973D1*
X985094Y828784D1*
X991834Y831576D1*
X998928Y833279D1*
X1006201Y833852D1*
X1013474Y833279D1*
X1020568Y831576D1*
X1027308Y828784D1*
X1033528Y824973D1*
X1039434Y819847D1*
X1071044Y819852D1*
X1076074Y827912D1*
X1083105Y836144D1*
X1091337Y843175D1*
X1100568Y848832D1*
X1110570Y852975D1*
X1121097Y855502D1*
X1131890Y856352D1*
X1142683Y855502D1*
X1153210Y852975D1*
X1163212Y848832D1*
X1172442Y843175D1*
X1180675Y836144D1*
X1187706Y827912D1*
X1193362Y818681D1*
X1197505Y808679D1*
X1200032Y798152D1*
X1200882Y787360D1*
X1200032Y776567D1*
X1197505Y766040D1*
X1193362Y756038D1*
X1187706Y746807D1*
X1180675Y738575D1*
X1172442Y731544D1*
X1163212Y725887D1*
X1153210Y721744D1*
X1142683Y719217D1*
X1131890Y718367D1*
X1121097Y719217D1*
X1110570Y721744D1*
X1100568Y725887D1*
X1091337Y731544D1*
X1083105Y738575D1*
X1076074Y746807D1*
X1071069Y754875D1*
X1039488Y754867D1*
X1033528Y749747D1*
X1027308Y745935D1*
X1020568Y743143D1*
X1013474Y741440D1*
X1006201Y740867D1*
X998928Y741440D1*
X991834Y743143D1*
X985094Y745935D1*
X978873Y749747D1*
X972968Y754872D1*
X940569Y754867D1*
X946949Y746075D1*
X952056Y736053D1*
X955532Y725354D1*
X957292Y714244D1*
Y702995D1*
X955532Y691885D1*
X952056Y681186D1*
X946949Y671163D1*
X940338Y662063D1*
X932383Y654109D1*
X923283Y647497D1*
X913260Y642390D1*
X902562Y638914D1*
X891451Y637154D1*
X880202D1*
X869092Y638914D1*
X858394Y642390D1*
X848371Y647497D1*
X839270Y654109D1*
X831316Y662063D1*
X824704Y671163D1*
X819597Y681186D1*
X816121Y691885D1*
X814361Y702995D1*
Y714244D1*
X816121Y725354D1*
X819597Y736053D1*
X824704Y746075D1*
X831085Y754882D1*
X700647Y754867D1*
X695580Y746807D1*
X688549Y738575D1*
X680316Y731544D1*
X671086Y725887D1*
X661084Y721744D1*
X650557Y719217D1*
X642407Y718471D1*
X642421Y433732D1*
X4082016Y433760D1*
X4081988Y718417D1*
X4073853Y719217D1*
X4063326Y721744D1*
X4053324Y725887D1*
X4044093Y731544D1*
X4035861Y738575D1*
X4028830Y746807D1*
X4023825Y754875D1*
X3893347Y754867D1*
X3899705Y746075D1*
X3904812Y736053D1*
X3908288Y725354D1*
X3910048Y714244D1*
Y702995D1*
X3908288Y691885D1*
X3904812Y681186D1*
X3899705Y671163D1*
X3893093Y662063D1*
X3885139Y654109D1*
X3876039Y647497D1*
X3866016Y642390D1*
X3855318Y638914D1*
X3844207Y637154D1*
X3832958D1*
X3821848Y638914D1*
X3811149Y642390D1*
X3801127Y647497D1*
X3792026Y654109D1*
X3784072Y662063D1*
X3777460Y671163D1*
X3772353Y681186D1*
X3768877Y691885D1*
X3767117Y702995D1*
Y714244D1*
X3768877Y725354D1*
X3772353Y736053D1*
X3777460Y746075D1*
X3783841Y754882D1*
X3770695Y754867D1*
X3764778Y749747D1*
X3758557Y745935D1*
X3751817Y743143D1*
X3744723Y741440D1*
X3737450Y740867D1*
X3730177Y741440D1*
X3723083Y743143D1*
X3716343Y745935D1*
X3710123Y749747D1*
X3704217Y754872D1*
X3653373Y754867D1*
X2677047Y781947D2*
X2675354Y771254D1*
X2672008Y760957D1*
X2667093Y751311D1*
X2660730Y742553D1*
X2653075Y734898D1*
X2644316Y728534D1*
X2634670Y723619D1*
X2624374Y720274D1*
X2613681Y718580D1*
X2602855D1*
X2592162Y720274D1*
X2581866Y723619D1*
X2572219Y728534D1*
X2563461Y734898D1*
X2555806Y742553D1*
X2549442Y751311D1*
X2544527Y760957D1*
X2541182Y771254D1*
X2539488Y781947D1*
Y792773D1*
X2541182Y803465D1*
X2544527Y813762D1*
X2549442Y823408D1*
X2555806Y832166D1*
X2563461Y839822D1*
X2572219Y846185D1*
X2581866Y851100D1*
X2592162Y854445D1*
X2602855Y856139D1*
X2613681D1*
X2624374Y854445D1*
X2634670Y851100D1*
X2644316Y846185D1*
X2653075Y839822D1*
X2660730Y832166D1*
X2667093Y823408D1*
X2672008Y813762D1*
X2675354Y803465D1*
X2677047Y792773D1*
Y781947D1*
Y978797D2*
X2675354Y968104D1*
X2672008Y957808D1*
X2667093Y948162D1*
X2660730Y939403D1*
X2653075Y931748D1*
X2644316Y925385D1*
X2634670Y920470D1*
X2624374Y917124D1*
X2613681Y915431D1*
X2602855D1*
X2592162Y917124D1*
X2581866Y920470D1*
X2572219Y925385D1*
X2563461Y931748D1*
X2555806Y939403D1*
X2549442Y948162D1*
X2544527Y957808D1*
X2541182Y968104D1*
X2539488Y978797D1*
Y989623D1*
X2541182Y1000316D1*
X2544527Y1010612D1*
X2549442Y1020258D1*
X2555806Y1029017D1*
X2563461Y1036672D1*
X2572219Y1043035D1*
X2581866Y1047950D1*
X2592162Y1051296D1*
X2602855Y1052989D1*
X2613681D1*
X2624374Y1051296D1*
X2634670Y1047950D1*
X2644316Y1043035D1*
X2653075Y1036672D1*
X2660730Y1029017D1*
X2667093Y1020258D1*
X2672008Y1010612D1*
X2675354Y1000316D1*
X2677047Y989623D1*
Y978797D1*
X3169173D2*
X3167480Y968104D1*
X3164134Y957808D1*
X3159219Y948162D1*
X3152856Y939403D1*
X3145201Y931748D1*
X3136442Y925385D1*
X3126796Y920470D1*
X3116500Y917124D1*
X3105807Y915431D1*
X3094981D1*
X3084288Y917124D1*
X3073992Y920470D1*
X3064345Y925385D1*
X3055587Y931748D1*
X3047932Y939403D1*
X3041568Y948162D1*
X3036653Y957808D1*
X3033308Y968104D1*
X3031614Y978797D1*
Y989623D1*
X3033308Y1000316D1*
X3036653Y1010612D1*
X3041568Y1020258D1*
X3047932Y1029017D1*
X3055587Y1036672D1*
X3064345Y1043035D1*
X3073992Y1047950D1*
X3084288Y1051296D1*
X3094981Y1052989D1*
X3105807D1*
X3116500Y1051296D1*
X3126796Y1047950D1*
X3136442Y1043035D1*
X3145201Y1036672D1*
X3152856Y1029017D1*
X3159219Y1020258D1*
X3164134Y1010612D1*
X3167480Y1000316D1*
X3169173Y989623D1*
Y978797D1*
Y781947D2*
X3167480Y771254D1*
X3164134Y760957D1*
X3159219Y751311D1*
X3152856Y742553D1*
X3145201Y734898D1*
X3136442Y728534D1*
X3126796Y723619D1*
X3116500Y720274D1*
X3105807Y718580D1*
X3094981D1*
X3084288Y720274D1*
X3073992Y723619D1*
X3064345Y728534D1*
X3055587Y734898D1*
X3047932Y742553D1*
X3041568Y751311D1*
X3036653Y760957D1*
X3033308Y771254D1*
X3031614Y781947D1*
Y792773D1*
X3033308Y803465D1*
X3036653Y813762D1*
X3041568Y823408D1*
X3047932Y832166D1*
X3055587Y839822D1*
X3064345Y846185D1*
X3073992Y851100D1*
X3084288Y854445D1*
X3094981Y856139D1*
X3105807D1*
X3116500Y854445D1*
X3126796Y851100D1*
X3136442Y846185D1*
X3145201Y839822D1*
X3152856Y832166D1*
X3159219Y823408D1*
X3164134Y813762D1*
X3167480Y803465D1*
X3169173Y792773D1*
Y781947D1*
X2925796Y702995D2*
X2924036Y691885D1*
X2920560Y681186D1*
X2915453Y671163D1*
X2908841Y662063D1*
X2900887Y654109D1*
X2891787Y647497D1*
X2881764Y642390D1*
X2871066Y638914D1*
X2859955Y637154D1*
X2848706D1*
X2837596Y638914D1*
X2826898Y642390D1*
X2816875Y647497D1*
X2807774Y654109D1*
X2799820Y662063D1*
X2793208Y671163D1*
X2788101Y681186D1*
X2784625Y691885D1*
X2782865Y702995D1*
Y714244D1*
X2784625Y725354D1*
X2788101Y736053D1*
X2793208Y746075D1*
X2799820Y755176D1*
X2807774Y763130D1*
X2816875Y769742D1*
X2826898Y774849D1*
X2837596Y778325D1*
X2848706Y780085D1*
X2859955D1*
X2871066Y778325D1*
X2881764Y774849D1*
X2891787Y769742D1*
X2900887Y763130D1*
X2908841Y755176D1*
X2915453Y746075D1*
X2920560Y736053D1*
X2924036Y725354D1*
X2925796Y714244D1*
Y702995D1*
Y1057326D2*
X2924036Y1046215D1*
X2920560Y1035517D1*
X2915453Y1025494D1*
X2908841Y1016394D1*
X2900887Y1008439D1*
X2891787Y1001827D1*
X2881764Y996721D1*
X2871066Y993244D1*
X2859955Y991485D1*
X2848706D1*
X2837596Y993244D1*
X2826898Y996721D1*
X2816875Y1001827D1*
X2807774Y1008439D1*
X2799820Y1016394D1*
X2793208Y1025494D1*
X2788101Y1035517D1*
X2784625Y1046215D1*
X2782865Y1057326D1*
Y1068575D1*
X2784625Y1079685D1*
X2788101Y1090383D1*
X2793208Y1100406D1*
X2799820Y1109507D1*
X2807774Y1117461D1*
X2816875Y1124073D1*
X2826898Y1129180D1*
X2837596Y1132656D1*
X2848706Y1134415D1*
X2859955D1*
X2871066Y1132656D1*
X2881764Y1129180D1*
X2891787Y1124073D1*
X2900887Y1117461D1*
X2908841Y1109507D1*
X2915453Y1100406D1*
X2920560Y1090383D1*
X2924036Y1079685D1*
X2925796Y1068575D1*
Y1057326D1*
X1692795Y781947D2*
X1691102Y771254D1*
X1687756Y760957D1*
X1682841Y751311D1*
X1676478Y742553D1*
X1668823Y734898D1*
X1660064Y728534D1*
X1650418Y723619D1*
X1640122Y720274D1*
X1629429Y718580D1*
X1618603D1*
X1607910Y720274D1*
X1597614Y723619D1*
X1587967Y728534D1*
X1579209Y734898D1*
X1571554Y742553D1*
X1565190Y751311D1*
X1560275Y760957D1*
X1556930Y771254D1*
X1555236Y781947D1*
Y792773D1*
X1556930Y803465D1*
X1560275Y813762D1*
X1565190Y823408D1*
X1571554Y832166D1*
X1579209Y839822D1*
X1587967Y846185D1*
X1597614Y851100D1*
X1607910Y854445D1*
X1618603Y856139D1*
X1629429D1*
X1640122Y854445D1*
X1650418Y851100D1*
X1660064Y846185D1*
X1668823Y839822D1*
X1676478Y832166D1*
X1682841Y823408D1*
X1687756Y813762D1*
X1691102Y803465D1*
X1692795Y792773D1*
Y781947D1*
Y978797D2*
X1691102Y968104D1*
X1687756Y957808D1*
X1682841Y948162D1*
X1676478Y939403D1*
X1668823Y931748D1*
X1660064Y925385D1*
X1650418Y920470D1*
X1640122Y917124D1*
X1629429Y915431D1*
X1618603D1*
X1607910Y917124D1*
X1597614Y920470D1*
X1587967Y925385D1*
X1579209Y931748D1*
X1571554Y939403D1*
X1565190Y948162D1*
X1560275Y957808D1*
X1556930Y968104D1*
X1555236Y978797D1*
Y989623D1*
X1556930Y1000316D1*
X1560275Y1010612D1*
X1565190Y1020258D1*
X1571554Y1029017D1*
X1579209Y1036672D1*
X1587967Y1043035D1*
X1597614Y1047950D1*
X1607910Y1051296D1*
X1618603Y1052989D1*
X1629429D1*
X1640122Y1051296D1*
X1650418Y1047950D1*
X1660064Y1043035D1*
X1668823Y1036672D1*
X1676478Y1029017D1*
X1682841Y1020258D1*
X1687756Y1010612D1*
X1691102Y1000316D1*
X1692795Y989623D1*
Y978797D1*
X2184921D2*
X2183228Y968104D1*
X2179882Y957808D1*
X2174967Y948162D1*
X2168604Y939403D1*
X2160949Y931748D1*
X2152190Y925385D1*
X2142544Y920470D1*
X2132248Y917124D1*
X2121555Y915431D1*
X2110729D1*
X2100036Y917124D1*
X2089740Y920470D1*
X2080093Y925385D1*
X2071335Y931748D1*
X2063680Y939403D1*
X2057316Y948162D1*
X2052401Y957808D1*
X2049056Y968104D1*
X2047362Y978797D1*
Y989623D1*
X2049056Y1000316D1*
X2052401Y1010612D1*
X2057316Y1020258D1*
X2063680Y1029017D1*
X2071335Y1036672D1*
X2080093Y1043035D1*
X2089740Y1047950D1*
X2100036Y1051296D1*
X2110729Y1052989D1*
X2121555D1*
X2132248Y1051296D1*
X2142544Y1047950D1*
X2152190Y1043035D1*
X2160949Y1036672D1*
X2168604Y1029017D1*
X2174967Y1020258D1*
X2179882Y1010612D1*
X2183228Y1000316D1*
X2184921Y989623D1*
Y978797D1*
Y781947D2*
X2183228Y771254D1*
X2179882Y760957D1*
X2174967Y751311D1*
X2168604Y742553D1*
X2160949Y734898D1*
X2152190Y728534D1*
X2142544Y723619D1*
X2132248Y720274D1*
X2121555Y718580D1*
X2110729D1*
X2100036Y720274D1*
X2089740Y723619D1*
X2080093Y728534D1*
X2071335Y734898D1*
X2063680Y742553D1*
X2057316Y751311D1*
X2052401Y760957D1*
X2049056Y771254D1*
X2047362Y781947D1*
Y792773D1*
X2049056Y803465D1*
X2052401Y813762D1*
X2057316Y823408D1*
X2063680Y832166D1*
X2071335Y839822D1*
X2080093Y846185D1*
X2089740Y851100D1*
X2100036Y854445D1*
X2110729Y856139D1*
X2121555D1*
X2132248Y854445D1*
X2142544Y851100D1*
X2152190Y846185D1*
X2160949Y839822D1*
X2168604Y832166D1*
X2174967Y823408D1*
X2179882Y813762D1*
X2183228Y803465D1*
X2184921Y792773D1*
Y781947D1*
X1941544Y702995D2*
X1939784Y691885D1*
X1936308Y681186D1*
X1931201Y671163D1*
X1924589Y662063D1*
X1916635Y654109D1*
X1907535Y647497D1*
X1897512Y642390D1*
X1886814Y638914D1*
X1875703Y637154D1*
X1864454D1*
X1853344Y638914D1*
X1842646Y642390D1*
X1832623Y647497D1*
X1823522Y654109D1*
X1815568Y662063D1*
X1808956Y671163D1*
X1803849Y681186D1*
X1800373Y691885D1*
X1798613Y702995D1*
Y714244D1*
X1800373Y725354D1*
X1803849Y736053D1*
X1808956Y746075D1*
X1815568Y755176D1*
X1823522Y763130D1*
X1832623Y769742D1*
X1842646Y774849D1*
X1853344Y778325D1*
X1864454Y780085D1*
X1875703D1*
X1886814Y778325D1*
X1897512Y774849D1*
X1907535Y769742D1*
X1916635Y763130D1*
X1924589Y755176D1*
X1931201Y746075D1*
X1936308Y736053D1*
X1939784Y725354D1*
X1941544Y714244D1*
Y702995D1*
Y1057326D2*
X1939784Y1046215D1*
X1936308Y1035517D1*
X1931201Y1025494D1*
X1924589Y1016394D1*
X1916635Y1008439D1*
X1907535Y1001827D1*
X1897512Y996721D1*
X1886814Y993244D1*
X1875703Y991485D1*
X1864454D1*
X1853344Y993244D1*
X1842646Y996721D1*
X1832623Y1001827D1*
X1823522Y1008439D1*
X1815568Y1016394D1*
X1808956Y1025494D1*
X1803849Y1035517D1*
X1800373Y1046215D1*
X1798613Y1057326D1*
Y1068575D1*
X1800373Y1079685D1*
X1803849Y1090383D1*
X1808956Y1100406D1*
X1815568Y1109507D1*
X1823522Y1117461D1*
X1832623Y1124073D1*
X1842646Y1129180D1*
X1853344Y1132656D1*
X1864454Y1134415D1*
X1875703D1*
X1886814Y1132656D1*
X1897512Y1129180D1*
X1907535Y1124073D1*
X1916635Y1117461D1*
X1924589Y1109507D1*
X1931201Y1100406D1*
X1936308Y1090383D1*
X1939784Y1079685D1*
X1941544Y1068575D1*
Y1057326D1*
D35*
X3592520Y787360D3*
Y984210D3*
X4084646D3*
Y787360D3*
X2608268D3*
Y984210D3*
X3100394D3*
Y787360D3*
X1624016D3*
Y984210D3*
X2116142D3*
Y787360D3*
X639764D3*
Y984210D3*
X1131890D3*
Y787360D3*
M02*
