G04 DipTrace 3.3.1.3*
G04 BottomSilk.gbr*
%MOIN*%
G04 #@! TF.FileFunction,Legend,Bot*
G04 #@! TF.Part,Single*
%ADD10C,0.009843*%
%ADD34C,0.008*%
%FSLAX26Y26*%
G04*
G70*
G90*
G75*
G01*
G04 BotSilk*
%LPD*%
X4086631Y850352D2*
D10*
Y925186D1*
X3590534Y850352D2*
Y921218D1*
X3724427Y885785D2*
D34*
X3724710Y894024D1*
X3725557Y902223D1*
X3726965Y910341D1*
X3728926Y918340D1*
X3731432Y926181D1*
X3734469Y933825D1*
X3738022Y941234D1*
X3742076Y948374D1*
X3746609Y955208D1*
X3751600Y961705D1*
X3757025Y967831D1*
X3762857Y973558D1*
X3769067Y978857D1*
X3775625Y983703D1*
X3782500Y988071D1*
X3789658Y991942D1*
X3797064Y995295D1*
X3804682Y998114D1*
X3812475Y1000387D1*
X3820405Y1002101D1*
X3828433Y1003248D1*
X3836520Y1003823D1*
X3844627D1*
X3852714Y1003248D1*
X3860742Y1002101D1*
X3868672Y1000387D1*
X3876465Y998114D1*
X3884083Y995295D1*
X3891489Y991942D1*
X3898647Y988071D1*
X3905522Y983703D1*
X3912081Y978857D1*
X3918291Y973558D1*
X3924123Y967831D1*
X3929547Y961705D1*
X3934538Y955208D1*
X3939072Y948374D1*
X3943125Y941234D1*
X3946679Y933825D1*
X3949716Y926181D1*
X3952221Y918340D1*
X3954182Y910341D1*
X3955590Y902223D1*
X3956437Y894024D1*
X3956720Y885785D1*
X3956437Y877546D1*
X3955590Y869347D1*
X3954182Y861228D1*
X3952221Y853229D1*
X3949716Y845389D1*
X3946679Y837745D1*
X3943125Y830335D1*
X3939072Y823196D1*
X3934538Y816361D1*
X3929547Y809865D1*
X3924123Y803739D1*
X3918291Y798012D1*
X3912081Y792713D1*
X3905522Y787867D1*
X3898647Y783498D1*
X3891489Y779628D1*
X3884083Y776275D1*
X3876465Y773455D1*
X3868672Y771183D1*
X3860742Y769469D1*
X3852714Y768322D1*
X3844627Y767746D1*
X3836520D1*
X3828433Y768322D1*
X3820405Y769469D1*
X3812475Y771183D1*
X3804682Y773455D1*
X3797064Y776275D1*
X3789658Y779628D1*
X3782500Y783498D1*
X3775625Y787867D1*
X3769067Y792713D1*
X3762857Y798012D1*
X3757025Y803739D1*
X3751600Y809865D1*
X3746609Y816361D1*
X3742076Y823196D1*
X3738022Y830335D1*
X3734469Y837745D1*
X3731432Y845389D1*
X3728926Y853229D1*
X3726965Y861228D1*
X3725557Y869347D1*
X3724710Y877546D1*
X3724427Y885785D1*
X3102379Y850352D2*
D10*
Y925186D1*
X2606282Y850352D2*
Y921218D1*
X2740175Y885785D2*
D34*
X2740458Y894024D1*
X2741306Y902223D1*
X2742713Y910341D1*
X2744675Y918340D1*
X2747180Y926181D1*
X2750217Y933825D1*
X2753770Y941234D1*
X2757824Y948374D1*
X2762357Y955208D1*
X2767348Y961705D1*
X2772773Y967831D1*
X2778605Y973558D1*
X2784815Y978857D1*
X2791373Y983703D1*
X2798248Y988071D1*
X2805406Y991942D1*
X2812813Y995295D1*
X2820431Y998114D1*
X2828223Y1000387D1*
X2836153Y1002101D1*
X2844181Y1003248D1*
X2852268Y1003823D1*
X2860375D1*
X2868462Y1003248D1*
X2876490Y1002101D1*
X2884420Y1000387D1*
X2892213Y998114D1*
X2899831Y995295D1*
X2907237Y991942D1*
X2914395Y988071D1*
X2921270Y983703D1*
X2927829Y978857D1*
X2934039Y973558D1*
X2939871Y967831D1*
X2945295Y961705D1*
X2950286Y955208D1*
X2954820Y948374D1*
X2958873Y941234D1*
X2962427Y933825D1*
X2965464Y926181D1*
X2967969Y918340D1*
X2969930Y910341D1*
X2971338Y902223D1*
X2972185Y894024D1*
X2972468Y885785D1*
X2972185Y877546D1*
X2971338Y869347D1*
X2969930Y861228D1*
X2967969Y853229D1*
X2965464Y845389D1*
X2962427Y837745D1*
X2958873Y830335D1*
X2954820Y823196D1*
X2950286Y816361D1*
X2945295Y809865D1*
X2939871Y803739D1*
X2934039Y798012D1*
X2927829Y792713D1*
X2921270Y787867D1*
X2914395Y783498D1*
X2907237Y779628D1*
X2899831Y776275D1*
X2892213Y773455D1*
X2884420Y771183D1*
X2876490Y769469D1*
X2868462Y768322D1*
X2860375Y767746D1*
X2852268D1*
X2844181Y768322D1*
X2836153Y769469D1*
X2828223Y771183D1*
X2820431Y773455D1*
X2812813Y776275D1*
X2805406Y779628D1*
X2798248Y783498D1*
X2791373Y787867D1*
X2784815Y792713D1*
X2778605Y798012D1*
X2772773Y803739D1*
X2767348Y809865D1*
X2762357Y816361D1*
X2757824Y823196D1*
X2753770Y830335D1*
X2750217Y837745D1*
X2747180Y845389D1*
X2744675Y853229D1*
X2742713Y861228D1*
X2741306Y869347D1*
X2740458Y877546D1*
X2740175Y885785D1*
X2118127Y850352D2*
D10*
Y925186D1*
X1622030Y850352D2*
Y921218D1*
X1755923Y885785D2*
D34*
X1756206Y894024D1*
X1757054Y902223D1*
X1758461Y910341D1*
X1760423Y918340D1*
X1762928Y926181D1*
X1765965Y933825D1*
X1769518Y941234D1*
X1773572Y948374D1*
X1778105Y955208D1*
X1783096Y961705D1*
X1788521Y967831D1*
X1794353Y973558D1*
X1800563Y978857D1*
X1807121Y983703D1*
X1813997Y988071D1*
X1821155Y991942D1*
X1828561Y995295D1*
X1836179Y998114D1*
X1843971Y1000387D1*
X1851901Y1002101D1*
X1859929Y1003248D1*
X1868016Y1003823D1*
X1876123D1*
X1884210Y1003248D1*
X1892238Y1002101D1*
X1900168Y1000387D1*
X1907961Y998114D1*
X1915579Y995295D1*
X1922985Y991942D1*
X1930143Y988071D1*
X1937018Y983703D1*
X1943577Y978857D1*
X1949787Y973558D1*
X1955619Y967831D1*
X1961043Y961705D1*
X1966034Y955208D1*
X1970568Y948374D1*
X1974621Y941234D1*
X1978175Y933825D1*
X1981212Y926181D1*
X1983717Y918340D1*
X1985678Y910341D1*
X1987086Y902223D1*
X1987934Y894024D1*
X1988216Y885785D1*
X1987934Y877546D1*
X1987086Y869347D1*
X1985678Y861228D1*
X1983717Y853229D1*
X1981212Y845389D1*
X1978175Y837745D1*
X1974621Y830335D1*
X1970568Y823196D1*
X1966034Y816361D1*
X1961043Y809865D1*
X1955619Y803739D1*
X1949787Y798012D1*
X1943577Y792713D1*
X1937018Y787867D1*
X1930143Y783498D1*
X1922985Y779628D1*
X1915579Y776275D1*
X1907961Y773455D1*
X1900168Y771183D1*
X1892238Y769469D1*
X1884210Y768322D1*
X1876123Y767746D1*
X1868016D1*
X1859929Y768322D1*
X1851901Y769469D1*
X1843971Y771183D1*
X1836179Y773455D1*
X1828561Y776275D1*
X1821155Y779628D1*
X1813997Y783498D1*
X1807121Y787867D1*
X1800563Y792713D1*
X1794353Y798012D1*
X1788521Y803739D1*
X1783096Y809865D1*
X1778105Y816361D1*
X1773572Y823196D1*
X1769518Y830335D1*
X1765965Y837745D1*
X1762928Y845389D1*
X1760423Y853229D1*
X1758461Y861228D1*
X1757054Y869347D1*
X1756206Y877546D1*
X1755923Y885785D1*
X1133876Y850352D2*
D10*
Y925186D1*
X637778Y850352D2*
Y921218D1*
X771671Y885785D2*
D34*
X771954Y894024D1*
X772802Y902223D1*
X774209Y910341D1*
X776171Y918340D1*
X778676Y926181D1*
X781713Y933825D1*
X785266Y941234D1*
X789320Y948374D1*
X793853Y955208D1*
X798844Y961705D1*
X804269Y967831D1*
X810101Y973558D1*
X816311Y978857D1*
X822869Y983703D1*
X829745Y988071D1*
X836903Y991942D1*
X844309Y995295D1*
X851927Y998114D1*
X859719Y1000387D1*
X867649Y1002101D1*
X875677Y1003248D1*
X883764Y1003823D1*
X891871D1*
X899958Y1003248D1*
X907987Y1002101D1*
X915916Y1000387D1*
X923709Y998114D1*
X931327Y995295D1*
X938733Y991942D1*
X945891Y988071D1*
X952766Y983703D1*
X959325Y978857D1*
X965535Y973558D1*
X971367Y967831D1*
X976791Y961705D1*
X981782Y955208D1*
X986316Y948374D1*
X990369Y941234D1*
X993923Y933825D1*
X996960Y926181D1*
X999465Y918340D1*
X1001426Y910341D1*
X1002834Y902223D1*
X1003682Y894024D1*
X1003964Y885785D1*
X1003682Y877546D1*
X1002834Y869347D1*
X1001426Y861228D1*
X999465Y853229D1*
X996960Y845389D1*
X993923Y837745D1*
X990369Y830335D1*
X986316Y823196D1*
X981782Y816361D1*
X976791Y809865D1*
X971367Y803739D1*
X965535Y798012D1*
X959325Y792713D1*
X952766Y787867D1*
X945891Y783498D1*
X938733Y779628D1*
X931327Y776275D1*
X923709Y773455D1*
X915916Y771183D1*
X907987Y769469D1*
X899958Y768322D1*
X891871Y767746D1*
X883764D1*
X875677Y768322D1*
X867649Y769469D1*
X859719Y771183D1*
X851927Y773455D1*
X844309Y776275D1*
X836903Y779628D1*
X829745Y783498D1*
X822869Y787867D1*
X816311Y792713D1*
X810101Y798012D1*
X804269Y803739D1*
X798844Y809865D1*
X793853Y816361D1*
X789320Y823196D1*
X785266Y830335D1*
X781713Y837745D1*
X778676Y845389D1*
X776171Y853229D1*
X774209Y861228D1*
X772802Y869347D1*
X771954Y877546D1*
X771671Y885785D1*
M02*
