M48
INCH
T01C0.0191
T02C0.0472
T03C0.0709
T04C0.1181
%
T01
X+037375Y+007874
X+010062Y+007874
T02
X+035925Y+007874
X+035925Y+009842
X+040846Y+009842
X+040846Y+007874
X+031004Y+007874
X+031004Y+009842
X+026083Y+009842
X+026083Y+007874
X+021161Y+007874
X+021161Y+009842
X+016240Y+009842
X+016240Y+007874
X+011319Y+007874
X+011319Y+009842
X+006398Y+009842
X+006398Y+007874
T03
X+038386Y+007086
X+038386Y+010630
X+028543Y+010630
X+028543Y+007086
X+018701Y+007086
X+018701Y+010630
X+008858Y+010630
X+008858Y+007086
T04
X+005118Y+005118
X+005118Y+012598
X+042126Y+012598
X+042126Y+005118
T00
M30
