G04 DipTrace 3.3.1.3*
G04 Top.gbr*
%MOIN*%
G04 #@! TF.FileFunction,Copper,L1,Top*
G04 #@! TF.Part,Single*
G04 #@! TA.AperFunction,Conductor*
%ADD13C,0.012*%
%ADD14C,0.022*%
G04 #@! TA.AperFunction,CopperBalancing*
%ADD15C,0.025*%
%ADD16C,0.02*%
%ADD17R,0.070866X0.062992*%
%ADD33R,0.125197X0.05*%
G04 #@! TA.AperFunction,ComponentPad*
%ADD35C,0.085*%
G04 #@! TA.AperFunction,ViaPad*
%ADD36C,0.04*%
%FSLAX26Y26*%
G04*
G70*
G90*
G75*
G01*
G04 Top*
%LPD*%
X3624951Y668627D2*
D13*
X3737450D1*
Y787360D1*
X3624951Y668627D2*
X3568774D1*
X3331201Y906201D1*
X1524950D1*
X1495324Y935827D1*
X1401181D1*
X2608268Y787360D2*
X2756201D1*
X3100394D1*
X2643701Y668627D2*
X2756201D1*
Y787360D1*
X2643701Y668627D2*
X2356276D1*
X2162451Y862451D1*
X1531202D1*
X1504577Y835827D1*
X1275984D1*
X1624016Y787360D2*
X1762451D1*
X2116142D1*
X1401181Y735827D2*
X1464075D1*
X1531274Y668627D1*
X1651329D1*
X1762451D1*
Y787360D1*
X1275984Y635827D2*
X1201575D1*
X1170965Y666437D1*
X1112451D1*
X1008465D1*
X1006201Y668701D1*
Y787360D1*
X1624016Y984210D2*
D14*
X2116142D1*
X2608268D1*
X3100394D1*
X3592520D1*
X1624016D2*
X1540692D1*
X1489075Y1035827D1*
X1275984D1*
X1183507D1*
X1131890Y984210D1*
D36*
X3737450Y787360D3*
X1006201D3*
X644939Y1313025D2*
D15*
X4079474D1*
X644939Y1288156D2*
X4079474D1*
X644939Y1263287D2*
X4079474D1*
X644939Y1238419D2*
X4079474D1*
X644939Y1213550D2*
X4079474D1*
X644939Y1188681D2*
X4079474D1*
X644939Y1163812D2*
X1309574D1*
X1492775D2*
X4079474D1*
X644939Y1138944D2*
X1309574D1*
X1492775D2*
X4079474D1*
X644939Y1114075D2*
X833068D1*
X938579D2*
X1309574D1*
X1492775D2*
X1817335D1*
X1922847D2*
X2801567D1*
X2907078D2*
X3785834D1*
X3891346D2*
X4079474D1*
X644939Y1089206D2*
X816633D1*
X955014D2*
X1309574D1*
X1492775D2*
X1800864D1*
X1939282D2*
X2785132D1*
X2923549D2*
X3769363D1*
X3907781D2*
X4079474D1*
X644939Y1064337D2*
X811645D1*
X960002D2*
X1156671D1*
X1515920D2*
X1795912D1*
X1944234D2*
X2780144D1*
X2928501D2*
X3764411D1*
X3912769D2*
X4079474D1*
X683586Y1039469D2*
X815592D1*
X956055D2*
X1088097D1*
X1540967D2*
X1580213D1*
X1667818D2*
X1799860D1*
X1940322D2*
X2072328D1*
X2159934D2*
X2564444D1*
X2652085D2*
X2784091D1*
X2924554D2*
X3056596D1*
X3144201D2*
X3548711D1*
X3636317D2*
X3768358D1*
X3908821D2*
X4040827D1*
X704220Y1014600D2*
X830412D1*
X941271D2*
X1067463D1*
X3656950D2*
X3783143D1*
X3894001D2*
X4020194D1*
X711038Y989731D2*
X1060610D1*
X3663804D2*
X4013376D1*
X708490Y964862D2*
X1063157D1*
X1200606D2*
X1309574D1*
X3661256D2*
X4015923D1*
X695213Y939993D2*
X1076434D1*
X1187365D2*
X1309574D1*
X3155863D2*
X3537049D1*
X3647979D2*
X4029201D1*
X644939Y915125D2*
X1309574D1*
X3370738D2*
X4079474D1*
X644939Y890256D2*
X1309574D1*
X3395606D2*
X4079474D1*
X644939Y865387D2*
X1184410D1*
X2207983D2*
X3323574D1*
X3420473D2*
X4079474D1*
X686242Y840518D2*
X1085405D1*
X2232850D2*
X2561789D1*
X2654741D2*
X3053904D1*
X3146856D2*
X3348442D1*
X3445341D2*
X3546056D1*
X3639008D2*
X4038172D1*
X705189Y815650D2*
X966808D1*
X1045586D2*
X1066459D1*
X2257718D2*
X2542842D1*
X3165803D2*
X3373309D1*
X3470209D2*
X3527109D1*
X3657955D2*
X3698061D1*
X3776839D2*
X4019225D1*
X711181Y790781D2*
X957335D1*
X2282586D2*
X2536849D1*
X3171796D2*
X3398177D1*
X3495077D2*
X3521116D1*
X3663912D2*
X3688588D1*
X3786313D2*
X4013232D1*
X707844Y765912D2*
X840245D1*
X931403D2*
X962466D1*
X1049964D2*
X1063803D1*
X2184227D2*
X2210554D1*
X2307454D2*
X2540186D1*
X3168459D2*
X3423045D1*
X3660610D2*
X3693683D1*
X3884169D2*
X4016569D1*
X693383Y741043D2*
X819396D1*
X952251D2*
X971222D1*
X1041208D2*
X1078265D1*
X1936519D2*
X2062496D1*
X2169766D2*
X2235422D1*
X2332321D2*
X2554648D1*
X2920750D2*
X3046763D1*
X3154033D2*
X3447913D1*
X3646149D2*
X3702475D1*
X3905018D2*
X4030995D1*
X644939Y716175D2*
X812040D1*
X1943875D2*
X2260290D1*
X2357189D2*
X2579264D1*
X2928106D2*
X3472780D1*
X3912374D2*
X4079474D1*
X644939Y691306D2*
X813762D1*
X1942153D2*
X2285157D1*
X2926384D2*
X3497648D1*
X3910651D2*
X4079474D1*
X644939Y666437D2*
X825353D1*
X1367575D2*
X1485012D1*
X1930526D2*
X2310025D1*
X2914793D2*
X3522516D1*
X3899061D2*
X4079474D1*
X644939Y641568D2*
X857972D1*
X913676D2*
X941761D1*
X1367575D2*
X1510777D1*
X1826893D2*
X1842203D1*
X1897943D2*
X2335790D1*
X2882175D2*
X3548281D1*
X3866442D2*
X4079474D1*
X644939Y616699D2*
X941761D1*
X1367575D2*
X1586887D1*
X1826893D2*
X2579264D1*
X2820633D2*
X3560517D1*
X3801886D2*
X4079474D1*
X644939Y591831D2*
X941761D1*
X1367575D2*
X1586887D1*
X1826893D2*
X2579264D1*
X2820633D2*
X3560517D1*
X3801886D2*
X4079474D1*
X644939Y566962D2*
X941761D1*
X1176886D2*
X1586887D1*
X1826893D2*
X2579264D1*
X2820633D2*
X3560517D1*
X3801886D2*
X4079474D1*
X644939Y542093D2*
X941761D1*
X1176886D2*
X1586887D1*
X1826893D2*
X2579264D1*
X2820633D2*
X3560517D1*
X3801886D2*
X4079474D1*
X644939Y517224D2*
X941761D1*
X1176886D2*
X1586887D1*
X1826893D2*
X2579264D1*
X2820633D2*
X3560517D1*
X3801886D2*
X4079474D1*
X644939Y492356D2*
X4079474D1*
X644939Y467487D2*
X4079474D1*
X644939Y442618D2*
X4079474D1*
X1365075Y684340D2*
Y584335D1*
X1186894D1*
X1186824Y606876D1*
X1182476Y609540D1*
X1178599Y612851D1*
X1174362Y617089D1*
X1174377Y498212D1*
X1050527D1*
Y500473D1*
X944276Y500476D1*
Y667087D1*
X940338Y662063D1*
X932383Y654109D1*
X923283Y647497D1*
X913260Y642390D1*
X902562Y638914D1*
X891451Y637154D1*
X880202D1*
X869092Y638914D1*
X858394Y642390D1*
X848371Y647497D1*
X839270Y654109D1*
X831316Y662063D1*
X824704Y671163D1*
X819597Y681186D1*
X816121Y691885D1*
X814361Y702995D1*
Y714244D1*
X816121Y725354D1*
X819597Y736053D1*
X824704Y746075D1*
X831316Y755176D1*
X839270Y763130D1*
X848371Y769742D1*
X858394Y774849D1*
X869092Y778325D1*
X880202Y780085D1*
X891451D1*
X902562Y778325D1*
X913260Y774849D1*
X923283Y769742D1*
X932383Y763130D1*
X940338Y755176D1*
X946949Y746075D1*
X952056Y736053D1*
X955156Y726687D1*
X973737Y726689D1*
X973709Y754141D1*
X968588Y760032D1*
X964776Y766253D1*
X961984Y772993D1*
X960281Y780087D1*
X959709Y787360D1*
X960281Y794633D1*
X961984Y801726D1*
X964776Y808467D1*
X968588Y814687D1*
X973326Y820234D1*
X978873Y824973D1*
X985094Y828784D1*
X991834Y831576D1*
X998928Y833279D1*
X1006201Y833852D1*
X1013474Y833279D1*
X1020568Y831576D1*
X1027308Y828784D1*
X1033528Y824973D1*
X1039076Y820234D1*
X1043814Y814687D1*
X1047626Y808467D1*
X1050417Y801726D1*
X1052121Y794633D1*
X1052693Y787360D1*
X1052121Y780087D1*
X1050417Y772993D1*
X1047626Y766253D1*
X1043814Y760032D1*
X1038688Y754127D1*
X1038693Y726679D1*
X1068126Y726689D1*
Y724428D1*
X1103599Y724425D1*
X1095841Y728534D1*
X1087083Y734898D1*
X1079428Y742553D1*
X1073064Y751311D1*
X1068149Y760957D1*
X1064804Y771254D1*
X1063110Y781947D1*
Y792773D1*
X1064804Y803465D1*
X1068149Y813762D1*
X1073064Y823408D1*
X1079428Y832166D1*
X1087083Y839822D1*
X1095841Y846185D1*
X1105488Y851100D1*
X1115784Y854445D1*
X1126477Y856139D1*
X1137303D1*
X1147996Y854445D1*
X1158292Y851100D1*
X1167938Y846185D1*
X1176697Y839822D1*
X1184352Y832166D1*
X1186906Y828926D1*
X1186894Y887319D1*
X1312094D1*
X1312091Y984344D1*
X1200882Y984210D1*
X1200032Y973417D1*
X1197505Y962890D1*
X1193362Y952888D1*
X1187706Y943657D1*
X1180675Y935425D1*
X1172442Y928394D1*
X1163212Y922738D1*
X1153210Y918595D1*
X1142683Y916067D1*
X1131890Y915218D1*
X1121097Y916067D1*
X1110570Y918595D1*
X1100568Y922738D1*
X1091337Y928394D1*
X1083105Y935425D1*
X1076074Y943657D1*
X1070417Y952888D1*
X1066274Y962890D1*
X1063747Y973417D1*
X1062898Y984210D1*
X1063747Y995003D1*
X1066274Y1005530D1*
X1070417Y1015532D1*
X1076074Y1024763D1*
X1083105Y1032995D1*
X1091337Y1040026D1*
X1100568Y1045682D1*
X1110570Y1049825D1*
X1121097Y1052353D1*
X1131890Y1053202D1*
X1142683Y1052353D1*
X1146273Y1051638D1*
X1159157Y1064336D1*
X1163917Y1067794D1*
X1169159Y1070465D1*
X1174754Y1072283D1*
X1180565Y1073203D1*
X1183518Y1073319D1*
X1186894Y1076198D1*
Y1087319D1*
X1312094D1*
X1312091Y1187319D1*
X1490272D1*
Y1084335D1*
X1365072D1*
X1365075Y1073288D1*
X1492016Y1073203D1*
X1497827Y1072283D1*
X1503422Y1070465D1*
X1508664Y1067794D1*
X1513424Y1064336D1*
X1548064Y1029859D1*
X1556210Y1021714D1*
X1566133Y1021702D1*
X1571554Y1029017D1*
X1579209Y1036672D1*
X1587967Y1043035D1*
X1597614Y1047950D1*
X1607910Y1051296D1*
X1618603Y1052989D1*
X1629429D1*
X1640122Y1051296D1*
X1650418Y1047950D1*
X1660064Y1043035D1*
X1668823Y1036672D1*
X1676478Y1029017D1*
X1681865Y1021719D1*
X1811439Y1021702D1*
X1806206Y1030405D1*
X1801901Y1040798D1*
X1799275Y1051736D1*
X1798392Y1062950D1*
X1799275Y1074164D1*
X1801901Y1085102D1*
X1806206Y1095495D1*
X1812083Y1105086D1*
X1819389Y1113640D1*
X1827943Y1120946D1*
X1837534Y1126823D1*
X1847926Y1131128D1*
X1858865Y1133754D1*
X1870079Y1134636D1*
X1881293Y1133754D1*
X1892231Y1131128D1*
X1902624Y1126823D1*
X1912215Y1120946D1*
X1920769Y1113640D1*
X1928074Y1105086D1*
X1933952Y1095495D1*
X1938257Y1085102D1*
X1940883Y1074164D1*
X1941765Y1062950D1*
X1940883Y1051736D1*
X1938257Y1040798D1*
X1933952Y1030405D1*
X1928673Y1021710D1*
X2058250Y1021702D1*
X2063680Y1029017D1*
X2071335Y1036672D1*
X2080093Y1043035D1*
X2089740Y1047950D1*
X2100036Y1051296D1*
X2110729Y1052989D1*
X2121555D1*
X2132248Y1051296D1*
X2142544Y1047950D1*
X2152190Y1043035D1*
X2160949Y1036672D1*
X2168604Y1029017D1*
X2173991Y1021719D1*
X2550376Y1021702D1*
X2555806Y1029017D1*
X2563461Y1036672D1*
X2572219Y1043035D1*
X2581866Y1047950D1*
X2592162Y1051296D1*
X2602855Y1052989D1*
X2613681D1*
X2624374Y1051296D1*
X2634670Y1047950D1*
X2644316Y1043035D1*
X2653075Y1036672D1*
X2660730Y1029017D1*
X2666117Y1021719D1*
X2795691Y1021702D1*
X2790458Y1030405D1*
X2786153Y1040798D1*
X2783527Y1051736D1*
X2782644Y1062950D1*
X2783527Y1074164D1*
X2786153Y1085102D1*
X2790458Y1095495D1*
X2796335Y1105086D1*
X2803641Y1113640D1*
X2812195Y1120946D1*
X2821786Y1126823D1*
X2832178Y1131128D1*
X2843116Y1133754D1*
X2854331Y1134636D1*
X2865545Y1133754D1*
X2876483Y1131128D1*
X2886876Y1126823D1*
X2896467Y1120946D1*
X2905021Y1113640D1*
X2912326Y1105086D1*
X2918204Y1095495D1*
X2922508Y1085102D1*
X2925134Y1074164D1*
X2926017Y1062950D1*
X2925134Y1051736D1*
X2922508Y1040798D1*
X2918204Y1030405D1*
X2912925Y1021710D1*
X3042502Y1021702D1*
X3047932Y1029017D1*
X3055587Y1036672D1*
X3064345Y1043035D1*
X3073992Y1047950D1*
X3084288Y1051296D1*
X3094981Y1052989D1*
X3105807D1*
X3116500Y1051296D1*
X3126796Y1047950D1*
X3136442Y1043035D1*
X3145201Y1036672D1*
X3152856Y1029017D1*
X3158243Y1021719D1*
X3534628Y1021702D1*
X3540058Y1029017D1*
X3547713Y1036672D1*
X3556471Y1043035D1*
X3566118Y1047950D1*
X3576414Y1051296D1*
X3587107Y1052989D1*
X3597933D1*
X3608626Y1051296D1*
X3618922Y1047950D1*
X3628568Y1043035D1*
X3637326Y1036672D1*
X3644982Y1029017D1*
X3651345Y1020258D1*
X3656260Y1010612D1*
X3659606Y1000316D1*
X3661299Y989623D1*
Y978797D1*
X3659606Y968104D1*
X3656260Y957808D1*
X3651345Y948162D1*
X3644982Y939403D1*
X3637326Y931748D1*
X3628568Y925385D1*
X3618922Y920470D1*
X3608626Y917124D1*
X3597933Y915431D1*
X3587107D1*
X3576414Y917124D1*
X3566118Y920470D1*
X3556471Y925385D1*
X3547713Y931748D1*
X3540058Y939403D1*
X3534670Y946701D1*
X3158285Y946718D1*
X3152856Y939403D1*
X3152209Y938704D1*
X3333750Y938593D1*
X3338786Y937795D1*
X3343635Y936220D1*
X3348178Y933905D1*
X3352303Y930908D1*
X3399646Y883706D1*
X3536704Y746807D1*
X3531047Y756038D1*
X3526904Y766040D1*
X3524377Y776567D1*
X3523528Y787360D1*
X3524377Y798152D1*
X3526904Y808679D1*
X3531047Y818681D1*
X3536704Y827912D1*
X3543735Y836144D1*
X3551967Y843175D1*
X3561198Y848832D1*
X3571200Y852975D1*
X3581727Y855502D1*
X3592520Y856352D1*
X3603312Y855502D1*
X3613839Y852975D1*
X3623841Y848832D1*
X3633072Y843175D1*
X3641304Y836144D1*
X3648335Y827912D1*
X3653992Y818681D1*
X3658135Y808679D1*
X3660662Y798152D1*
X3661512Y787360D1*
X3660662Y776567D1*
X3658135Y766040D1*
X3653992Y756038D1*
X3648335Y746807D1*
X3641304Y738575D1*
X3633072Y731544D1*
X3625152Y726621D1*
X3704986Y726615D1*
X3704958Y754139D1*
X3699837Y760032D1*
X3696025Y766253D1*
X3693233Y772993D1*
X3691530Y780087D1*
X3690958Y787360D1*
X3691530Y794633D1*
X3693233Y801726D1*
X3696025Y808467D1*
X3699837Y814687D1*
X3704575Y820234D1*
X3710123Y824973D1*
X3716343Y828784D1*
X3723083Y831576D1*
X3730177Y833279D1*
X3737450Y833852D1*
X3744723Y833279D1*
X3751817Y831576D1*
X3758557Y828784D1*
X3764778Y824973D1*
X3770325Y820234D1*
X3775063Y814687D1*
X3778875Y808467D1*
X3781667Y801726D1*
X3783370Y794633D1*
X3783942Y787360D1*
X3783370Y780087D1*
X3781667Y772993D1*
X3778875Y766253D1*
X3775063Y760032D1*
X3769938Y754127D1*
X3769942Y729263D1*
X3772353Y736053D1*
X3777460Y746075D1*
X3784072Y755176D1*
X3792026Y763130D1*
X3801127Y769742D1*
X3811149Y774849D1*
X3821848Y778325D1*
X3832958Y780085D1*
X3844207D1*
X3855318Y778325D1*
X3866016Y774849D1*
X3876039Y769742D1*
X3885139Y763130D1*
X3893093Y755176D1*
X3899705Y746075D1*
X3904812Y736053D1*
X3908288Y725354D1*
X3910048Y714244D1*
Y702995D1*
X3908288Y691885D1*
X3904812Y681186D1*
X3899705Y671163D1*
X3893093Y662063D1*
X3885139Y654109D1*
X3876039Y647497D1*
X3866016Y642390D1*
X3855318Y638914D1*
X3844207Y637154D1*
X3832958D1*
X3821848Y638914D1*
X3811149Y642390D1*
X3801127Y647497D1*
X3799390Y648657D1*
X3799375Y500403D1*
X3563026D1*
Y636655D1*
X3558734Y637725D1*
X3554023Y639677D1*
X3549676Y642341D1*
X3545799Y645652D1*
X3317763Y873688D1*
X2197153Y873709D1*
X2369718Y701136D1*
X2581808Y701120D1*
X2581776Y723678D1*
X2572219Y728534D1*
X2563461Y734898D1*
X2555806Y742553D1*
X2549442Y751311D1*
X2544527Y760957D1*
X2541182Y771254D1*
X2539488Y781947D1*
Y792773D1*
X2541182Y803465D1*
X2544527Y813762D1*
X2549442Y823408D1*
X2555806Y832166D1*
X2563461Y839822D1*
X2572219Y846185D1*
X2581866Y851100D1*
X2592162Y854445D1*
X2602855Y856139D1*
X2613681D1*
X2624374Y854445D1*
X2634670Y851100D1*
X2644316Y846185D1*
X2653075Y839822D1*
X2660730Y832166D1*
X2667093Y823408D1*
X2669089Y819845D1*
X3039506Y819852D1*
X3044578Y827912D1*
X3051609Y836144D1*
X3059841Y843175D1*
X3069072Y848832D1*
X3079074Y852975D1*
X3089601Y855502D1*
X3100394Y856352D1*
X3111186Y855502D1*
X3121713Y852975D1*
X3131715Y848832D1*
X3140946Y843175D1*
X3149179Y836144D1*
X3156210Y827912D1*
X3161866Y818681D1*
X3166009Y808679D1*
X3168536Y798152D1*
X3169386Y787360D1*
X3168536Y776567D1*
X3166009Y766040D1*
X3161866Y756038D1*
X3156210Y746807D1*
X3149179Y738575D1*
X3140946Y731544D1*
X3131715Y725887D1*
X3121713Y721744D1*
X3111186Y719217D1*
X3100394Y718367D1*
X3089601Y719217D1*
X3079074Y721744D1*
X3069072Y725887D1*
X3059841Y731544D1*
X3051609Y738575D1*
X3044578Y746807D1*
X3039573Y754875D1*
X2909095Y754867D1*
X2915453Y746075D1*
X2920560Y736053D1*
X2924036Y725354D1*
X2925796Y714244D1*
Y702995D1*
X2924036Y691885D1*
X2920560Y681186D1*
X2915453Y671163D1*
X2908841Y662063D1*
X2900887Y654109D1*
X2891787Y647497D1*
X2881764Y642390D1*
X2871066Y638914D1*
X2859955Y637154D1*
X2848706D1*
X2837596Y638914D1*
X2826898Y642390D1*
X2818122Y646798D1*
X2818126Y500403D1*
X2581776D1*
Y636153D1*
X2353726Y636235D1*
X2348690Y637033D1*
X2343841Y638608D1*
X2339298Y640923D1*
X2335174Y643920D1*
X2287830Y691122D1*
X2184786Y794166D1*
X2185134Y787360D1*
X2184284Y776567D1*
X2181757Y766040D1*
X2177614Y756038D1*
X2171958Y746807D1*
X2164927Y738575D1*
X2156694Y731544D1*
X2147464Y725887D1*
X2137461Y721744D1*
X2126934Y719217D1*
X2116142Y718367D1*
X2105349Y719217D1*
X2094822Y721744D1*
X2084820Y725887D1*
X2075589Y731544D1*
X2067357Y738575D1*
X2060326Y746807D1*
X2055321Y754875D1*
X1924843Y754867D1*
X1931201Y746075D1*
X1936308Y736053D1*
X1939784Y725354D1*
X1941544Y714244D1*
Y702995D1*
X1939784Y691885D1*
X1936308Y681186D1*
X1931201Y671163D1*
X1924589Y662063D1*
X1916635Y654109D1*
X1907535Y647497D1*
X1897512Y642390D1*
X1886814Y638914D1*
X1875703Y637154D1*
X1864454D1*
X1853344Y638914D1*
X1842646Y642390D1*
X1832623Y647497D1*
X1824368Y653442D1*
X1824377Y500403D1*
X1589404D1*
Y636153D1*
X1528725Y636235D1*
X1523689Y637033D1*
X1518840Y638608D1*
X1514297Y640923D1*
X1510172Y643920D1*
X1469604Y684347D1*
X1365072Y684335D1*
X3563024Y725046D2*
X3556471Y728534D1*
X3551219Y732133D1*
X3563029Y720323D1*
X3563026Y724979D1*
X4082003Y915322D2*
X4073853Y916067D1*
X4063326Y918595D1*
X4053324Y922738D1*
X4044093Y928394D1*
X4035861Y935425D1*
X4028830Y943657D1*
X4023173Y952888D1*
X4019030Y962890D1*
X4016503Y973417D1*
X4015654Y984210D1*
X4016503Y995003D1*
X4019030Y1005530D1*
X4023173Y1015532D1*
X4028830Y1024763D1*
X4035861Y1032995D1*
X4044093Y1040026D1*
X4053324Y1045682D1*
X4063326Y1049825D1*
X4073853Y1052353D1*
X4082003Y1053098D1*
X4081988Y1337921D1*
X642394Y1337894D1*
X642421Y1053165D1*
X650557Y1052353D1*
X661084Y1049825D1*
X671086Y1045682D1*
X680316Y1040026D1*
X688549Y1032995D1*
X695580Y1024763D1*
X701236Y1015532D1*
X705379Y1005530D1*
X707906Y995003D1*
X708756Y984210D1*
X707906Y973417D1*
X705379Y962890D1*
X701236Y952888D1*
X695580Y943657D1*
X688549Y935425D1*
X680316Y928394D1*
X671086Y922738D1*
X661084Y918595D1*
X650557Y916067D1*
X642407Y915322D1*
X642421Y856304D1*
X650557Y855502D1*
X661084Y852975D1*
X671086Y848832D1*
X680316Y843175D1*
X688549Y836144D1*
X695580Y827912D1*
X701236Y818681D1*
X705379Y808679D1*
X707906Y798152D1*
X708756Y787360D1*
X707906Y776567D1*
X705379Y766040D1*
X701236Y756038D1*
X695580Y746807D1*
X688549Y738575D1*
X680316Y731544D1*
X671086Y725887D1*
X661084Y721744D1*
X650557Y719217D1*
X642407Y718471D1*
X642421Y433732D1*
X4082016Y433760D1*
X4081988Y718417D1*
X4073853Y719217D1*
X4063326Y721744D1*
X4053324Y725887D1*
X4044093Y731544D1*
X4035861Y738575D1*
X4028830Y746807D1*
X4023173Y756038D1*
X4019030Y766040D1*
X4016503Y776567D1*
X4015654Y787360D1*
X4016503Y798152D1*
X4019030Y808679D1*
X4023173Y818681D1*
X4028830Y827912D1*
X4035861Y836144D1*
X4044093Y843175D1*
X4053324Y848832D1*
X4063326Y852975D1*
X4073853Y855502D1*
X4082003Y856248D1*
X4081988Y915277D1*
X3910048Y1057326D2*
X3908288Y1046215D1*
X3904812Y1035517D1*
X3899705Y1025494D1*
X3893093Y1016394D1*
X3885139Y1008439D1*
X3876039Y1001827D1*
X3866016Y996721D1*
X3855318Y993244D1*
X3844207Y991485D1*
X3832958D1*
X3821848Y993244D1*
X3811149Y996721D1*
X3801127Y1001827D1*
X3792026Y1008439D1*
X3784072Y1016394D1*
X3777460Y1025494D1*
X3772353Y1035517D1*
X3768877Y1046215D1*
X3767117Y1057326D1*
Y1068575D1*
X3768877Y1079685D1*
X3772353Y1090383D1*
X3777460Y1100406D1*
X3784072Y1109507D1*
X3792026Y1117461D1*
X3801127Y1124073D1*
X3811149Y1129180D1*
X3821848Y1132656D1*
X3832958Y1134415D1*
X3844207D1*
X3855318Y1132656D1*
X3866016Y1129180D1*
X3876039Y1124073D1*
X3885139Y1117461D1*
X3893093Y1109507D1*
X3899705Y1100406D1*
X3904812Y1090383D1*
X3908288Y1079685D1*
X3910048Y1068575D1*
Y1057326D1*
X957292D2*
X955532Y1046215D1*
X952056Y1035517D1*
X946949Y1025494D1*
X940338Y1016394D1*
X932383Y1008439D1*
X923283Y1001827D1*
X913260Y996721D1*
X902562Y993244D1*
X891451Y991485D1*
X880202D1*
X869092Y993244D1*
X858394Y996721D1*
X848371Y1001827D1*
X839270Y1008439D1*
X831316Y1016394D1*
X824704Y1025494D1*
X819597Y1035517D1*
X816121Y1046215D1*
X814361Y1057326D1*
Y1068575D1*
X816121Y1079685D1*
X819597Y1090383D1*
X824704Y1100406D1*
X831316Y1109507D1*
X839270Y1117461D1*
X848371Y1124073D1*
X858394Y1129180D1*
X869092Y1132656D1*
X880202Y1134415D1*
X891451D1*
X902562Y1132656D1*
X913260Y1129180D1*
X923283Y1124073D1*
X932383Y1117461D1*
X940338Y1109507D1*
X946949Y1100406D1*
X952056Y1090383D1*
X955532Y1079685D1*
X957292Y1068575D1*
Y1057326D1*
X1401181Y1187283D2*
D16*
Y1084370D1*
X1312127Y1135827D2*
X1490236D1*
X3624951Y558391D2*
Y500439D1*
X3563062Y558391D2*
X3624951D1*
X3737450D2*
Y500439D1*
Y558391D2*
X3799340D1*
X2643701D2*
Y500439D1*
X2581812Y558391D2*
X2643701D1*
X2756201D2*
Y500439D1*
Y558391D2*
X2818090D1*
X1651329D2*
Y500439D1*
X1589440Y558391D2*
X1651329D1*
X1762451D2*
Y500438D1*
Y558391D2*
X1824341D1*
X1112451Y556201D2*
Y498248D1*
Y556201D2*
X1174341D1*
X1006201Y558465D2*
Y500512D1*
X944311Y558465D2*
X1006201D1*
D17*
X3737450Y668627D3*
Y558391D3*
X2756201Y668627D3*
Y558391D3*
X1762451Y668627D3*
Y558391D3*
X1006201Y668701D3*
Y558465D3*
X3624951Y558391D3*
Y668627D3*
X2643701Y558391D3*
Y668627D3*
X1651329Y558391D3*
Y668627D3*
X1112451Y556201D3*
Y666437D3*
D33*
X1275984Y635827D3*
X1401181Y735827D3*
X1275984Y835827D3*
X1401181Y935827D3*
X1275984Y1035827D3*
X1401181Y1135827D3*
D35*
X3592520Y787360D3*
Y984210D3*
X4084646D3*
Y787360D3*
X2608268D3*
Y984210D3*
X3100394D3*
Y787360D3*
X1624016D3*
Y984210D3*
X2116142D3*
Y787360D3*
X639764D3*
Y984210D3*
X1131890D3*
Y787360D3*
M02*
