G04 DipTrace 3.3.1.3*
G04 TopMask.gbr*
%MOIN*%
G04 #@! TF.FileFunction,Soldermask,Top*
G04 #@! TF.Part,Single*
%ADD38C,0.11811*%
%ADD39C,0.070866*%
%ADD44C,0.092874*%
%ADD46R,0.133071X0.057874*%
%ADD48R,0.07874X0.070866*%
%FSLAX26Y26*%
G04*
G70*
G90*
G75*
G01*
G04 TopMask*
%LPD*%
D48*
X3737450Y668627D3*
Y558391D3*
X2756201Y668627D3*
Y558391D3*
X1762451Y668627D3*
Y558391D3*
X1006201Y668701D3*
Y558465D3*
D38*
X511811Y511811D3*
Y1259843D3*
X4212598D3*
Y511811D3*
D48*
X3624951Y558391D3*
Y668627D3*
X2643701Y558391D3*
Y668627D3*
X1651329Y558391D3*
Y668627D3*
X1112451Y556201D3*
Y666437D3*
D46*
X1275984Y635827D3*
X1401181Y735827D3*
X1275984Y835827D3*
X1401181Y935827D3*
X1275984Y1035827D3*
X1401181Y1135827D3*
D44*
X3592520Y787360D3*
Y984210D3*
X4084646D3*
Y787360D3*
D39*
X3838583Y708619D3*
Y1062950D3*
D44*
X2608268Y787360D3*
Y984210D3*
X3100394D3*
Y787360D3*
D39*
X2854331Y708619D3*
Y1062950D3*
D44*
X1624016Y787360D3*
Y984210D3*
X2116142D3*
Y787360D3*
D39*
X1870079Y708619D3*
Y1062950D3*
D44*
X639764Y787360D3*
Y984210D3*
X1131890D3*
Y787360D3*
D39*
X885827Y708619D3*
Y1062950D3*
M02*
